<svg xmlns="http://www.w3.org/2000/svg" width="15" height="16.657" viewBox="0 0 15 16.657">
  <defs>
    <style>
      .cls-1 {
        fill: #0df205;
      }
    </style>
  </defs>
  <path id="Color" class="cls-1" d="M13.426,16.657H1.574A1.624,1.624,0,0,1,0,14.99V8.01a1.729,1.729,0,0,1,.479-1.2L6.9.241A.857.857,0,0,1,8.1.241l6.425,6.57A1.73,1.73,0,0,1,15,8.01V14.99A1.625,1.625,0,0,1,13.426,16.657ZM5,8.323h5a.835.835,0,0,1,.833.834V14.99h2.492l.008-6.979L7.5,2.017,1.672,7.975,1.666,14.99h2.5V9.157A.835.835,0,0,1,5,8.323ZM5.833,9.99v5H9.166v-5Z" transform="translate(0)"/>
</svg>
