<svg xmlns="http://www.w3.org/2000/svg" xmlns:xlink="http://www.w3.org/1999/xlink" width="20" height="16" viewBox="0 0 20 16">
  <defs>
    <style>
      .cls-1 {
        fill: #0df205;
      }

      .cls-2 {
        clip-path: url(#clip-path);
      }
    </style>
    <clipPath id="clip-path">
      <path id="Color" class="cls-1" d="M17,16H3a3,3,0,0,1-3-3V3A3,3,0,0,1,3,0H17a3,3,0,0,1,3,3V13A3,3,0,0,1,17,16ZM2,3.25V13a1,1,0,0,0,1,1H17a1,1,0,0,0,1-1V3.25L10.6,8.8a1,1,0,0,1-1.2,0ZM3.667,2,10,6.75,16.333,2Z" transform="translate(2 4)"/>
    </clipPath>
  </defs>
  <g id="Group_121" data-name="Group 121" transform="translate(-2 -4)">
    <path id="Color-2" data-name="Color" class="cls-1" d="M17,16H3a3,3,0,0,1-3-3V3A3,3,0,0,1,3,0H17a3,3,0,0,1,3,3V13A3,3,0,0,1,17,16ZM2,3.25V13a1,1,0,0,0,1,1H17a1,1,0,0,0,1-1V3.25L10.6,8.8a1,1,0,0,1-1.2,0ZM3.667,2,10,6.75,16.333,2Z" transform="translate(2 4)"/>
  </g>
</svg>
