<svg id="Icons_Social_Linkedin" data-name="Icons / Social / Linkedin" xmlns="http://www.w3.org/2000/svg" xmlns:xlink="http://www.w3.org/1999/xlink" width="24" height="24" viewBox="0 0 24 24">
  <defs>
    <style>
      .cls-1 {
        fill: #0df205;
      }

      .cls-2 {
        clip-path: url(#clip-path);
      }
    </style>
    <clipPath id="clip-path">
      <path id="Color" class="cls-1" d="M18,21H16.333a2,2,0,0,1-2-2V13.63a.913.913,0,0,0-.688-.925.879.879,0,0,0-.148-.013.817.817,0,0,0-.53.2.851.851,0,0,0-.3.651V19a2,2,0,0,1-2,2H9a2,2,0,0,1-2-2V13.539a6.5,6.5,0,1,1,13,0V19A2,2,0,0,1,18,21ZM13.5,10.692a2.956,2.956,0,0,1,.462.038,2.917,2.917,0,0,1,2.367,2.9V19H18V13.539a4.5,4.5,0,1,0-9,0V19h1.667V13.539A2.839,2.839,0,0,1,13.5,10.692ZM4,21H2a2,2,0,0,1-2-2V9A2,2,0,0,1,2,7H4A2,2,0,0,1,6,9V19A2,2,0,0,1,4,21ZM2,9H2L2,19H4V9H2ZM3,6A3,3,0,1,1,6,3,3,3,0,0,1,3,6ZM3,2A1,1,0,1,0,4,3,1,1,0,0,0,3,2Z" transform="translate(2 1)"/>
    </clipPath>
  </defs>
  <g id="Group_141" data-name="Group 141">
    <path id="Color-2" data-name="Color" class="cls-1" d="M18,21H16.333a2,2,0,0,1-2-2V13.63a.913.913,0,0,0-.688-.925.879.879,0,0,0-.148-.013.817.817,0,0,0-.53.2.851.851,0,0,0-.3.651V19a2,2,0,0,1-2,2H9a2,2,0,0,1-2-2V13.539a6.5,6.5,0,1,1,13,0V19A2,2,0,0,1,18,21ZM13.5,10.692a2.956,2.956,0,0,1,.462.038,2.917,2.917,0,0,1,2.367,2.9V19H18V13.539a4.5,4.5,0,1,0-9,0V19h1.667V13.539A2.839,2.839,0,0,1,13.5,10.692ZM4,21H2a2,2,0,0,1-2-2V9A2,2,0,0,1,2,7H4A2,2,0,0,1,6,9V19A2,2,0,0,1,4,21ZM2,9H2L2,19H4V9H2ZM3,6A3,3,0,1,1,6,3,3,3,0,0,1,3,6ZM3,2A1,1,0,1,0,4,3,1,1,0,0,0,3,2Z" transform="translate(2 1)"/>
  </g>
</svg>
