<svg id="Icons_Social_Facebook" data-name="Icons / Social / Facebook" xmlns="http://www.w3.org/2000/svg" xmlns:xlink="http://www.w3.org/1999/xlink" width="24" height="24" viewBox="0 0 24 24">
  <defs>
    <style>
      .cls-1 {
        fill: #0df205;
      }

      .cls-2 {
        clip-path: url(#clip-path);
      }
    </style>
    <clipPath id="clip-path">
      <path id="Color" class="cls-1" d="M8,20H4a1,1,0,0,1-1-1V12.8H1a1,1,0,0,1-1-1V8.2a1,1,0,0,1,1-1H3V5.5A5.773,5.773,0,0,1,9,0h3a1,1,0,0,1,1,1V4.6a1,1,0,0,1-1,1H9V7.2h3a1.007,1.007,0,0,1,.8.4.994.994,0,0,1,.167.873l-1,3.6A1,1,0,0,1,11,12.8H9V19A1,1,0,0,1,8,20ZM2,9.2v1.6H4a1,1,0,0,1,1,1V18H7V11.8a1,1,0,0,1,1-1h2.24l.445-1.6H8a1,1,0,0,1-1-1V5.5A1.954,1.954,0,0,1,9,3.6h2V2H9A3.779,3.779,0,0,0,5,5.5V8.2a1,1,0,0,1-1,1Z" transform="translate(5 2)"/>
    </clipPath>
  </defs>
  <g id="Group_156" data-name="Group 156">
    <path id="Color-2" data-name="Color" class="cls-1" d="M8,20H4a1,1,0,0,1-1-1V12.8H1a1,1,0,0,1-1-1V8.2a1,1,0,0,1,1-1H3V5.5A5.773,5.773,0,0,1,9,0h3a1,1,0,0,1,1,1V4.6a1,1,0,0,1-1,1H9V7.2h3a1.007,1.007,0,0,1,.8.4.994.994,0,0,1,.167.873l-1,3.6A1,1,0,0,1,11,12.8H9V19A1,1,0,0,1,8,20ZM2,9.2v1.6H4a1,1,0,0,1,1,1V18H7V11.8a1,1,0,0,1,1-1h2.24l.445-1.6H8a1,1,0,0,1-1-1V5.5A1.954,1.954,0,0,1,9,3.6h2V2H9A3.779,3.779,0,0,0,5,5.5V8.2a1,1,0,0,1-1,1Z" transform="translate(5 2)"/>
  </g>
</svg>
