<svg id="Icons_Attach_Attach_2" data-name="Icons / Attach / Attach 2" xmlns="http://www.w3.org/2000/svg" xmlns:xlink="http://www.w3.org/1999/xlink" width="24" height="24" viewBox="0 0 24 24">
  <defs>
    <clipPath id="clip-path">
      <path id="Color" d="M6.289,19h0a6.224,6.224,0,0,1-4.432-1.875,6.045,6.045,0,0,1-.219-8.494L9.024,1.2A4.085,4.085,0,0,1,11.946,0a4.482,4.482,0,0,1,3.192,1.349,4.362,4.362,0,0,1,.146,6.132L7.889,14.91a2.535,2.535,0,0,1-1.816.748h0a2.738,2.738,0,0,1-1.95-.821,2.684,2.684,0,0,1-.073-3.772L10.875,4.21a1,1,0,1,1,1.417,1.41L5.468,12.476a.683.683,0,0,0,.074.951.76.76,0,0,0,.531.231h0a.549.549,0,0,0,.4-.158l7.395-7.429a2.362,2.362,0,0,0-.146-3.312,2.384,2.384,0,0,0-3.278-.148l-7.386,7.43a4.043,4.043,0,0,0,.22,5.674A4.233,4.233,0,0,0,6.289,17,3.648,3.648,0,0,0,8.9,15.936l7.387-7.43a1,1,0,0,1,1.418,1.41l-7.387,7.43A5.634,5.634,0,0,1,6.289,19" transform="translate(3.004 2)"/>
    </clipPath>
  </defs>
  <g id="Group_151" data-name="Group 151">
    <path id="Color-2" data-name="Color" d="M6.289,19h0a6.224,6.224,0,0,1-4.432-1.875,6.045,6.045,0,0,1-.219-8.494L9.024,1.2A4.085,4.085,0,0,1,11.946,0a4.482,4.482,0,0,1,3.192,1.349,4.362,4.362,0,0,1,.146,6.132L7.889,14.91a2.535,2.535,0,0,1-1.816.748h0a2.738,2.738,0,0,1-1.95-.821,2.684,2.684,0,0,1-.073-3.772L10.875,4.21a1,1,0,1,1,1.417,1.41L5.468,12.476a.683.683,0,0,0,.074.951.76.76,0,0,0,.531.231h0a.549.549,0,0,0,.4-.158l7.395-7.429a2.362,2.362,0,0,0-.146-3.312,2.384,2.384,0,0,0-3.278-.148l-7.386,7.43a4.043,4.043,0,0,0,.22,5.674A4.233,4.233,0,0,0,6.289,17,3.648,3.648,0,0,0,8.9,15.936l7.387-7.43a1,1,0,0,1,1.418,1.41l-7.387,7.43A5.634,5.634,0,0,1,6.289,19" transform="translate(3.004 2)"/>
  </g>
</svg>
