<svg id="Icons_Question_Mark" data-name="Icons / Question / Mark" xmlns="http://www.w3.org/2000/svg" xmlns:xlink="http://www.w3.org/1999/xlink" width="24" height="24" viewBox="0 0 24 24">
  <defs>
    <clipPath id="clip-path">
      <path id="Color" d="M4,15a1,1,0,1,1,1,1A1,1,0,0,1,4,15Zm0-4V9A1,1,0,0,1,5,8,3,3,0,1,0,2,5,1,1,0,0,1,0,5,5,5,0,1,1,6,9.9V11a1,1,0,0,1-2,0Z" transform="translate(7 4)"/>
    </clipPath>
  </defs>
  <g id="Group_192" data-name="Group 192">
    <path id="Color-2" data-name="Color" d="M4,15a1,1,0,1,1,1,1A1,1,0,0,1,4,15Zm0-4V9A1,1,0,0,1,5,8,3,3,0,1,0,2,5,1,1,0,0,1,0,5,5,5,0,1,1,6,9.9V11a1,1,0,0,1-2,0Z" transform="translate(7 4)"/>
  </g>
</svg>
