<svg id="Icons_Tv" data-name="Icons / Tv" xmlns="http://www.w3.org/2000/svg" xmlns:xlink="http://www.w3.org/1999/xlink" width="24" height="24" viewBox="0 0 24 24">
  <defs>
    <clipPath id="clip-path">
      <path id="Color" d="M15,20H3a3,3,0,0,1-3-3V7A3,3,0,0,1,3,4H6.586L4.293,1.707A1,1,0,1,1,5.707.293L9,3.587,12.293.293a1,1,0,1,1,1.414,1.414L11.414,4H15a3,3,0,0,1,3,3V17A3,3,0,0,1,15,20ZM3,6A1,1,0,0,0,2,7V17a1,1,0,0,0,1,1H15a1,1,0,0,0,1-1V7a1,1,0,0,0-1-1Z" transform="translate(3 2)"/>
    </clipPath>
  </defs>
  <g id="Group_202" data-name="Group 202">
    <path id="Color-2" data-name="Color" d="M15,20H3a3,3,0,0,1-3-3V7A3,3,0,0,1,3,4H6.586L4.293,1.707A1,1,0,1,1,5.707.293L9,3.587,12.293.293a1,1,0,1,1,1.414,1.414L11.414,4H15a3,3,0,0,1,3,3V17A3,3,0,0,1,15,20ZM3,6A1,1,0,0,0,2,7V17a1,1,0,0,0,1,1H15a1,1,0,0,0,1-1V7a1,1,0,0,0-1-1Z" transform="translate(3 2)"/>
  </g>
</svg>
