<svg id="Icons_Shake" data-name="Icons / Shake" xmlns="http://www.w3.org/2000/svg" xmlns:xlink="http://www.w3.org/1999/xlink" width="24" height="24" viewBox="0 0 24 24">
  <defs>
    <clipPath id="clip-path">
      <path id="Color" d="M9.5,18V12.858a3.991,3.991,0,0,0,1,.141,3.979,3.979,0,0,0,1-.141V18a1,1,0,1,1-2,0Zm6.735-2.356a1,1,0,0,1,.121-1.409A6.869,6.869,0,0,0,19,9a6.869,6.869,0,0,0-2.645-5.235,1,1,0,0,1,1.29-1.53A8.836,8.836,0,0,1,21,9a8.836,8.836,0,0,1-3.355,6.765,1,1,0,0,1-1.41-.122Zm-12.879.122A8.834,8.834,0,0,1,0,9,8.834,8.834,0,0,1,3.356,2.235a1,1,0,1,1,1.289,1.53A6.872,6.872,0,0,0,2,9a6.872,6.872,0,0,0,2.645,5.235,1,1,0,0,1-1.289,1.53Zm10.379-2.12a1,1,0,0,1,.122-1.41A4.253,4.253,0,0,0,15.5,9a4.253,4.253,0,0,0-1.644-3.235,1,1,0,1,1,1.289-1.53A6.219,6.219,0,0,1,17.5,9a6.219,6.219,0,0,1-2.356,4.765,1,1,0,0,1-1.41-.12Zm-7.879.12A6.219,6.219,0,0,1,3.5,9,6.219,6.219,0,0,1,5.856,4.235a1,1,0,1,1,1.289,1.53A4.251,4.251,0,0,0,5.5,9a4.251,4.251,0,0,0,1.645,3.235,1,1,0,1,1-1.289,1.53ZM9.5,9a1,1,0,1,1,1,1A1,1,0,0,1,9.5,9Zm1-4a3.991,3.991,0,0,0-1,.141V1a1,1,0,1,1,2,0V5.142A3.979,3.979,0,0,0,10.5,5Z" transform="translate(1.5 2)"/>
    </clipPath>
  </defs>
  <g id="Group_159" data-name="Group 159">
    <path id="Color-2" data-name="Color" d="M9.5,18V12.858a3.991,3.991,0,0,0,1,.141,3.979,3.979,0,0,0,1-.141V18a1,1,0,1,1-2,0Zm6.735-2.356a1,1,0,0,1,.121-1.409A6.869,6.869,0,0,0,19,9a6.869,6.869,0,0,0-2.645-5.235,1,1,0,0,1,1.29-1.53A8.836,8.836,0,0,1,21,9a8.836,8.836,0,0,1-3.355,6.765,1,1,0,0,1-1.41-.122Zm-12.879.122A8.834,8.834,0,0,1,0,9,8.834,8.834,0,0,1,3.356,2.235a1,1,0,1,1,1.289,1.53A6.872,6.872,0,0,0,2,9a6.872,6.872,0,0,0,2.645,5.235,1,1,0,0,1-1.289,1.53Zm10.379-2.12a1,1,0,0,1,.122-1.41A4.253,4.253,0,0,0,15.5,9a4.253,4.253,0,0,0-1.644-3.235,1,1,0,1,1,1.289-1.53A6.219,6.219,0,0,1,17.5,9a6.219,6.219,0,0,1-2.356,4.765,1,1,0,0,1-1.41-.12Zm-7.879.12A6.219,6.219,0,0,1,3.5,9,6.219,6.219,0,0,1,5.856,4.235a1,1,0,1,1,1.289,1.53A4.251,4.251,0,0,0,5.5,9a4.251,4.251,0,0,0,1.645,3.235,1,1,0,1,1-1.289,1.53ZM9.5,9a1,1,0,1,1,1,1A1,1,0,0,1,9.5,9Zm1-4a3.991,3.991,0,0,0-1,.141V1a1,1,0,1,1,2,0V5.142A3.979,3.979,0,0,0,10.5,5Z" transform="translate(1.5 2)"/>
  </g>
</svg>
