<svg id="Icons_Radio_Anten" data-name="Icons / Radio / Anten" xmlns="http://www.w3.org/2000/svg" width="24" height="24" viewBox="0 0 24 24">
  <path id="Color" d="M10,17a1,1,0,0,1-1-1V10a.416.416,0,0,1,.02-.112c.006-.02.011-.041.015-.062a3,3,0,1,1,1.93,0c0,.02.009.039.014.058A.43.43,0,0,1,11,10v6A1,1,0,0,1,10,17ZM10,6a1,1,0,1,0,1,1A1,1,0,0,0,10,6Zm6,8a1,1,0,0,1-.645-1.767A6.861,6.861,0,0,0,18,7a6.865,6.865,0,0,0-2.644-5.234A1,1,0,0,1,16.644.234,8.836,8.836,0,0,1,20,7a8.836,8.836,0,0,1-3.356,6.766A1.007,1.007,0,0,1,16,14ZM4,14a1.007,1.007,0,0,1-.643-.234A8.836,8.836,0,0,1,0,7,8.836,8.836,0,0,1,3.356.234,1,1,0,1,1,4.644,1.766,6.865,6.865,0,0,0,2,7a6.861,6.861,0,0,0,2.644,5.233A1,1,0,0,1,4,14Zm9.5-2a1,1,0,0,1-.645-1.765A4.252,4.252,0,0,0,14.5,7a4.256,4.256,0,0,0-1.644-3.236,1,1,0,0,1,1.289-1.53A6.222,6.222,0,0,1,16.5,7a6.218,6.218,0,0,1-2.355,4.765A1,1,0,0,1,13.5,12Zm-7,0a1,1,0,0,1-.643-.235A6.216,6.216,0,0,1,3.5,7,6.22,6.22,0,0,1,5.856,2.235a1,1,0,0,1,1.288,1.53A4.256,4.256,0,0,0,5.5,7a4.252,4.252,0,0,0,1.644,3.235A1,1,0,0,1,6.5,12Z" transform="translate(2 4)"/>
</svg>
