<svg id="Icons_Text" data-name="Icons / Text" xmlns="http://www.w3.org/2000/svg" xmlns:xlink="http://www.w3.org/1999/xlink" width="24" height="24" viewBox="0 0 24 24">
  <defs>
    <clipPath id="clip-path">
      <path id="Color" d="M17,0H1A1,1,0,0,0,0,1V4A1,1,0,0,0,2,4V2H8V15H6a1,1,0,0,0,0,2h6a1,1,0,0,0,0-2H10V2h6V4a1,1,0,0,0,2,0V1a1,1,0,0,0-1-1" transform="translate(3 4)"/>
    </clipPath>
  </defs>
  <g id="Group_221" data-name="Group 221">
    <path id="Color-2" data-name="Color" d="M17,0H1A1,1,0,0,0,0,1V4A1,1,0,0,0,2,4V2H8V15H6a1,1,0,0,0,0,2h6a1,1,0,0,0,0-2H10V2h6V4a1,1,0,0,0,2,0V1a1,1,0,0,0-1-1" transform="translate(3 4)"/>
  </g>
</svg>
