<svg id="Icons_Printer" data-name="Icons / Printer" xmlns="http://www.w3.org/2000/svg" xmlns:xlink="http://www.w3.org/1999/xlink" width="24" height="24" viewBox="0 0 24 24">
  <defs>
    <clipPath id="clip-path">
      <path id="Color" d="M14.5,18h-9a2,2,0,0,1-2-2H2.637A2.655,2.655,0,0,1,0,13.333V6.667A2.655,2.655,0,0,1,2.637,4H4V2A1.924,1.924,0,0,1,5.833,0h8.334A1.924,1.924,0,0,1,16,2V4h1.363A2.655,2.655,0,0,1,20,6.667v6.665A2.655,2.655,0,0,1,17.363,16H16.5A2,2,0,0,1,14.5,18Zm-9-6v4h9l0-4Zm0-2h9a2,2,0,0,1,2,2v2h.863A.654.654,0,0,0,18,13.333V6.667A.653.653,0,0,0,17.363,6H2.637A.653.653,0,0,0,2,6.667v6.665A.654.654,0,0,0,2.637,14H3.5V12A2,2,0,0,1,5.5,10Zm.514-8L6.007,4H14V2Z" transform="translate(2 3)"/>
    </clipPath>
  </defs>
  <g id="Group_170" data-name="Group 170">
    <path id="Color-2" data-name="Color" d="M14.5,18h-9a2,2,0,0,1-2-2H2.637A2.655,2.655,0,0,1,0,13.333V6.667A2.655,2.655,0,0,1,2.637,4H4V2A1.924,1.924,0,0,1,5.833,0h8.334A1.924,1.924,0,0,1,16,2V4h1.363A2.655,2.655,0,0,1,20,6.667v6.665A2.655,2.655,0,0,1,17.363,16H16.5A2,2,0,0,1,14.5,18Zm-9-6v4h9l0-4Zm0-2h9a2,2,0,0,1,2,2v2h.863A.654.654,0,0,0,18,13.333V6.667A.653.653,0,0,0,17.363,6H2.637A.653.653,0,0,0,2,6.667v6.665A.654.654,0,0,0,2.637,14H3.5V12A2,2,0,0,1,5.5,10Zm.514-8L6.007,4H14V2Z" transform="translate(2 3)"/>
  </g>
</svg>
