<svg id="Icons_WiFi_Off" data-name="Icons / WiFi / Off" xmlns="http://www.w3.org/2000/svg" xmlns:xlink="http://www.w3.org/1999/xlink" width="24" height="24" viewBox="0 0 24 24">
  <defs>
    <clipPath id="clip-path">
      <path id="Color" d="M17.322,17.708l-3.851-3.852-2.793-2.794L7.94,8.323,6.394,6.777,4.16,4.543,2.7,3.083,1.322,1.707A1,1,0,0,1,2.738.293L4.561,2.117,6.113,3.668,8.574,6.13l1.892,1.893,8.271,8.271a1,1,0,0,1-1.415,1.414ZM9.03,16a1,1,0,1,1,1,1A1,1,0,0,1,9.03,16Zm-2.5-2.182A1,1,0,0,1,6.557,12.4a4.952,4.952,0,0,1,2.717-1.331l2.516,2.518a3.076,3.076,0,0,0-3.845.251,1,1,0,0,1-1.414-.024ZM3.58,10.162a1,1,0,0,1-.024-1.414A8.886,8.886,0,0,1,5.461,7.26L6.935,8.734a7.014,7.014,0,0,0-1.94,1.4,1,1,0,0,1-1.415.025Zm11.485-.024a7,7,0,0,0-2.849-1.779L9.868,6.008c.054,0,.108-.009.163-.009A9.047,9.047,0,0,1,16.5,8.747a1,1,0,0,1-1.439,1.391ZM.28,6.342A1,1,0,0,1,.305,4.928,14.358,14.358,0,0,1,1.854,3.652L3.286,5.083A12.2,12.2,0,0,0,1.694,6.368.988.988,0,0,1,1,6.648,1,1,0,0,1,.28,6.342Zm18.086.024a11.921,11.921,0,0,0-11.16-3.02L5.591,1.732a13.951,13.951,0,0,1,14.164,3.2,1,1,0,1,1-1.39,1.437Z" transform="translate(1.97 3)"/>
    </clipPath>
  </defs>
  <g id="Group_129" data-name="Group 129">
    <path id="Color-2" data-name="Color" d="M17.322,17.708l-3.851-3.852-2.793-2.794L7.94,8.323,6.394,6.777,4.16,4.543,2.7,3.083,1.322,1.707A1,1,0,0,1,2.738.293L4.561,2.117,6.113,3.668,8.574,6.13l1.892,1.893,8.271,8.271a1,1,0,0,1-1.415,1.414ZM9.03,16a1,1,0,1,1,1,1A1,1,0,0,1,9.03,16Zm-2.5-2.182A1,1,0,0,1,6.557,12.4a4.952,4.952,0,0,1,2.717-1.331l2.516,2.518a3.076,3.076,0,0,0-3.845.251,1,1,0,0,1-1.414-.024ZM3.58,10.162a1,1,0,0,1-.024-1.414A8.886,8.886,0,0,1,5.461,7.26L6.935,8.734a7.014,7.014,0,0,0-1.94,1.4,1,1,0,0,1-1.415.025Zm11.485-.024a7,7,0,0,0-2.849-1.779L9.868,6.008c.054,0,.108-.009.163-.009A9.047,9.047,0,0,1,16.5,8.747a1,1,0,0,1-1.439,1.391ZM.28,6.342A1,1,0,0,1,.305,4.928,14.358,14.358,0,0,1,1.854,3.652L3.286,5.083A12.2,12.2,0,0,0,1.694,6.368.988.988,0,0,1,1,6.648,1,1,0,0,1,.28,6.342Zm18.086.024a11.921,11.921,0,0,0-11.16-3.02L5.591,1.732a13.951,13.951,0,0,1,14.164,3.2,1,1,0,1,1-1.39,1.437Z" transform="translate(1.97 3)"/>
  </g>
</svg>
