<svg id="Icons_Brush" data-name="Icons / Brush" xmlns="http://www.w3.org/2000/svg" xmlns:xlink="http://www.w3.org/1999/xlink" width="24" height="24" viewBox="0 0 24 24">
  <defs>
    <clipPath id="clip-path">
      <path id="Color" d="M1.019,15.973H1a1,1,0,0,1-1-1.017L.058,11.69a4.416,4.416,0,0,1,4.3-4.3,1.134,1.134,0,0,1,.126.011c.032,0,.063.008.1.01L11.2.8a2.891,2.891,0,0,1,3.985,0A2.76,2.76,0,0,1,16,2.8a2.733,2.733,0,0,1-.82,1.979L8.572,11.387c0,.034,0,.068.008.1a.9.9,0,0,1,.008.122,4.417,4.417,0,0,1-4.3,4.3ZM4.436,9.385H4.4a2.4,2.4,0,0,0-2.339,2.338l-.04,2.23,2.228-.04a2.4,2.4,0,0,0,2.342-2.339,2.131,2.131,0,0,0-2.152-2.19Zm8.751-7.4a.816.816,0,0,0-.578.231L6.741,8.078a4.046,4.046,0,0,1,.637.517,4.135,4.135,0,0,1,.521.636l5.867-5.865A.784.784,0,0,0,14,2.8a.8.8,0,0,0-.233-.589A.821.821,0,0,0,13.188,1.98Z" transform="translate(3.999 4.027)"/>
    </clipPath>
  </defs>
  <g id="Group_172" data-name="Group 172">
    <path id="Color-2" data-name="Color" d="M1.019,15.973H1a1,1,0,0,1-1-1.017L.058,11.69a4.416,4.416,0,0,1,4.3-4.3,1.134,1.134,0,0,1,.126.011c.032,0,.063.008.1.01L11.2.8a2.891,2.891,0,0,1,3.985,0A2.76,2.76,0,0,1,16,2.8a2.733,2.733,0,0,1-.82,1.979L8.572,11.387c0,.034,0,.068.008.1a.9.9,0,0,1,.008.122,4.417,4.417,0,0,1-4.3,4.3ZM4.436,9.385H4.4a2.4,2.4,0,0,0-2.339,2.338l-.04,2.23,2.228-.04a2.4,2.4,0,0,0,2.342-2.339,2.131,2.131,0,0,0-2.152-2.19Zm8.751-7.4a.816.816,0,0,0-.578.231L6.741,8.078a4.046,4.046,0,0,1,.637.517,4.135,4.135,0,0,1,.521.636l5.867-5.865A.784.784,0,0,0,14,2.8a.8.8,0,0,0-.233-.589A.821.821,0,0,0,13.188,1.98Z" transform="translate(3.999 4.027)"/>
  </g>
</svg>
