<svg id="Icons_Link_Link_1" data-name="Icons / Link / Link 1" xmlns="http://www.w3.org/2000/svg" xmlns:xlink="http://www.w3.org/1999/xlink" width="24" height="24" viewBox="0 0 24 24">
  <defs>
    <clipPath id="clip-path">
      <path id="Color" d="M14,12a1,1,0,0,1,0-2h2a4,4,0,0,0,3.983-4.366A4.143,4.143,0,0,0,15.789,2H14a1,1,0,0,1-1-1c0-.553.443-1,1.249-1h1.51a6.163,6.163,0,0,1,6.194,5.243A6.007,6.007,0,0,1,16,12ZM6,12A6.008,6.008,0,0,1,.05,5.211,6.142,6.142,0,0,1,6.209,0H8A1,1,0,0,1,8,2H6A4,4,0,0,0,2.017,6.366,4.142,4.142,0,0,0,6.21,10H8a1,1,0,0,1,0,2ZM8,7A1,1,0,1,1,8,5h6a1,1,0,0,1,0,2Z" transform="translate(1 6)"/>
    </clipPath>
  </defs>
  <g id="Group_167" data-name="Group 167">
    <path id="Color-2" data-name="Color" d="M14,12a1,1,0,0,1,0-2h2a4,4,0,0,0,3.983-4.366A4.143,4.143,0,0,0,15.789,2H14a1,1,0,0,1-1-1c0-.553.443-1,1.249-1h1.51a6.163,6.163,0,0,1,6.194,5.243A6.007,6.007,0,0,1,16,12ZM6,12A6.008,6.008,0,0,1,.05,5.211,6.142,6.142,0,0,1,6.209,0H8A1,1,0,0,1,8,2H6A4,4,0,0,0,2.017,6.366,4.142,4.142,0,0,0,6.21,10H8a1,1,0,0,1,0,2ZM8,7A1,1,0,1,1,8,5h6a1,1,0,0,1,0,2Z" transform="translate(1 6)"/>
  </g>
</svg>
