<svg id="Icons_Bookmark_" data-name="Icons / Bookmark " xmlns="http://www.w3.org/2000/svg" xmlns:xlink="http://www.w3.org/1999/xlink" width="24" height="24" viewBox="0 0 24 24">
  <defs>
    <clipPath id="clip-path">
      <path id="Color" d="M13,18a1,1,0,0,1-.491-.13L6.836,14.663l-5.323,3.2A1,1,0,0,1,0,17V2.334A2.272,2.272,0,0,1,2.2,0h9.6A2.273,2.273,0,0,1,14,2.334V17a1,1,0,0,1-1,1ZM6.821,12.506a1,1,0,0,1,.492.129L12,15.286V2.334c0-.2-.12-.334-.2-.334H2.2c-.08,0-.2.133-.2.334v12.9l4.306-2.586A1,1,0,0,1,6.821,12.506Z" transform="translate(5 3)"/>
    </clipPath>
  </defs>
  <g id="Group_184" data-name="Group 184">
    <path id="Color-2" data-name="Color" d="M13,18a1,1,0,0,1-.491-.13L6.836,14.663l-5.323,3.2A1,1,0,0,1,0,17V2.334A2.272,2.272,0,0,1,2.2,0h9.6A2.273,2.273,0,0,1,14,2.334V17a1,1,0,0,1-1,1ZM6.821,12.506a1,1,0,0,1,.492.129L12,15.286V2.334c0-.2-.12-.334-.2-.334H2.2c-.08,0-.2.133-.2.334v12.9l4.306-2.586A1,1,0,0,1,6.821,12.506Z" transform="translate(5 3)"/>
  </g>
</svg>
