<svg id="Icons_Plus_Plus" data-name="Icons / Plus / Plus" xmlns="http://www.w3.org/2000/svg" xmlns:xlink="http://www.w3.org/1999/xlink" width="24" height="24" viewBox="0 0 24 24">
  <defs>
    <clipPath id="clip-path">
      <path id="Color" d="M15,7H9V1A1,1,0,0,0,7,1V7H1A1,1,0,0,0,1,9H7v6a1,1,0,0,0,2,0V9h6a1,1,0,0,0,0-2" transform="translate(4 4)"/>
    </clipPath>
  </defs>
  <g id="Group_178" data-name="Group 178">
    <path id="Color-2" data-name="Color" d="M15,7H9V1A1,1,0,0,0,7,1V7H1A1,1,0,0,0,1,9H7v6a1,1,0,0,0,2,0V9h6a1,1,0,0,0,0-2" transform="translate(4 4)"/>
  </g>
</svg>
