<svg id="Icons_Arrow_Arrow_1_Down" data-name="Icons / Arrow / Arrow 1 / Down" xmlns="http://www.w3.org/2000/svg" xmlns:xlink="http://www.w3.org/1999/xlink" width="24" height="24" viewBox="0 0 24 24">
  <defs>
    <clipPath id="clip-path">
      <path id="Color" d="M6,9a1.718,1.718,0,0,1-1.326-.642L.462,3.26A2.086,2.086,0,0,1,.2,1.049,1.761,1.761,0,0,1,1.788,0h8.426A1.761,1.761,0,0,1,11.8,1.049a2.084,2.084,0,0,1-.258,2.209l-4.214,5.1A1.718,1.718,0,0,1,6,9ZM2.093,2,6,6.822,9.988,2Z" transform="translate(5.999 8)"/>
    </clipPath>
  </defs>
  <g id="Group_201" data-name="Group 201">
    <path id="Color-2" data-name="Color" d="M6,9a1.718,1.718,0,0,1-1.326-.642L.462,3.26A2.086,2.086,0,0,1,.2,1.049,1.761,1.761,0,0,1,1.788,0h8.426A1.761,1.761,0,0,1,11.8,1.049a2.084,2.084,0,0,1-.258,2.209l-4.214,5.1A1.718,1.718,0,0,1,6,9ZM2.093,2,6,6.822,9.988,2Z" transform="translate(5.999 8)"/>
  </g>
</svg>
