<svg id="Icons_Minus_Circle" data-name="Icons / Minus / Circle" xmlns="http://www.w3.org/2000/svg" xmlns:xlink="http://www.w3.org/1999/xlink" width="24" height="24" viewBox="0 0 24 24">
  <defs>
    <clipPath id="clip-path">
      <path id="Color" d="M10,20A10,10,0,1,1,20,10,10.011,10.011,0,0,1,10,20ZM10,2a8,8,0,1,0,8,8A8.009,8.009,0,0,0,10,2Zm3,9H7A1,1,0,0,1,7,9h6a1,1,0,1,1,0,2Z" transform="translate(2 2)"/>
    </clipPath>
  </defs>
  <g id="Group_220" data-name="Group 220">
    <path id="Color-2" data-name="Color" d="M10,20A10,10,0,1,1,20,10,10.011,10.011,0,0,1,10,20ZM10,2a8,8,0,1,0,8,8A8.009,8.009,0,0,0,10,2Zm3,9H7A1,1,0,0,1,7,9h6a1,1,0,1,1,0,2Z" transform="translate(2 2)"/>
  </g>
</svg>
