<svg id="Icons_Hard_Drive" data-name="Icons / Hard Drive" xmlns="http://www.w3.org/2000/svg" xmlns:xlink="http://www.w3.org/1999/xlink" width="24" height="24" viewBox="0 0 24 24">
  <defs>
    <clipPath id="clip-path">
      <path id="Color" d="M15,18H3a3,3,0,0,1-3-3V9.236a2.014,2.014,0,0,1,.211-.894L3.553,1.658A2.984,2.984,0,0,1,6.236,0h5.528a2.984,2.984,0,0,1,2.683,1.658l3.343,6.684A2.014,2.014,0,0,1,18,9.236V15A3,3,0,0,1,15,18ZM2,10v5a1,1,0,0,0,1,1H15a1,1,0,0,0,1-1V10ZM6.236,2a.991.991,0,0,0-.894.553L2.618,8H15.382L12.658,2.553A.991.991,0,0,0,11.764,2ZM13,14H9a1,1,0,0,1,0-2h4a1,1,0,1,1,0,2ZM5,14a1,1,0,1,1,1-1A1,1,0,0,1,5,14Z" transform="translate(3 3)"/>
    </clipPath>
  </defs>
  <g id="Group_176" data-name="Group 176">
    <path id="Color-2" data-name="Color" d="M15,18H3a3,3,0,0,1-3-3V9.236a2.014,2.014,0,0,1,.211-.894L3.553,1.658A2.984,2.984,0,0,1,6.236,0h5.528a2.984,2.984,0,0,1,2.683,1.658l3.343,6.684A2.014,2.014,0,0,1,18,9.236V15A3,3,0,0,1,15,18ZM2,10v5a1,1,0,0,0,1,1H15a1,1,0,0,0,1-1V10ZM6.236,2a.991.991,0,0,0-.894.553L2.618,8H15.382L12.658,2.553A.991.991,0,0,0,11.764,2ZM13,14H9a1,1,0,0,1,0-2h4a1,1,0,1,1,0,2ZM5,14a1,1,0,1,1,1-1A1,1,0,0,1,5,14Z" transform="translate(3 3)"/>
  </g>
</svg>
