<svg id="Icons_Shuffle_Shuffle_2" data-name="Icons / Shuffle / Shuffle 2" xmlns="http://www.w3.org/2000/svg" xmlns:xlink="http://www.w3.org/1999/xlink" width="24" height="24" viewBox="0 0 24 24">
  <defs>
    <clipPath id="clip-path">
      <path id="Color" d="M15.709,10.3a1,1,0,0,0-1.418,1.411l.293.3H13a4,4,0,1,1,0-8h1.588l-.293.291A1,1,0,1,0,15.7,5.709l2-1.991a1,1,0,0,0,0-1.414L15.709.3a1,1,0,0,0-1.418,1.411L14.584,2H13a6,6,0,0,0-5,2.69A6,6,0,0,0,3,2H1A1,1,0,0,0,1,4H3a4,4,0,0,1,0,8H1a1,1,0,0,0,0,2H3A6,6,0,0,0,8,11.31,6,6,0,0,0,13,14h1.588l-.293.291a1,1,0,1,0,1.41,1.417l2-1.991a1,1,0,0,0,0-1.414Z" transform="translate(3 3.999)"/>
    </clipPath>
  </defs>
  <g id="Group_145" data-name="Group 145">
    <path id="Color-2" data-name="Color" d="M15.709,10.3a1,1,0,0,0-1.418,1.411l.293.3H13a4,4,0,1,1,0-8h1.588l-.293.291A1,1,0,1,0,15.7,5.709l2-1.991a1,1,0,0,0,0-1.414L15.709.3a1,1,0,0,0-1.418,1.411L14.584,2H13a6,6,0,0,0-5,2.69A6,6,0,0,0,3,2H1A1,1,0,0,0,1,4H3a4,4,0,0,1,0,8H1a1,1,0,0,0,0,2H3A6,6,0,0,0,8,11.31,6,6,0,0,0,13,14h1.588l-.293.291a1,1,0,1,0,1.41,1.417l2-1.991a1,1,0,0,0,0-1.414Z" transform="translate(3 3.999)"/>
  </g>
</svg>
