<svg id="Icons_Behance" data-name="Icons / Behance" xmlns="http://www.w3.org/2000/svg" xmlns:xlink="http://www.w3.org/1999/xlink" width="24" height="24" viewBox="0 0 24 24">
  <defs>
    <clipPath id="clip-path">
      <path id="Color" d="M10,20A10,10,0,1,1,20,10,10.011,10.011,0,0,1,10,20ZM10,2a8,8,0,1,0,8,8A8.009,8.009,0,0,0,10,2Zm2.808,11.3a2.132,2.132,0,0,1-2.333-2.307v-.441A2.123,2.123,0,0,1,12.755,8.3a2.112,2.112,0,0,1,2.27,2.283v.473h-3.3v.132a1.075,1.075,0,0,0,1.091,1.2.922.922,0,0,0,.976-.628h1.184A1.948,1.948,0,0,1,12.808,13.3Zm-.043-4.108a1.033,1.033,0,0,0-1.038,1.1v.01h2.061v-.01A1.016,1.016,0,0,0,12.765,9.188ZM7.7,13.2H4.975V6.7H7.7C8.9,6.7,9.64,7.317,9.64,8.3A1.381,1.381,0,0,1,8.518,9.728v.056A1.525,1.525,0,0,1,9.975,11.37C9.975,12.483,9.081,13.2,7.7,13.2ZM6.26,10.3v1.933h.958c.981,0,1.438-.3,1.438-.943s-.426-.99-1.17-.99Zm0-2.634V9.408h.852c.83,0,1.251-.3,1.251-.886,0-.534-.358-.852-.958-.852ZM14.25,7.7h-3V7.2h3v.5Z" transform="translate(2 2)"/>
    </clipPath>
  </defs>
  <g id="Group_212" data-name="Group 212">
    <path id="Color-2" data-name="Color" d="M10,20A10,10,0,1,1,20,10,10.011,10.011,0,0,1,10,20ZM10,2a8,8,0,1,0,8,8A8.009,8.009,0,0,0,10,2Zm2.808,11.3a2.132,2.132,0,0,1-2.333-2.307v-.441A2.123,2.123,0,0,1,12.755,8.3a2.112,2.112,0,0,1,2.27,2.283v.473h-3.3v.132a1.075,1.075,0,0,0,1.091,1.2.922.922,0,0,0,.976-.628h1.184A1.948,1.948,0,0,1,12.808,13.3Zm-.043-4.108a1.033,1.033,0,0,0-1.038,1.1v.01h2.061v-.01A1.016,1.016,0,0,0,12.765,9.188ZM7.7,13.2H4.975V6.7H7.7C8.9,6.7,9.64,7.317,9.64,8.3A1.381,1.381,0,0,1,8.518,9.728v.056A1.525,1.525,0,0,1,9.975,11.37C9.975,12.483,9.081,13.2,7.7,13.2ZM6.26,10.3v1.933h.958c.981,0,1.438-.3,1.438-.943s-.426-.99-1.17-.99Zm0-2.634V9.408h.852c.83,0,1.251-.3,1.251-.886,0-.534-.358-.852-.958-.852ZM14.25,7.7h-3V7.2h3v.5Z" transform="translate(2 2)"/>
  </g>
</svg>
