<svg id="Icons_Phone_Phone" data-name="Icons / Phone / Phone" xmlns="http://www.w3.org/2000/svg" xmlns:xlink="http://www.w3.org/1999/xlink" width="24" height="24" viewBox="0 0 24 24">
  <defs>
    <clipPath id="clip-path">
      <path id="Color" d="M15.4,20A15.417,15.417,0,0,1,0,4.6,4.605,4.605,0,0,1,4.6,0a4.483,4.483,0,0,1,.766.065,4.353,4.353,0,0,1,.725.184A1,1,0,0,1,6.738.97L8.107,6.934a1,1,0,0,1-.253.916c-.135.141-.137.144-1.38.794a9.927,9.927,0,0,0,4.88,4.883c.65-1.241.653-1.244.8-1.381a1,1,0,0,1,.7-.278,1.02,1.02,0,0,1,.22.024l5.965,1.37a.991.991,0,0,1,.72.645,4.375,4.375,0,0,1,.184.732A4.511,4.511,0,0,1,20,15.4,4.605,4.605,0,0,1,15.4,20ZM4.6,2A2.6,2.6,0,0,0,2,4.6,13.415,13.415,0,0,0,15.4,18,2.6,2.6,0,0,0,18,15.4a2.653,2.653,0,0,0-.021-.328l-4.621-1.06-.073.14c-.07.134-.143.273-.211.4-.368.7-.659,1.257-1.2,1.257a1.135,1.135,0,0,1-.424-.093,11.848,11.848,0,0,1-7.18-7.206c-.358-.786.323-1.141,1.185-1.591l.536-.281L4.928,2.021A2.547,2.547,0,0,0,4.6,2Z" transform="translate(2 2)"/>
    </clipPath>
  </defs>
  <g id="Group_152" data-name="Group 152">
    <path id="Color-2" data-name="Color" d="M15.4,20A15.417,15.417,0,0,1,0,4.6,4.605,4.605,0,0,1,4.6,0a4.483,4.483,0,0,1,.766.065,4.353,4.353,0,0,1,.725.184A1,1,0,0,1,6.738.97L8.107,6.934a1,1,0,0,1-.253.916c-.135.141-.137.144-1.38.794a9.927,9.927,0,0,0,4.88,4.883c.65-1.241.653-1.244.8-1.381a1,1,0,0,1,.7-.278,1.02,1.02,0,0,1,.22.024l5.965,1.37a.991.991,0,0,1,.72.645,4.375,4.375,0,0,1,.184.732A4.511,4.511,0,0,1,20,15.4,4.605,4.605,0,0,1,15.4,20ZM4.6,2A2.6,2.6,0,0,0,2,4.6,13.415,13.415,0,0,0,15.4,18,2.6,2.6,0,0,0,18,15.4a2.653,2.653,0,0,0-.021-.328l-4.621-1.06-.073.14c-.07.134-.143.273-.211.4-.368.7-.659,1.257-1.2,1.257a1.135,1.135,0,0,1-.424-.093,11.848,11.848,0,0,1-7.18-7.206c-.358-.786.323-1.141,1.185-1.591l.536-.281L4.928,2.021A2.547,2.547,0,0,0,4.6,2Z" transform="translate(2 2)"/>
  </g>
</svg>
