<svg id="Icons_Grid" data-name="Icons / Grid" xmlns="http://www.w3.org/2000/svg" xmlns:xlink="http://www.w3.org/1999/xlink" width="24" height="24" viewBox="0 0 24 24">
  <defs>
    <clipPath id="clip-path">
      <path id="Color" d="M16,18H12a2,2,0,0,1-2-2V12a2,2,0,0,1,2-2h4a2,2,0,0,1,2,2v4A2,2,0,0,1,16,18Zm-4-6v4h4V12ZM6,18H2a2,2,0,0,1-2-2V12a2,2,0,0,1,2-2H6a2,2,0,0,1,2,2v4A2,2,0,0,1,6,18ZM2,12v4H6V12ZM16,8H12a2,2,0,0,1-2-2V2a2,2,0,0,1,2-2h4a2,2,0,0,1,2,2V6A2,2,0,0,1,16,8ZM12,2V6h4V2ZM6,8H2A2,2,0,0,1,0,6V2A2,2,0,0,1,2,0H6A2,2,0,0,1,8,2V6A2,2,0,0,1,6,8ZM2,2V6H6V2Z" transform="translate(3 3)"/>
    </clipPath>
  </defs>
  <g id="Group_166" data-name="Group 166">
    <path id="Color-2" data-name="Color" d="M16,18H12a2,2,0,0,1-2-2V12a2,2,0,0,1,2-2h4a2,2,0,0,1,2,2v4A2,2,0,0,1,16,18Zm-4-6v4h4V12ZM6,18H2a2,2,0,0,1-2-2V12a2,2,0,0,1,2-2H6a2,2,0,0,1,2,2v4A2,2,0,0,1,6,18ZM2,12v4H6V12ZM16,8H12a2,2,0,0,1-2-2V2a2,2,0,0,1,2-2h4a2,2,0,0,1,2,2V6A2,2,0,0,1,16,8ZM12,2V6h4V2ZM6,8H2A2,2,0,0,1,0,6V2A2,2,0,0,1,2,0H6A2,2,0,0,1,8,2V6A2,2,0,0,1,6,8ZM2,2V6H6V2Z" transform="translate(3 3)"/>
  </g>
</svg>
