<svg id="Icons_Eye_Off" data-name="Icons / Eye / Off" xmlns="http://www.w3.org/2000/svg" width="24" height="24" viewBox="0 0 24 24">
  <path id="Color" d="M18,18a.994.994,0,0,1-.707-.293l-5.63-5.63A3.448,3.448,0,0,1,10,12.5,3.5,3.5,0,0,1,6.5,9a3.429,3.429,0,0,1,.424-1.661L1.292,1.706A1,1,0,0,1,2.706.293l16,16A1,1,0,0,1,18,18ZM8.512,8.925a.209.209,0,0,1-.006.035A.165.165,0,0,0,8.5,9,1.5,1.5,0,0,0,10,10.5a.185.185,0,0,0,.039-.005.2.2,0,0,1,.036-.005ZM10.025,16C4.153,16,.755,10.583.133,9.5a1,1,0,0,1,0-1,15.639,15.639,0,0,1,2.912-3.63L4.456,6.285A13.43,13.43,0,0,0,2.173,9c.988,1.5,3.733,5,7.875,5l.172,0a7.267,7.267,0,0,0,1.7-.251l1.58,1.58a9.383,9.383,0,0,1-3.227.67Zm6.93-2.873h0l-1.411-1.411A13.326,13.326,0,0,0,17.826,9C16.839,7.5,14.1,4,9.967,4L9.781,4a7.27,7.27,0,0,0-1.7.251L6.5,2.674A9.275,9.275,0,0,1,9.73,2c.1,0,.2,0,.294,0,5.816,0,9.221,5.417,9.844,6.5a1,1,0,0,1,0,1,15.734,15.734,0,0,1-2.912,3.628Z" transform="translate(2 3)"/>
</svg>
