<svg id="Icons_Arrow_IOS_Up" data-name="Icons / Arrow / IOS / Up" xmlns="http://www.w3.org/2000/svg" xmlns:xlink="http://www.w3.org/1999/xlink" width="24" height="24" viewBox="0 0 24 24">
  <defs>
    <clipPath id="clip-path">
      <path id="Color" d="M13,7a1,1,0,0,1-.64-.232L6.989,2.292,1.627,6.607A1,1,0,1,1,.374,5.049l6-4.828A1,1,0,0,1,7.641.232l6,5A1,1,0,0,1,13,7" transform="translate(5 8)"/>
    </clipPath>
  </defs>
  <g id="Group_195" data-name="Group 195">
    <path id="Color-2" data-name="Color" d="M13,7a1,1,0,0,1-.64-.232L6.989,2.292,1.627,6.607A1,1,0,1,1,.374,5.049l6-4.828A1,1,0,0,1,7.641.232l6,5A1,1,0,0,1,13,7" transform="translate(5 8)"/>
  </g>
</svg>
