<svg id="Icons_Fire" data-name="Icons / Fire" xmlns="http://www.w3.org/2000/svg" xmlns:xlink="http://www.w3.org/1999/xlink" width="24" height="24" viewBox="0 0 24 24">
  <defs>
    <clipPath id="clip-path">
      <path id="Color" d="M7.494,17.994H7.487a7.362,7.362,0,0,1-5.3-2.242A7.726,7.726,0,0,1,2.179,4.984l.983-.995A1,1,0,0,1,3.875,3.7a1.024,1.024,0,0,1,.259.033,1,1,0,0,1,.707.716A3.6,3.6,0,0,0,5.5,5.936c.385-.405,1-1.969,1-4.442,0-.147,0-.286-.008-.425A1,1,0,0,1,6.793.281,1.019,1.019,0,0,1,7.5,0a.978.978,0,0,1,.709.3L12.8,4.985a7.715,7.715,0,0,1,.01,10.768A7.394,7.394,0,0,1,7.494,17.994ZM3.488,6.509a5.753,5.753,0,0,0,.129,7.844,5.387,5.387,0,0,0,3.872,1.641h.005a5.41,5.41,0,0,0,3.884-1.641,5.711,5.711,0,0,0-.009-7.969L8.384,3.334c-.355,2.918-1.437,4.66-2.892,4.66a2.3,2.3,0,0,1-2-1.485Z" transform="translate(4.007 3.008)"/>
    </clipPath>
  </defs>
  <g id="Group_209" data-name="Group 209">
    <path id="Color-2" data-name="Color" d="M7.494,17.994H7.487a7.362,7.362,0,0,1-5.3-2.242A7.726,7.726,0,0,1,2.179,4.984l.983-.995A1,1,0,0,1,3.875,3.7a1.024,1.024,0,0,1,.259.033,1,1,0,0,1,.707.716A3.6,3.6,0,0,0,5.5,5.936c.385-.405,1-1.969,1-4.442,0-.147,0-.286-.008-.425A1,1,0,0,1,6.793.281,1.019,1.019,0,0,1,7.5,0a.978.978,0,0,1,.709.3L12.8,4.985a7.715,7.715,0,0,1,.01,10.768A7.394,7.394,0,0,1,7.494,17.994ZM3.488,6.509a5.753,5.753,0,0,0,.129,7.844,5.387,5.387,0,0,0,3.872,1.641h.005a5.41,5.41,0,0,0,3.884-1.641,5.711,5.711,0,0,0-.009-7.969L8.384,3.334c-.355,2.918-1.437,4.66-2.892,4.66a2.3,2.3,0,0,1-2-1.485Z" transform="translate(4.007 3.008)"/>
  </g>
</svg>
