<svg id="Icons_Code_Download" data-name="Icons / Code Download" xmlns="http://www.w3.org/2000/svg" xmlns:xlink="http://www.w3.org/1999/xlink" width="24" height="24" viewBox="0 0 24 24">
  <defs>
    <clipPath id="clip-path">
      <path id="Color" d="M13.36,13.77a1,1,0,0,1-.128-1.41l4.477-5.37L13.393,1.628A1,1,0,0,1,14.952.374l4.828,6a1,1,0,0,1-.011,1.268l-5,6a1,1,0,0,1-1.409.129Zm-8.311-.142-4.828-6A1,1,0,0,1,.231,6.36l5-6A1,1,0,0,1,6.769,1.642L2.292,7.011l4.315,5.362a1,1,0,0,1-1.558,1.255Zm4.244-2.92-3-3A1,1,0,1,1,7.707,6.294L9,7.586V3a1,1,0,0,1,2,0V7.645l1.306-1.26A1,1,0,0,1,13.7,7.824l-3,2.9a1,1,0,0,1-1.4-.013Z" transform="translate(2 4.999)" fill="#f38d8d"/>
    </clipPath>
  </defs>
  <g id="Group_171" data-name="Group 171">
    <path id="Color-2" data-name="Color" d="M13.36,13.77a1,1,0,0,1-.128-1.41l4.477-5.37L13.393,1.628A1,1,0,0,1,14.952.374l4.828,6a1,1,0,0,1-.011,1.268l-5,6a1,1,0,0,1-1.409.129Zm-8.311-.142-4.828-6A1,1,0,0,1,.231,6.36l5-6A1,1,0,0,1,6.769,1.642L2.292,7.011l4.315,5.362a1,1,0,0,1-1.558,1.255Zm4.244-2.92-3-3A1,1,0,1,1,7.707,6.294L9,7.586V3a1,1,0,0,1,2,0V7.645l1.306-1.26A1,1,0,0,1,13.7,7.824l-3,2.9a1,1,0,0,1-1.4-.013Z" transform="translate(2 4.999)" fill="#f38d8d"/>
  </g>
</svg>
