<svg id="Icons_Scissors" data-name="Icons / Scissors" xmlns="http://www.w3.org/2000/svg" width="24" height="24" viewBox="0 0 24 24">
  <path id="Color" d="M3,18a3,3,0,1,1,1.311-5.686L7.6,9.014,4.293,5.707c0-.006,0-.008-.006-.009A2.956,2.956,0,0,1,3,6,3,3,0,1,1,6,3a2.949,2.949,0,0,1-.3,1.287.017.017,0,0,0,.006,0L9.012,7.6l6.28-6.3a1,1,0,1,1,1.416,1.412L5.714,13.74A2.968,2.968,0,0,1,6,15,3,3,0,0,1,3,18Zm0-4a1,1,0,1,0,1,1A1,1,0,0,0,3,14ZM3,2A1,1,0,1,0,4,3,1,1,0,0,0,3,2ZM16,17a.994.994,0,0,1-.707-.293l-5-5a1,1,0,1,1,1.414-1.414l5,5A1,1,0,0,1,16,17Z" transform="translate(4 3)"/>
</svg>
