<svg id="Icons_Cloud_Upload" data-name="Icons / Cloud / Upload" xmlns="http://www.w3.org/2000/svg" xmlns:xlink="http://www.w3.org/1999/xlink" width="24" height="24" viewBox="0 0 24 24">
  <defs>
    <clipPath id="clip-path">
      <path id="Color" d="M9,17V11.356l-1.3,1.26a1,1,0,0,1-1.39-1.439l3-2.9a1,1,0,0,1,1.4.014l3,3a1,1,0,1,1-1.414,1.414L11,11.414V17a1,1,0,0,1-2,0ZM1.251,12.309A5,5,0,0,1,4.325,4.045a6,6,0,0,1,11.35,0,5,5,0,0,1,3.074,8.265,1,1,0,1,1-1.5-1.326A3,3,0,0,0,15,6h-.1a1,1,0,0,1-.98-.8,4,4,0,0,0-7.839,0A1,1,0,0,1,5.1,6H5a3,3,0,0,0-2.25,4.983,1,1,0,1,1-1.5,1.326Z" transform="translate(2 3)"/>
    </clipPath>
  </defs>
  <g id="Group_148" data-name="Group 148">
    <path id="Color-2" data-name="Color" d="M9,17V11.356l-1.3,1.26a1,1,0,0,1-1.39-1.439l3-2.9a1,1,0,0,1,1.4.014l3,3a1,1,0,1,1-1.414,1.414L11,11.414V17a1,1,0,0,1-2,0ZM1.251,12.309A5,5,0,0,1,4.325,4.045a6,6,0,0,1,11.35,0,5,5,0,0,1,3.074,8.265,1,1,0,1,1-1.5-1.326A3,3,0,0,0,15,6h-.1a1,1,0,0,1-.98-.8,4,4,0,0,0-7.839,0A1,1,0,0,1,5.1,6H5a3,3,0,0,0-2.25,4.983,1,1,0,1,1-1.5,1.326Z" transform="translate(2 3)"/>
  </g>
</svg>
