<svg id="Icons_Timer" data-name="Icons / Timer" xmlns="http://www.w3.org/2000/svg" xmlns:xlink="http://www.w3.org/1999/xlink" width="24" height="24" viewBox="0 0 24 24">
  <defs>
    <clipPath id="clip-path">
      <path id="Color" d="M9,21A9,9,0,0,1,8.012,3.058a.132.132,0,0,0-.006-.027A.107.107,0,0,1,8,3V2H7A1,1,0,0,1,7,0h4a1,1,0,0,1,0,2H10V3a.106.106,0,0,1-.006.032.132.132,0,0,0-.006.027A9,9,0,0,1,9,21ZM9,5.25A6.75,6.75,0,1,0,15.75,12,6.758,6.758,0,0,0,9,5.25ZM12,13H9a1,1,0,0,1-1-1V9a1,1,0,0,1,2,0v2h2a1,1,0,1,1,0,2Z" transform="translate(3 1)"/>
    </clipPath>
  </defs>
  <g id="Group_208" data-name="Group 208">
    <path id="Color-2" data-name="Color" d="M9,21A9,9,0,0,1,8.012,3.058a.132.132,0,0,0-.006-.027A.107.107,0,0,1,8,3V2H7A1,1,0,0,1,7,0h4a1,1,0,0,1,0,2H10V3a.106.106,0,0,1-.006.032.132.132,0,0,0-.006.027A9,9,0,0,1,9,21ZM9,5.25A6.75,6.75,0,1,0,15.75,12,6.758,6.758,0,0,0,9,5.25ZM12,13H9a1,1,0,0,1-1-1V9a1,1,0,0,1,2,0v2h2a1,1,0,1,1,0,2Z" transform="translate(3 1)"/>
  </g>
</svg>
