<svg id="Icons_Close_Square" data-name="Icons / Close / Square" xmlns="http://www.w3.org/2000/svg" xmlns:xlink="http://www.w3.org/1999/xlink" width="24" height="24" viewBox="0 0 24 24">
  <defs>
    <clipPath id="clip-path">
      <path id="Color" d="M15,18H3a3,3,0,0,1-3-3V3A3,3,0,0,1,3,0H15a3,3,0,0,1,3,3V15A3,3,0,0,1,15,18ZM3,2A1,1,0,0,0,2,3V15a1,1,0,0,0,1,1H15a1,1,0,0,0,1-1V3a1,1,0,0,0-1-1Zm8,10a.993.993,0,0,1-.707-.292L9,10.414,7.707,11.707a1,1,0,1,1-1.414-1.414L7.586,9,6.293,7.707A1,1,0,1,1,7.707,6.293L9,7.586l1.293-1.293a1,1,0,0,1,1.414,1.414L10.414,9l1.293,1.293A1,1,0,0,1,11,12Z" transform="translate(3 3)"/>
    </clipPath>
  </defs>
  <g id="Group_222" data-name="Group 222">
    <path id="Color-2" data-name="Color" d="M15,18H3a3,3,0,0,1-3-3V3A3,3,0,0,1,3,0H15a3,3,0,0,1,3,3V15A3,3,0,0,1,15,18ZM3,2A1,1,0,0,0,2,3V15a1,1,0,0,0,1,1H15a1,1,0,0,0,1-1V3a1,1,0,0,0-1-1Zm8,10a.993.993,0,0,1-.707-.292L9,10.414,7.707,11.707a1,1,0,1,1-1.414-1.414L7.586,9,6.293,7.707A1,1,0,1,1,7.707,6.293L9,7.586l1.293-1.293a1,1,0,0,1,1.414,1.414L10.414,9l1.293,1.293A1,1,0,0,1,11,12Z" transform="translate(3 3)"/>
  </g>
</svg>
