<svg id="Icons_Book_Close" data-name="Icons / Book / Close" xmlns="http://www.w3.org/2000/svg" xmlns:xlink="http://www.w3.org/1999/xlink" width="24" height="24" viewBox="0 0 24 24">
  <defs>
    <clipPath id="clip-path">
      <path id="Color" d="M15,18H3a3,3,0,0,1-3-3V3A3,3,0,0,1,3,0H15a1,1,0,0,1,1,1V17A1,1,0,0,1,15,18ZM3,14a1,1,0,0,0,0,2H14V14ZM3,2A1,1,0,0,0,2,3v9.185A2.932,2.932,0,0,1,3,12H14V2Z" transform="translate(4 3)"/>
    </clipPath>
  </defs>
  <g id="Group_196" data-name="Group 196">
    <path id="Color-2" data-name="Color" d="M15,18H3a3,3,0,0,1-3-3V3A3,3,0,0,1,3,0H15a1,1,0,0,1,1,1V17A1,1,0,0,1,15,18ZM3,14a1,1,0,0,0,0,2H14V14ZM3,2A1,1,0,0,0,2,3v9.185A2.932,2.932,0,0,1,3,12H14V2Z" transform="translate(4 3)"/>
  </g>
</svg>
