<svg id="Icons_Bar_Chart_2" data-name="Icons / Bar / Chart 2" xmlns="http://www.w3.org/2000/svg" xmlns:xlink="http://www.w3.org/1999/xlink" width="24" height="24" viewBox="0 0 24 24">
  <defs>
    <clipPath id="clip-path">
      <path id="Color" d="M14,16V1a1,1,0,1,1,2,0V16a1,1,0,1,1-2,0ZM7,16V5A1,1,0,1,1,9,5V16a1,1,0,1,1-2,0ZM0,16V9A1,1,0,0,1,2,9v7a1,1,0,1,1-2,0Z" transform="translate(4 4)"/>
    </clipPath>
  </defs>
  <g id="Group_214" data-name="Group 214">
    <path id="Color-2" data-name="Color" d="M14,16V1a1,1,0,1,1,2,0V16a1,1,0,1,1-2,0ZM7,16V5A1,1,0,1,1,9,5V16a1,1,0,1,1-2,0ZM0,16V9A1,1,0,0,1,2,9v7a1,1,0,1,1-2,0Z" transform="translate(4 4)"/>
  </g>
</svg>
