<svg id="Icons_Phone_Missed" data-name="Icons / Phone / Missed" xmlns="http://www.w3.org/2000/svg" width="24" height="24" viewBox="0 0 24 24">
  <path id="Color" d="M15.4,20A15.418,15.418,0,0,1,0,4.6,4.6,4.6,0,0,1,4.6,0a4.493,4.493,0,0,1,.765.065,4.211,4.211,0,0,1,.727.185.994.994,0,0,1,.647.72L8.108,6.933a1,1,0,0,1-.253.916c-.137.144-.137.144-1.381.795a9.888,9.888,0,0,0,4.881,4.883c.65-1.242.653-1.245.8-1.382a1,1,0,0,1,.695-.277,1.026,1.026,0,0,1,.221.024l5.964,1.369a1.008,1.008,0,0,1,.72.647,4.247,4.247,0,0,1,.184.73A4.554,4.554,0,0,1,20,15.4,4.6,4.6,0,0,1,15.4,20ZM4.6,2A2.6,2.6,0,0,0,2,4.6,13.416,13.416,0,0,0,15.4,18,2.6,2.6,0,0,0,18,15.4a2.631,2.631,0,0,0-.021-.328l-4.621-1.061-.064.123-.221.421-.009.017c-.362.693-.649,1.24-1.192,1.24a1.147,1.147,0,0,1-.426-.093A11.847,11.847,0,0,1,4.266,8.513c-.323-.8.307-1.132,1.178-1.587l.419-.22.125-.065-1.06-4.62A2.383,2.383,0,0,0,4.6,2ZM17.465,7a1.03,1.03,0,0,1-.733-.3L16,5.964l-.733.734A1.036,1.036,0,0,1,13.8,5.232l.733-.732L13.8,3.767a1.04,1.04,0,0,1,0-1.466,1.04,1.04,0,0,1,1.465,0L16,3.035l.733-.734A1.036,1.036,0,1,1,18.2,3.767l-.733.733.733.732A1.035,1.035,0,0,1,17.465,7Z" transform="translate(2 2)"/>
</svg>
