<svg id="Icons_Paper_Plane" data-name="Icons / Paper Plane" xmlns="http://www.w3.org/2000/svg" xmlns:xlink="http://www.w3.org/1999/xlink" width="24" height="24" viewBox="0 0 24 24">
  <defs>
    <clipPath id="clip-path">
      <path id="Color" d="M13,20a1,1,0,0,1-.948-.683L9.209,10.788.684,7.946a1,1,0,0,1,0-1.9l18-6a1.038,1.038,0,0,1,.3-.048.256.256,0,0,1,.037,0l.028,0a.948.948,0,0,1,.275.054A.643.643,0,0,1,19.412.1a.964.964,0,0,1,.3.194A.971.971,0,0,1,19.9.584a.71.71,0,0,1,.035.091.927.927,0,0,1,.053.27.291.291,0,0,0,0,.03.224.224,0,0,1,0,.04.988.988,0,0,1-.049.3l-6,18A1,1,0,0,1,13,20ZM16.711,4.7h0l-5.568,5.569L13,15.835,16.712,4.7ZM15.3,3.285,4.162,7,9.73,8.853Z" transform="translate(2 2.003)"/>
    </clipPath>
  </defs>
  <g id="Group_144" data-name="Group 144">
    <path id="Color-2" data-name="Color" d="M13,20a1,1,0,0,1-.948-.683L9.209,10.788.684,7.946a1,1,0,0,1,0-1.9l18-6a1.038,1.038,0,0,1,.3-.048.256.256,0,0,1,.037,0l.028,0a.948.948,0,0,1,.275.054A.643.643,0,0,1,19.412.1a.964.964,0,0,1,.3.194A.971.971,0,0,1,19.9.584a.71.71,0,0,1,.035.091.927.927,0,0,1,.053.27.291.291,0,0,0,0,.03.224.224,0,0,1,0,.04.988.988,0,0,1-.049.3l-6,18A1,1,0,0,1,13,20ZM16.711,4.7h0l-5.568,5.569L13,15.835,16.712,4.7ZM15.3,3.285,4.162,7,9.73,8.853Z" transform="translate(2 2.003)"/>
  </g>
</svg>
