<svg id="Icons_Gift" data-name="Icons / Gift" xmlns="http://www.w3.org/2000/svg" xmlns:xlink="http://www.w3.org/1999/xlink" width="24" height="24" viewBox="0 0 24 24">
  <defs>
    <clipPath id="clip-path">
      <path id="Color" d="M14.687,18H3.312A1.746,1.746,0,0,1,1.5,16.333v-4.37A2.1,2.1,0,0,1,0,9.8V6.2A2.009,2.009,0,0,1,1.8,4h.393A2.827,2.827,0,0,1,2,3,3.077,3.077,0,0,1,5.143,0,4.4,4.4,0,0,1,9,2.4,4.4,4.4,0,0,1,12.857,0,3.077,3.077,0,0,1,16,3a2.8,2.8,0,0,1-.194,1H16.2A2.009,2.009,0,0,1,18,6.2V9.8a2.1,2.1,0,0,1-1.5,2.164v4.37A1.746,1.746,0,0,1,14.687,18ZM10,12v4h4.5V12ZM3.5,12v4H8V12ZM10,6v4h5.974A.784.784,0,0,0,16,9.8V6.2a.794.794,0,0,0-.026-.2H10ZM2.026,6A.794.794,0,0,0,2,6.2V9.8a.794.794,0,0,0,.026.2H8V6H2.026ZM12.857,2A2.923,2.923,0,0,0,10.4,4h2.457A1.08,1.08,0,0,0,14,3,1.08,1.08,0,0,0,12.857,2ZM5.143,2A1.08,1.08,0,0,0,4,3,1.08,1.08,0,0,0,5.143,4H7.594A2.937,2.937,0,0,0,5.143,2Z" transform="translate(3 3)"/>
    </clipPath>
  </defs>
  <g id="Group_140" data-name="Group 140">
    <path id="Color-2" data-name="Color" d="M14.687,18H3.312A1.746,1.746,0,0,1,1.5,16.333v-4.37A2.1,2.1,0,0,1,0,9.8V6.2A2.009,2.009,0,0,1,1.8,4h.393A2.827,2.827,0,0,1,2,3,3.077,3.077,0,0,1,5.143,0,4.4,4.4,0,0,1,9,2.4,4.4,4.4,0,0,1,12.857,0,3.077,3.077,0,0,1,16,3a2.8,2.8,0,0,1-.194,1H16.2A2.009,2.009,0,0,1,18,6.2V9.8a2.1,2.1,0,0,1-1.5,2.164v4.37A1.746,1.746,0,0,1,14.687,18ZM10,12v4h4.5V12ZM3.5,12v4H8V12ZM10,6v4h5.974A.784.784,0,0,0,16,9.8V6.2a.794.794,0,0,0-.026-.2H10ZM2.026,6A.794.794,0,0,0,2,6.2V9.8a.794.794,0,0,0,.026.2H8V6H2.026ZM12.857,2A2.923,2.923,0,0,0,10.4,4h2.457A1.08,1.08,0,0,0,14,3,1.08,1.08,0,0,0,12.857,2ZM5.143,2A1.08,1.08,0,0,0,4,3,1.08,1.08,0,0,0,5.143,4H7.594A2.937,2.937,0,0,0,5.143,2Z" transform="translate(3 3)"/>
  </g>
</svg>
