<svg id="Icons_Corner_Left_Down" data-name="Icons / Corner / Left Down" xmlns="http://www.w3.org/2000/svg" xmlns:xlink="http://www.w3.org/1999/xlink" width="24" height="24" viewBox="0 0 24 24">
  <defs>
    <clipPath id="clip-path">
      <path id="Color" d="M13,0H8A3,3,0,0,0,5,3v8.919l-3.375-2.7a1,1,0,0,0-1.25,1.562l5,4a1,1,0,0,0,1.25,0l5-4a1,1,0,0,0-1.25-1.562L7,11.919V3A1,1,0,0,1,8,2h5a1,1,0,0,0,0-2" transform="translate(5 5)"/>
    </clipPath>
  </defs>
  <g id="Group_216" data-name="Group 216">
    <path id="Color-2" data-name="Color" d="M13,0H8A3,3,0,0,0,5,3v8.919l-3.375-2.7a1,1,0,0,0-1.25,1.562l5,4a1,1,0,0,0,1.25,0l5-4a1,1,0,0,0-1.25-1.562L7,11.919V3A1,1,0,0,1,8,2h5a1,1,0,0,0,0-2" transform="translate(5 5)"/>
  </g>
</svg>
