<svg id="Icons_Arrow_Arrow_1_Up" data-name="Icons / Arrow / Arrow 1 / Up" xmlns="http://www.w3.org/2000/svg" xmlns:xlink="http://www.w3.org/1999/xlink" width="24" height="24" viewBox="0 0 24 24">
  <defs>
    <clipPath id="clip-path">
      <path id="Color" d="M10.214,8.97H1.788A1.76,1.76,0,0,1,.2,7.922a2.088,2.088,0,0,1,.257-2.21L4.675.613a1.74,1.74,0,0,1,2.651,0l4.213,5.1A2.086,2.086,0,0,1,11.8,7.922,1.76,1.76,0,0,1,10.214,8.97ZM6,2.149,2.015,6.971H9.91Z" transform="translate(5.999 7.029)"/>
    </clipPath>
  </defs>
  <g id="Group_189" data-name="Group 189">
    <path id="Color-2" data-name="Color" d="M10.214,8.97H1.788A1.76,1.76,0,0,1,.2,7.922a2.088,2.088,0,0,1,.257-2.21L4.675.613a1.74,1.74,0,0,1,2.651,0l4.213,5.1A2.086,2.086,0,0,1,11.8,7.922,1.76,1.76,0,0,1,10.214,8.97ZM6,2.149,2.015,6.971H9.91Z" transform="translate(5.999 7.029)"/>
  </g>
</svg>
