<svg id="Icons_Arrow_Arrow_1_Right" data-name="Icons / Arrow / Arrow 1 / Right" xmlns="http://www.w3.org/2000/svg" xmlns:xlink="http://www.w3.org/1999/xlink" width="24" height="24" viewBox="0 0 24 24">
  <defs>
    <clipPath id="clip-path">
      <path id="Color" d="M1.956,12a2.141,2.141,0,0,1-.905-.2A1.761,1.761,0,0,1,0,10.214V1.788A1.76,1.76,0,0,1,1.05.2,2.138,2.138,0,0,1,1.957,0a2.046,2.046,0,0,1,1.3.461l5.1,4.215a1.691,1.691,0,0,1,0,2.652l-5.1,4.212A2.043,2.043,0,0,1,1.956,12ZM2,2.016V9.91L6.821,6Z" transform="translate(8.5 5.998)"/>
    </clipPath>
  </defs>
  <g id="Group_179" data-name="Group 179">
    <path id="Color-2" data-name="Color" d="M1.956,12a2.141,2.141,0,0,1-.905-.2A1.761,1.761,0,0,1,0,10.214V1.788A1.76,1.76,0,0,1,1.05.2,2.138,2.138,0,0,1,1.957,0a2.046,2.046,0,0,1,1.3.461l5.1,4.215a1.691,1.691,0,0,1,0,2.652l-5.1,4.212A2.043,2.043,0,0,1,1.956,12ZM2,2.016V9.91L6.821,6Z" transform="translate(8.5 5.998)"/>
  </g>
</svg>
