<svg id="Icons_All_Done" data-name="Icons / All Done" xmlns="http://www.w3.org/2000/svg" xmlns:xlink="http://www.w3.org/1999/xlink" width="24" height="24" viewBox="0 0 24 24">
  <defs>
    <clipPath id="clip-path">
      <path id="Color" d="M10.169,12a1,1,0,0,1-.779-.373l-1.1-1.367L9.554,8.644l.6.749L17.213.384a1,1,0,1,1,1.574,1.232l-7.831,10a1,1,0,0,1-.78.384Zm-5,0a1,1,0,0,1-.78-.373L.221,6.449A1,1,0,0,1,1.779,5.2l3.379,4.2L12.213.384a1,1,0,0,1,1.574,1.232l-7.831,10a1,1,0,0,1-.78.384Zm.051-5.55A1,1,0,1,1,6.779,5.2l.2.249L5.713,7.061Z" transform="translate(3 6)"/>
    </clipPath>
  </defs>
  <g id="Group_180" data-name="Group 180">
    <path id="Color-2" data-name="Color" d="M10.169,12a1,1,0,0,1-.779-.373l-1.1-1.367L9.554,8.644l.6.749L17.213.384a1,1,0,1,1,1.574,1.232l-7.831,10a1,1,0,0,1-.78.384Zm-5,0a1,1,0,0,1-.78-.373L.221,6.449A1,1,0,0,1,1.779,5.2l3.379,4.2L12.213.384a1,1,0,0,1,1.574,1.232l-7.831,10a1,1,0,0,1-.78.384Zm.051-5.55A1,1,0,1,1,6.779,5.2l.2.249L5.713,7.061Z" transform="translate(3 6)"/>
  </g>
</svg>
