<svg id="Icons_Arrow_Arrow_1_Left" data-name="Icons / Arrow / Arrow 1 / Left" xmlns="http://www.w3.org/2000/svg" xmlns:xlink="http://www.w3.org/1999/xlink" width="24" height="24" viewBox="0 0 24 24">
  <defs>
    <clipPath id="clip-path">
      <path id="Color" d="M7.044,12a2.047,2.047,0,0,1-1.3-.461L.641,7.328a1.693,1.693,0,0,1,0-2.652L5.741.463A2.041,2.041,0,0,1,7.044,0,2.144,2.144,0,0,1,7.95.2,1.764,1.764,0,0,1,9,1.788v8.427A1.764,1.764,0,0,1,7.95,11.8,2.111,2.111,0,0,1,7.044,12ZM7,2.093,2.178,6,7,9.986Z" transform="translate(6.5 5.998)"/>
    </clipPath>
  </defs>
  <g id="Group_169" data-name="Group 169">
    <path id="Color-2" data-name="Color" d="M7.044,12a2.047,2.047,0,0,1-1.3-.461L.641,7.328a1.693,1.693,0,0,1,0-2.652L5.741.463A2.041,2.041,0,0,1,7.044,0,2.144,2.144,0,0,1,7.95.2,1.764,1.764,0,0,1,9,1.788v8.427A1.764,1.764,0,0,1,7.95,11.8,2.111,2.111,0,0,1,7.044,12ZM7,2.093,2.178,6,7,9.986Z" transform="translate(6.5 5.998)"/>
  </g>
</svg>
