<svg id="Icons_Pause_Circle" data-name="Icons / Pause Circle" xmlns="http://www.w3.org/2000/svg" xmlns:xlink="http://www.w3.org/1999/xlink" width="24" height="24" viewBox="0 0 24 24">
  <defs>
    <clipPath id="clip-path">
      <path id="Color" d="M10,20A10,10,0,1,1,20,10,10.011,10.011,0,0,1,10,20ZM10,2a8,8,0,1,0,8,8A8.009,8.009,0,0,0,10,2Zm3,12a1,1,0,0,1-1-1V7a1,1,0,0,1,2,0v6A1,1,0,0,1,13,14ZM7,14a1,1,0,0,1-1-1V7A1,1,0,0,1,8,7v6A1,1,0,0,1,7,14Z" transform="translate(2 2)"/>
    </clipPath>
  </defs>
  <g id="Group_33" data-name="Group 33">
    <path id="Color-2" data-name="Color" d="M10,20A10,10,0,1,1,20,10,10.011,10.011,0,0,1,10,20ZM10,2a8,8,0,1,0,8,8A8.009,8.009,0,0,0,10,2Zm3,12a1,1,0,0,1-1-1V7a1,1,0,0,1,2,0v6A1,1,0,0,1,13,14ZM7,14a1,1,0,0,1-1-1V7A1,1,0,0,1,8,7v6A1,1,0,0,1,7,14Z" transform="translate(2 2)"/>
  </g>
</svg>
