<svg id="Icons_Browser" data-name="Icons / Browser" xmlns="http://www.w3.org/2000/svg" xmlns:xlink="http://www.w3.org/1999/xlink" width="24" height="24" viewBox="0 0 24 24">
  <defs>
    <clipPath id="clip-path">
      <path id="Color" d="M15,18H3a3,3,0,0,1-3-3V3A3,3,0,0,1,3,0H15a3,3,0,0,1,3,3V15A3,3,0,0,1,15,18ZM2,8v7a1,1,0,0,0,1,1H15a1,1,0,0,0,1-1V8ZM3,2A1,1,0,0,0,2,3V6H16V3a1,1,0,0,0-1-1ZM9,5a1,1,0,1,1,1-1A1,1,0,0,1,9,5ZM5,5A1,1,0,1,1,6,4,1,1,0,0,1,5,5Z" transform="translate(3 3)"/>
    </clipPath>
  </defs>
  <g id="Group_78" data-name="Group 78">
    <path id="Color-2" data-name="Color" d="M15,18H3a3,3,0,0,1-3-3V3A3,3,0,0,1,3,0H15a3,3,0,0,1,3,3V15A3,3,0,0,1,15,18ZM2,8v7a1,1,0,0,0,1,1H15a1,1,0,0,0,1-1V8ZM3,2A1,1,0,0,0,2,3V6H16V3a1,1,0,0,0-1-1ZM9,5a1,1,0,1,1,1-1A1,1,0,0,1,9,5ZM5,5A1,1,0,1,1,6,4,1,1,0,0,1,5,5Z" transform="translate(3 3)"/>
  </g>
</svg>
