<svg id="Icons_Arrow_Circle_Down" data-name="Icons / Arrow / Circle / Down" xmlns="http://www.w3.org/2000/svg" xmlns:xlink="http://www.w3.org/1999/xlink" width="24" height="24" viewBox="0 0 24 24">
  <defs>
    <clipPath id="clip-path">
      <path id="Color" d="M10,20A10,10,0,1,1,20,10,10.011,10.011,0,0,1,10,20ZM10,2a8,8,0,1,0,8,8A8.009,8.009,0,0,0,10,2Zm0,13a.985.985,0,0,1-.382-.077,1,1,0,0,1-.325-.217l-3-3A1,1,0,0,1,7,10a.99.99,0,0,1,.707.294L9,11.586V6a1,1,0,1,1,2,0v5.664l1.309-1.25a1,1,0,0,1,1.382,1.447l-3,2.863a.425.425,0,0,1-.1.064c-.019.01-.038.02-.056.032l-.043.031a.559.559,0,0,1-.119.073A.99.99,0,0,1,10,15Z" transform="translate(2 2)"/>
    </clipPath>
  </defs>
  <g id="Group_80" data-name="Group 80">
    <path id="Color-2" data-name="Color" d="M10,20A10,10,0,1,1,20,10,10.011,10.011,0,0,1,10,20ZM10,2a8,8,0,1,0,8,8A8.009,8.009,0,0,0,10,2Zm0,13a.985.985,0,0,1-.382-.077,1,1,0,0,1-.325-.217l-3-3A1,1,0,0,1,7,10a.99.99,0,0,1,.707.294L9,11.586V6a1,1,0,1,1,2,0v5.664l1.309-1.25a1,1,0,0,1,1.382,1.447l-3,2.863a.425.425,0,0,1-.1.064c-.019.01-.038.02-.056.032l-.043.031a.559.559,0,0,1-.119.073A.99.99,0,0,1,10,15Z" transform="translate(2 2)"/>
  </g>
</svg>
