<svg id="Icons_Skip_Back" data-name="Icons / Skip / Back" xmlns="http://www.w3.org/2000/svg" xmlns:xlink="http://www.w3.org/1999/xlink" width="24" height="24" viewBox="0 0 24 24">
  <defs>
    <clipPath id="clip-path">
      <path id="Color" d="M8.544,12a2.051,2.051,0,0,1-1.3-.461l-5.1-4.214a.95.95,0,0,1-.1-.1L2,7.182V11a1,1,0,0,1-2,0V1A1,1,0,0,1,2,1V4.819l.038-.042a1.027,1.027,0,0,1,.1-.1L7.241.463A2.044,2.044,0,0,1,8.544,0,2.145,2.145,0,0,1,9.45.2,1.761,1.761,0,0,1,10.5,1.788v8.426A1.758,1.758,0,0,1,9.45,11.8,2.131,2.131,0,0,1,8.544,12ZM8.5,2.092,3.678,6,8.5,9.986Z" transform="translate(7 5.999)"/>
    </clipPath>
  </defs>
  <g id="Group_98" data-name="Group 98">
    <path id="Color-2" data-name="Color" d="M8.544,12a2.051,2.051,0,0,1-1.3-.461l-5.1-4.214a.95.95,0,0,1-.1-.1L2,7.182V11a1,1,0,0,1-2,0V1A1,1,0,0,1,2,1V4.819l.038-.042a1.027,1.027,0,0,1,.1-.1L7.241.463A2.044,2.044,0,0,1,8.544,0,2.145,2.145,0,0,1,9.45.2,1.761,1.761,0,0,1,10.5,1.788v8.426A1.758,1.758,0,0,1,9.45,11.8,2.131,2.131,0,0,1,8.544,12ZM8.5,2.092,3.678,6,8.5,9.986Z" transform="translate(7 5.999)"/>
  </g>
</svg>
