<svg id="Icons_File_Text" data-name="Icons / File / Text" xmlns="http://www.w3.org/2000/svg" xmlns:xlink="http://www.w3.org/1999/xlink" width="24" height="24" viewBox="0 0 24 24">
  <defs>
    <clipPath id="clip-path">
      <path id="Color" d="M13.444,20H2.555A2.531,2.531,0,0,1,0,17.5V2.5A2.531,2.531,0,0,1,2.555,0h7A1,1,0,0,1,10.3.328l5.444,6A1,1,0,0,1,16,7V17.5A2.531,2.531,0,0,1,13.444,20ZM2.555,2A.531.531,0,0,0,2,2.5v15a.531.531,0,0,0,.555.5H13.444A.531.531,0,0,0,14,17.5V8H10.714A2.788,2.788,0,0,1,8,5.15V2ZM10,2.978V5.15A.792.792,0,0,0,10.714,6h2.029ZM11,16H5a1,1,0,0,1,0-2h6a1,1,0,1,1,0,2ZM8,12H5a1,1,0,1,1,0-2H8a1,1,0,0,1,0,2Z" transform="translate(4 2)"/>
    </clipPath>
  </defs>
  <g id="Group_83" data-name="Group 83">
    <path id="Color-2" data-name="Color" d="M13.444,20H2.555A2.531,2.531,0,0,1,0,17.5V2.5A2.531,2.531,0,0,1,2.555,0h7A1,1,0,0,1,10.3.328l5.444,6A1,1,0,0,1,16,7V17.5A2.531,2.531,0,0,1,13.444,20ZM2.555,2A.531.531,0,0,0,2,2.5v15a.531.531,0,0,0,.555.5H13.444A.531.531,0,0,0,14,17.5V8H10.714A2.788,2.788,0,0,1,8,5.15V2ZM10,2.978V5.15A.792.792,0,0,0,10.714,6h2.029ZM11,16H5a1,1,0,0,1,0-2h6a1,1,0,1,1,0,2ZM8,12H5a1,1,0,1,1,0-2H8a1,1,0,0,1,0,2Z" transform="translate(4 2)"/>
  </g>
</svg>
