<svg id="Icons_Power" data-name="Icons / Power" xmlns="http://www.w3.org/2000/svg" xmlns:xlink="http://www.w3.org/1999/xlink" width="24" height="24" viewBox="0 0 24 24">
  <defs>
    <clipPath id="clip-path">
      <path id="Color" d="M0,11A9.973,9.973,0,0,1,5.415,2.111a1,1,0,0,1,.918,1.777,8,8,0,1,0,7.335,0,1,1,0,0,1,.918-1.777A10,10,0,1,1,0,11Zm9,0V1a1,1,0,0,1,2,0V11a1,1,0,0,1-2,0Z" transform="translate(2 1)"/>
    </clipPath>
  </defs>
  <g id="Group_48" data-name="Group 48">
    <path id="Color-2" data-name="Color" d="M0,11A9.973,9.973,0,0,1,5.415,2.111a1,1,0,0,1,.918,1.777,8,8,0,1,0,7.335,0,1,1,0,0,1,.918-1.777A10,10,0,1,1,0,11Zm9,0V1a1,1,0,0,1,2,0V11a1,1,0,0,1-2,0Z" transform="translate(2 1)"/>
  </g>
</svg>
