<svg id="Icons_Batttery_Charging" data-name="Icons / Batttery / Charging" xmlns="http://www.w3.org/2000/svg" xmlns:xlink="http://www.w3.org/1999/xlink" width="24" height="24" viewBox="0 0 24 24">
  <defs>
    <clipPath id="clip-path">
      <path id="Color" d="M6.5,15.867A1,1,0,0,1,6.132,14.5L9.277,9H5a1,1,0,0,1-.868-1.5l4-7A1,1,0,1,1,9.868,1.5L6.723,7H11a1,1,0,0,1,.868,1.5l-4,7A1,1,0,0,1,7,16,.987.987,0,0,1,6.5,15.867ZM9.876,14l1.142-2h2.81A.51.51,0,0,0,14,11.57V4.428A.5.5,0,0,0,13.825,4H9.59l1.142-2h3.1A2.311,2.311,0,0,1,16,4.428V11.57A2.311,2.311,0,0,1,13.834,14ZM2.167,14A2.312,2.312,0,0,1,0,11.57V4.428A2.311,2.311,0,0,1,2.167,2H6.125L4.982,4H2.167A.521.521,0,0,0,2,4.428V11.57a.5.5,0,0,0,.176.43H6.41L5.268,14ZM18,10V6a1,1,0,1,1,2,0v4a1,1,0,1,1-2,0Z" transform="translate(2 4.001)"/>
    </clipPath>
  </defs>
  <g id="Group_68" data-name="Group 68">
    <path id="Color-2" data-name="Color" d="M6.5,15.867A1,1,0,0,1,6.132,14.5L9.277,9H5a1,1,0,0,1-.868-1.5l4-7A1,1,0,1,1,9.868,1.5L6.723,7H11a1,1,0,0,1,.868,1.5l-4,7A1,1,0,0,1,7,16,.987.987,0,0,1,6.5,15.867ZM9.876,14l1.142-2h2.81A.51.51,0,0,0,14,11.57V4.428A.5.5,0,0,0,13.825,4H9.59l1.142-2h3.1A2.311,2.311,0,0,1,16,4.428V11.57A2.311,2.311,0,0,1,13.834,14ZM2.167,14A2.312,2.312,0,0,1,0,11.57V4.428A2.311,2.311,0,0,1,2.167,2H6.125L4.982,4H2.167A.521.521,0,0,0,2,4.428V11.57a.5.5,0,0,0,.176.43H6.41L5.268,14ZM18,10V6a1,1,0,1,1,2,0v4a1,1,0,1,1-2,0Z" transform="translate(2 4.001)"/>
  </g>
</svg>
