<svg id="Icons_Play_Circle" data-name="Icons / Play Circle" xmlns="http://www.w3.org/2000/svg" xmlns:xlink="http://www.w3.org/1999/xlink" width="24" height="24" viewBox="0 0 24 24">
  <defs>
    <clipPath id="clip-path">
      <path id="Color" d="M10,20A10,10,0,1,1,20,10,10.011,10.011,0,0,1,10,20ZM10,2a8,8,0,1,0,8,8A8.009,8.009,0,0,0,10,2ZM9.181,15a1.712,1.712,0,0,1-.693-.145A1.605,1.605,0,0,1,7.5,13.37V6.629a1.607,1.607,0,0,1,.988-1.484A1.717,1.717,0,0,1,9.181,5a1.7,1.7,0,0,1,1.158.453l3.641,3.37a1.6,1.6,0,0,1,0,2.357l-3.641,3.37A1.7,1.7,0,0,1,9.181,15ZM9.5,7.4v5.2L12.309,10Z" transform="translate(2 2)"/>
    </clipPath>
  </defs>
  <g id="Group_97" data-name="Group 97">
    <path id="Color-2" data-name="Color" d="M10,20A10,10,0,1,1,20,10,10.011,10.011,0,0,1,10,20ZM10,2a8,8,0,1,0,8,8A8.009,8.009,0,0,0,10,2ZM9.181,15a1.712,1.712,0,0,1-.693-.145A1.605,1.605,0,0,1,7.5,13.37V6.629a1.607,1.607,0,0,1,.988-1.484A1.717,1.717,0,0,1,9.181,5a1.7,1.7,0,0,1,1.158.453l3.641,3.37a1.6,1.6,0,0,1,0,2.357l-3.641,3.37A1.7,1.7,0,0,1,9.181,15ZM9.5,7.4v5.2L12.309,10Z" transform="translate(2 2)"/>
  </g>
</svg>
