<svg id="Icons_Shield_Off" data-name="Icons / Shield / Off" xmlns="http://www.w3.org/2000/svg" xmlns:xlink="http://www.w3.org/1999/xlink" width="24" height="24" viewBox="0 0 24 24">
  <defs>
    <clipPath id="clip-path">
      <path id="Color" d="M8.021,19.447l-.3-.171A15.158,15.158,0,0,1,0,6.08V5.936A1.992,1.992,0,0,1,.732,4.41L2.164,5.844,2,5.936V6.08A13.162,13.162,0,0,0,8.7,17.535l.3.17.3-.17a13.105,13.105,0,0,0,2.613-1.94l1.414,1.414a15.044,15.044,0,0,1-3.047,2.268l-.3.17a2.016,2.016,0,0,1-1.96,0Zm8.273-.889-16-16A1,1,0,1,1,1.707,1.144l16,16a1,1,0,0,1-1.414,1.414Zm-1.92-6.163A13.128,13.128,0,0,0,16,6.08V5.936L9,2,5.784,3.807,4.316,2.338,8.02.255a2.012,2.012,0,0,1,1.96,0l7,3.938A2.006,2.006,0,0,1,18,5.936V6.08a15.136,15.136,0,0,1-2.162,7.781Z" transform="translate(3 2.149)"/>
    </clipPath>
  </defs>
  <g id="Group_31" data-name="Group 31">
    <path id="Color-2" data-name="Color" d="M8.021,19.447l-.3-.171A15.158,15.158,0,0,1,0,6.08V5.936A1.992,1.992,0,0,1,.732,4.41L2.164,5.844,2,5.936V6.08A13.162,13.162,0,0,0,8.7,17.535l.3.17.3-.17a13.105,13.105,0,0,0,2.613-1.94l1.414,1.414a15.044,15.044,0,0,1-3.047,2.268l-.3.17a2.016,2.016,0,0,1-1.96,0Zm8.273-.889-16-16A1,1,0,1,1,1.707,1.144l16,16a1,1,0,0,1-1.414,1.414Zm-1.92-6.163A13.128,13.128,0,0,0,16,6.08V5.936L9,2,5.784,3.807,4.316,2.338,8.02.255a2.012,2.012,0,0,1,1.96,0l7,3.938A2.006,2.006,0,0,1,18,5.936V6.08a15.136,15.136,0,0,1-2.162,7.781Z" transform="translate(3 2.149)"/>
  </g>
</svg>
