<svg id="Icons_Star" data-name="Icons / Star" xmlns="http://www.w3.org/2000/svg" xmlns:xlink="http://www.w3.org/1999/xlink" width="24" height="24" viewBox="0 0 24 24">
  <defs>
    <clipPath id="clip-path">
      <path id="Color" d="M4.438,18.955a1,1,0,0,1-.985-1.171l.972-5.628L.3,8.172A1,1,0,0,1,.856,6.464l5.7-.828L9.1.51A1.042,1.042,0,0,1,10.9.51l2.547,5.126,5.7.828a1,1,0,0,1,.551,1.708l-4.12,3.985.972,5.628a1,1,0,0,1-.4.978.981.981,0,0,1-.588.192,1.006,1.006,0,0,1-.464-.112L10,16.178,4.9,18.842A1.01,1.01,0,0,1,4.438,18.955ZM10,14.05a1,1,0,0,1,.463.113l3.769,1.97-.717-4.157a1,1,0,0,1,.29-.889l3.037-2.936-4.2-.612a1,1,0,0,1-.752-.545L10,3.2,8.114,6.995a1,1,0,0,1-.752.545l-4.2.612,3.037,2.936a1,1,0,0,1,.29.889l-.717,4.157,3.769-1.97A1.006,1.006,0,0,1,10,14.05Z" transform="translate(2 2)"/>
    </clipPath>
  </defs>
  <g id="Group_32" data-name="Group 32">
    <path id="Color-2" data-name="Color" d="M4.438,18.955a1,1,0,0,1-.985-1.171l.972-5.628L.3,8.172A1,1,0,0,1,.856,6.464l5.7-.828L9.1.51A1.042,1.042,0,0,1,10.9.51l2.547,5.126,5.7.828a1,1,0,0,1,.551,1.708l-4.12,3.985.972,5.628a1,1,0,0,1-.4.978.981.981,0,0,1-.588.192,1.006,1.006,0,0,1-.464-.112L10,16.178,4.9,18.842A1.01,1.01,0,0,1,4.438,18.955ZM10,14.05a1,1,0,0,1,.463.113l3.769,1.97-.717-4.157a1,1,0,0,1,.29-.889l3.037-2.936-4.2-.612a1,1,0,0,1-.752-.545L10,3.2,8.114,6.995a1,1,0,0,1-.752.545l-4.2.612,3.037,2.936a1,1,0,0,1,.29.889l-.717,4.157,3.769-1.97A1.006,1.006,0,0,1,10,14.05Z" transform="translate(2 2)"/>
  </g>
</svg>
