<svg id="Icons_Book_Open" data-name="Icons / Book / Open" xmlns="http://www.w3.org/2000/svg" xmlns:xlink="http://www.w3.org/1999/xlink" width="24" height="24" viewBox="0 0 24 24">
  <defs>
    <clipPath id="clip-path">
      <path id="Color" d="M9,16a.975.975,0,0,1-.22-.025l-8-1.8A.992.992,0,0,1,0,13.2V1A1,1,0,0,1,1.22.025L9,1.773,16.78.025A1,1,0,0,1,18,1V13.2a.992.992,0,0,1-.78.975l-8,1.8A.974.974,0,0,1,9,16Zm7-13.75L10,3.6V13.751L16,12.4Zm-14,0V12.4l6,1.348V3.6Z" transform="translate(3 3.999)"/>
    </clipPath>
  </defs>
  <g id="Group_125" data-name="Group 125">
    <path id="Color-2" data-name="Color" d="M9,16a.975.975,0,0,1-.22-.025l-8-1.8A.992.992,0,0,1,0,13.2V1A1,1,0,0,1,1.22.025L9,1.773,16.78.025A1,1,0,0,1,18,1V13.2a.992.992,0,0,1-.78.975l-8,1.8A.974.974,0,0,1,9,16Zm7-13.75L10,3.6V13.751L16,12.4Zm-14,0V12.4l6,1.348V3.6Z" transform="translate(3 3.999)"/>
  </g>
</svg>
