<svg id="Icons_Moon" data-name="Icons / Moon" xmlns="http://www.w3.org/2000/svg" xmlns:xlink="http://www.w3.org/1999/xlink" width="24" height="24" viewBox="0 0 24 24">
  <defs>
    <clipPath id="clip-path">
      <path id="Color" d="M10.274,20h-.094a10.257,10.257,0,0,1-7.344-3.153A10.463,10.463,0,0,1,2.577,2.81,10.237,10.237,0,0,1,6.571.067.995.995,0,0,1,7.63.289a1,1,0,0,1,.237,1.056,8.4,8.4,0,0,0,1.941,8.8,8.474,8.474,0,0,0,5.948,2.445,8.393,8.393,0,0,0,2.88-.507.98.98,0,0,1,.341-.061,1,1,0,0,1,.934,1.359A10.31,10.31,0,0,1,10.274,20ZM5.441,2.918A8.289,8.289,0,0,0,4.066,4.146a8.425,8.425,0,0,0,.207,11.309A8.273,8.273,0,0,0,10.2,18h.076a8.346,8.346,0,0,0,6.783-3.487A10.479,10.479,0,0,1,8.4,11.565,10.4,10.4,0,0,1,5.441,2.918Z" transform="translate(2 2)"/>
    </clipPath>
  </defs>
  <g id="Group_21" data-name="Group 21">
    <path id="Color-2" data-name="Color" d="M10.274,20h-.094a10.257,10.257,0,0,1-7.344-3.153A10.463,10.463,0,0,1,2.577,2.81,10.237,10.237,0,0,1,6.571.067.995.995,0,0,1,7.63.289a1,1,0,0,1,.237,1.056,8.4,8.4,0,0,0,1.941,8.8,8.474,8.474,0,0,0,5.948,2.445,8.393,8.393,0,0,0,2.88-.507.98.98,0,0,1,.341-.061,1,1,0,0,1,.934,1.359A10.31,10.31,0,0,1,10.274,20ZM5.441,2.918A8.289,8.289,0,0,0,4.066,4.146a8.425,8.425,0,0,0,.207,11.309A8.273,8.273,0,0,0,10.2,18h.076a8.346,8.346,0,0,0,6.783-3.487A10.479,10.479,0,0,1,8.4,11.565,10.4,10.4,0,0,1,5.441,2.918Z" transform="translate(2 2)"/>
  </g>
</svg>
