<svg id="Icons_Arrow_Arrow_2_Down" data-name="Icons / Arrow / Arrow 2 / Down" xmlns="http://www.w3.org/2000/svg" xmlns:xlink="http://www.w3.org/1999/xlink" width="24" height="24" viewBox="0 0 24 24">
  <defs>
    <clipPath id="clip-path">
      <path id="Color" d="M13.768,9.36a1,1,0,0,0-1.408-.128L8,12.865V1A1,1,0,1,0,6,1V12.865L1.64,9.232A1,1,0,1,0,.36,10.768l6,5a.956.956,0,0,0,.155.089.918.918,0,0,0,.122.07.939.939,0,0,0,.726,0,.918.918,0,0,0,.122-.07.956.956,0,0,0,.155-.089l6-5a1,1,0,0,0,.128-1.408" transform="translate(5 4)"/>
    </clipPath>
  </defs>
  <g id="Group_25" data-name="Group 25">
    <path id="Color-2" data-name="Color" d="M13.768,9.36a1,1,0,0,0-1.408-.128L8,12.865V1A1,1,0,1,0,6,1V12.865L1.64,9.232A1,1,0,1,0,.36,10.768l6,5a.956.956,0,0,0,.155.089.918.918,0,0,0,.122.07.939.939,0,0,0,.726,0,.918.918,0,0,0,.122-.07.956.956,0,0,0,.155-.089l6-5a1,1,0,0,0,.128-1.408" transform="translate(5 4)"/>
  </g>
</svg>
