<svg id="Icons_Corner_Up_Right" data-name="Icons / Corner / Up Right" xmlns="http://www.w3.org/2000/svg" xmlns:xlink="http://www.w3.org/1999/xlink" width="24" height="24" viewBox="0 0 24 24">
  <defs>
    <clipPath id="clip-path">
      <path id="Color" d="M14.781,5.376l-4-5A1,1,0,0,0,9.219,1.625L11.92,5H3A3,3,0,0,0,0,8v5a1,1,0,0,0,2,0V8A1,1,0,0,1,3,7h8.92l-2.7,3.375a1,1,0,1,0,1.562,1.249l4-5a1,1,0,0,0,0-1.249" transform="translate(5 5)"/>
    </clipPath>
  </defs>
  <g id="Group_57" data-name="Group 57">
    <path id="Color-2" data-name="Color" d="M14.781,5.376l-4-5A1,1,0,0,0,9.219,1.625L11.92,5H3A3,3,0,0,0,0,8v5a1,1,0,0,0,2,0V8A1,1,0,0,1,3,7h8.92l-2.7,3.375a1,1,0,1,0,1.562,1.249l4-5a1,1,0,0,0,0-1.249" transform="translate(5 5)"/>
  </g>
</svg>
