<svg id="Icons_Recording" data-name="Icons / Recording" xmlns="http://www.w3.org/2000/svg" xmlns:xlink="http://www.w3.org/1999/xlink" width="24" height="24" viewBox="0 0 24 24">
  <defs>
    <clipPath id="clip-path">
      <path id="Color" d="M16,8H4A4,4,0,1,1,8,4a3.933,3.933,0,0,1-.557,2h5.114A3.935,3.935,0,0,1,12,4a4,4,0,1,1,4,4Zm0-6a2,2,0,1,0,2,2A2,2,0,0,0,16,2ZM4,2A2,2,0,1,0,6,4,2,2,0,0,0,4,2Z" transform="translate(2 8)"/>
    </clipPath>
  </defs>
  <g id="Group_88" data-name="Group 88">
    <path id="Color-2" data-name="Color" d="M16,8H4A4,4,0,1,1,8,4a3.933,3.933,0,0,1-.557,2h5.114A3.935,3.935,0,0,1,12,4a4,4,0,1,1,4,4Zm0-6a2,2,0,1,0,2,2A2,2,0,0,0,16,2ZM4,2A2,2,0,1,0,6,4,2,2,0,0,0,4,2Z" transform="translate(2 8)"/>
  </g>
</svg>
