<svg id="Icons_Car" data-name="Icons / Car" xmlns="http://www.w3.org/2000/svg" xmlns:xlink="http://www.w3.org/1999/xlink" width="24" height="24" viewBox="0 0 24 24">
  <defs>
    <clipPath id="clip-path">
      <path id="Color" d="M16,18a3,3,0,0,1-3-3,2.9,2.9,0,0,1,.185-1H6.815A2.9,2.9,0,0,1,7,15a3,3,0,0,1-6,0,2.968,2.968,0,0,1,.221-1.119A2,2,0,0,1,0,12V2A1.915,1.915,0,0,1,1.812,0H13.187A1.916,1.916,0,0,1,15,2V4.519l4.625,3.7A1,1,0,0,1,20,9v4a1,1,0,0,1-1,1h-.185A2.924,2.924,0,0,1,19,15,3,3,0,0,1,16,18Zm0-4a1,1,0,1,0,1,1A1,1,0,0,0,16,14ZM4,14a1,1,0,1,0,1,1A1,1,0,0,0,4,14ZM15,7.081V12h3V9.48ZM2.016,2,2,12H12.984L13,2Z" transform="translate(2 3)"/>
    </clipPath>
  </defs>
  <g id="Group_76" data-name="Group 76">
    <path id="Color-2" data-name="Color" d="M16,18a3,3,0,0,1-3-3,2.9,2.9,0,0,1,.185-1H6.815A2.9,2.9,0,0,1,7,15a3,3,0,0,1-6,0,2.968,2.968,0,0,1,.221-1.119A2,2,0,0,1,0,12V2A1.915,1.915,0,0,1,1.812,0H13.187A1.916,1.916,0,0,1,15,2V4.519l4.625,3.7A1,1,0,0,1,20,9v4a1,1,0,0,1-1,1h-.185A2.924,2.924,0,0,1,19,15,3,3,0,0,1,16,18Zm0-4a1,1,0,1,0,1,1A1,1,0,0,0,16,14ZM4,14a1,1,0,1,0,1,1A1,1,0,0,0,4,14ZM15,7.081V12h3V9.48ZM2.016,2,2,12H12.984L13,2Z" transform="translate(2 3)"/>
  </g>
</svg>
