<svg id="Icons_Cube" data-name="Icons / Cube" xmlns="http://www.w3.org/2000/svg" xmlns:xlink="http://www.w3.org/1999/xlink" width="24" height="24" viewBox="0 0 24 24">
  <defs>
    <clipPath id="clip-path">
      <path id="Color" d="M9,18a2.67,2.67,0,0,1-1.139-.253l-6.4-2.972A2.491,2.491,0,0,1,0,12.526V5.459a2.365,2.365,0,0,1,.342-1.2.043.043,0,0,0,0-.013.043.043,0,0,1,0-.014.046.046,0,0,1,.009-.012l.008-.011a1.949,1.949,0,0,1,.125-.174l.024-.03c.012-.013.023-.027.034-.04A.46.46,0,0,1,.612,3.9a2.509,2.509,0,0,1,.857-.678L7.866.249a2.7,2.7,0,0,1,2.265,0l6.4,2.975a2.5,2.5,0,0,1,.856.678.469.469,0,0,1,.06.065l.03.035.038.05a1.684,1.684,0,0,1,.117.164l.007.009a.033.033,0,0,1,.009.012.043.043,0,0,1,0,.015.059.059,0,0,0,0,.01A2.373,2.373,0,0,1,18,5.459v7.083a2.5,2.5,0,0,1-1.47,2.238l-6.4,2.972A2.67,2.67,0,0,1,9,18ZM2,6.106v6.428a.479.479,0,0,0,.3.432L8,15.611V8.893Zm14,0L10,8.893v6.716l5.69-2.644a.485.485,0,0,0,.31-.424ZM9,2a.685.685,0,0,0-.292.064L3.378,4.54,9,7.151,14.621,4.54,9.292,2.066A.691.691,0,0,0,9,2Z" transform="translate(3 2.998)"/>
    </clipPath>
  </defs>
  <g id="Group_23" data-name="Group 23">
    <path id="Color-2" data-name="Color" d="M9,18a2.67,2.67,0,0,1-1.139-.253l-6.4-2.972A2.491,2.491,0,0,1,0,12.526V5.459a2.365,2.365,0,0,1,.342-1.2.043.043,0,0,0,0-.013.043.043,0,0,1,0-.014.046.046,0,0,1,.009-.012l.008-.011a1.949,1.949,0,0,1,.125-.174l.024-.03c.012-.013.023-.027.034-.04A.46.46,0,0,1,.612,3.9a2.509,2.509,0,0,1,.857-.678L7.866.249a2.7,2.7,0,0,1,2.265,0l6.4,2.975a2.5,2.5,0,0,1,.856.678.469.469,0,0,1,.06.065l.03.035.038.05a1.684,1.684,0,0,1,.117.164l.007.009a.033.033,0,0,1,.009.012.043.043,0,0,1,0,.015.059.059,0,0,0,0,.01A2.373,2.373,0,0,1,18,5.459v7.083a2.5,2.5,0,0,1-1.47,2.238l-6.4,2.972A2.67,2.67,0,0,1,9,18ZM2,6.106v6.428a.479.479,0,0,0,.3.432L8,15.611V8.893Zm14,0L10,8.893v6.716l5.69-2.644a.485.485,0,0,0,.31-.424ZM9,2a.685.685,0,0,0-.292.064L3.378,4.54,9,7.151,14.621,4.54,9.292,2.066A.691.691,0,0,0,9,2Z" transform="translate(3 2.998)"/>
  </g>
</svg>
