<svg id="Icons_Upload" data-name="Icons / Upload" xmlns="http://www.w3.org/2000/svg" xmlns:xlink="http://www.w3.org/1999/xlink" width="24" height="24" viewBox="0 0 24 24">
  <defs>
    <clipPath id="clip-path">
      <path id="Color" d="M7,16V8H7L4.6,9.8A1,1,0,0,1,3.4,8.2l4-3a1,1,0,0,1,1.175-.018l4,2.813a1,1,0,0,1-1.15,1.636L9,7.924Q9,7.962,9,8v8a1,1,0,1,1-2,0ZM14,3V2H2V3A1,1,0,1,1,0,3V1A1,1,0,0,1,1,0H15a1,1,0,0,1,1,1V3a1,1,0,1,1-2,0Z" transform="translate(4 4)"/>
    </clipPath>
  </defs>
  <g id="Group_17" data-name="Group 17">
    <path id="Color-2" data-name="Color" d="M7,16V8H7L4.6,9.8A1,1,0,0,1,3.4,8.2l4-3a1,1,0,0,1,1.175-.018l4,2.813a1,1,0,0,1-1.15,1.636L9,7.924Q9,7.962,9,8v8a1,1,0,1,1-2,0ZM14,3V2H2V3A1,1,0,1,1,0,3V1A1,1,0,0,1,1,0H15a1,1,0,0,1,1,1V3a1,1,0,1,1-2,0Z" transform="translate(4 4)"/>
  </g>
</svg>
