<svg id="Icons_Music" data-name="Icons / Music" xmlns="http://www.w3.org/2000/svg" xmlns:xlink="http://www.w3.org/1999/xlink" width="24" height="24" viewBox="0 0 24 24">
  <defs>
    <clipPath id="clip-path">
      <path id="Color" d="M3.492,18a3.492,3.492,0,1,1,1.44-6.666V2.993a1.007,1.007,0,0,1,.783-.977L14.687.024A.988.988,0,0,1,14.9,0a1,1,0,0,1,1,1V11.992a3.392,3.392,0,0,1,.053.522A3.516,3.516,0,1,1,13.9,9.34V2.246L6.932,3.8V13.985l0,.016a3.365,3.365,0,0,1,.051.506A3.5,3.5,0,0,1,3.492,18Zm0-4.985a1.493,1.493,0,1,0,1.493,1.492,1.408,1.408,0,0,0-.031-.3A1.5,1.5,0,0,0,3.492,13.015Zm8.972-1.993a1.492,1.492,0,1,0,1.492,1.491,1.558,1.558,0,0,0-.031-.3A1.5,1.5,0,0,0,12.464,11.022Z" transform="translate(3.044 3)"/>
    </clipPath>
  </defs>
  <g id="Group_92" data-name="Group 92">
    <path id="Color-2" data-name="Color" d="M3.492,18a3.492,3.492,0,1,1,1.44-6.666V2.993a1.007,1.007,0,0,1,.783-.977L14.687.024A.988.988,0,0,1,14.9,0a1,1,0,0,1,1,1V11.992a3.392,3.392,0,0,1,.053.522A3.516,3.516,0,1,1,13.9,9.34V2.246L6.932,3.8V13.985l0,.016a3.365,3.365,0,0,1,.051.506A3.5,3.5,0,0,1,3.492,18Zm0-4.985a1.493,1.493,0,1,0,1.493,1.492,1.408,1.408,0,0,0-.031-.3A1.5,1.5,0,0,0,3.492,13.015Zm8.972-1.993a1.492,1.492,0,1,0,1.492,1.491,1.558,1.558,0,0,0-.031-.3A1.5,1.5,0,0,0,12.464,11.022Z" transform="translate(3.044 3)"/>
  </g>
</svg>
