<svg id="Icons_Volume_Up" data-name="Icons / Volume / Up" xmlns="http://www.w3.org/2000/svg" width="24" height="24" viewBox="0 0 24 24">
  <path id="Color" d="M13,18a.989.989,0,0,1-.564-.175l-6.413-4.4H1a1,1,0,0,1-1-1V5.572a1,1,0,0,1,1-1H6.023l6.413-4.4A.988.988,0,0,1,13,0a1,1,0,0,1,1,1V17a1,1,0,0,1-1,1ZM2,6.572v4.857H6.333A1.013,1.013,0,0,1,6.9,11.6L12,15.1V2.9L6.9,6.4a1.013,1.013,0,0,1-.566.175ZM17.5,16a1,1,0,0,1-.637-1.771A6.789,6.789,0,0,0,19.5,9a6.793,6.793,0,0,0-2.638-5.23A1,1,0,0,1,17.5,2a1,1,0,0,1,.637.23A8.754,8.754,0,0,1,21.5,9a8.753,8.753,0,0,1-3.362,6.77A1,1,0,0,1,17.5,16ZM16,13a1,1,0,0,1-.779-1.627,4.014,4.014,0,0,0,0-4.746A1,1,0,0,1,16,5a1,1,0,0,1,.779.373,5.972,5.972,0,0,1,0,7.254A1,1,0,0,1,16,13Z" transform="translate(1 3)"/>
</svg>
