<svg id="Icons_Arrow_IOS_Left" data-name="Icons / Arrow / IOS / Left" xmlns="http://www.w3.org/2000/svg" xmlns:xlink="http://www.w3.org/1999/xlink" width="24" height="24" viewBox="0 0 24 24">
  <defs>
    <clipPath id="clip-path">
      <path id="Color" d="M5.829,14a1,1,0,0,1-.78-.373l-4.828-6A1,1,0,0,1,.232,6.359l5-6a1,1,0,1,1,1.536,1.28L2.293,7.01l4.315,5.362A1,1,0,0,1,5.829,14" transform="translate(8 5.001)"/>
    </clipPath>
  </defs>
  <g id="Group_2" data-name="Group 2">
    <path id="Color-2" data-name="Color" d="M5.829,14a1,1,0,0,1-.78-.373l-4.828-6A1,1,0,0,1,.232,6.359l5-6a1,1,0,1,1,1.536,1.28L2.293,7.01l4.315,5.362A1,1,0,0,1,5.829,14" transform="translate(8 5.001)"/>
  </g>
</svg>
