<svg id="Icons_Alert_Triangle" data-name="Icons / Alert / Triangle" xmlns="http://www.w3.org/2000/svg" xmlns:xlink="http://www.w3.org/1999/xlink" width="24" height="24" viewBox="0 0 24 24">
  <defs>
    <clipPath id="clip-path">
      <path id="Color" d="M18.671,19H3.327A3.349,3.349,0,0,1,.393,17.336,2.974,2.974,0,0,1,.439,14.3L8.111,1.584a3.426,3.426,0,0,1,5.777,0L21.56,14.3a2.974,2.974,0,0,1,.046,3.033A3.354,3.354,0,0,1,18.671,19ZM11,2.038a1.352,1.352,0,0,0-1.176.58L2.152,15.336a.97.97,0,0,0-.017,1.017A1.333,1.333,0,0,0,3.327,17H18.671a1.333,1.333,0,0,0,1.193-.647.97.97,0,0,0-.017-1.017L12.175,2.618A1.352,1.352,0,0,0,11,2.038ZM11,15a1,1,0,1,1,1-1A1,1,0,0,1,11,15Zm0-3a1,1,0,0,1-1-1V7a1,1,0,0,1,2,0v4A1,1,0,0,1,11,12Z" transform="translate(1 2)"/>
    </clipPath>
  </defs>
  <g id="Group_14" data-name="Group 14">
    <path id="Color-2" data-name="Color" d="M18.671,19H3.327A3.349,3.349,0,0,1,.393,17.336,2.974,2.974,0,0,1,.439,14.3L8.111,1.584a3.426,3.426,0,0,1,5.777,0L21.56,14.3a2.974,2.974,0,0,1,.046,3.033A3.354,3.354,0,0,1,18.671,19ZM11,2.038a1.352,1.352,0,0,0-1.176.58L2.152,15.336a.97.97,0,0,0-.017,1.017A1.333,1.333,0,0,0,3.327,17H18.671a1.333,1.333,0,0,0,1.193-.647.97.97,0,0,0-.017-1.017L12.175,2.618A1.352,1.352,0,0,0,11,2.038ZM11,15a1,1,0,1,1,1-1A1,1,0,0,1,11,15Zm0-3a1,1,0,0,1-1-1V7a1,1,0,0,1,2,0v4A1,1,0,0,1,11,12Z" transform="translate(1 2)"/>
  </g>
</svg>
