<svg id="Icons_Arrow_Diagonal_Right_Up" data-name="Icons / Arrow / Diagonal / Right Up" xmlns="http://www.w3.org/2000/svg" xmlns:xlink="http://www.w3.org/1999/xlink" width="24" height="24" viewBox="0 0 24 24">
  <defs>
    <clipPath id="clip-path">
      <path id="Color" d="M11.993,1.049A1,1,0,0,0,11,.05L3.006,0H3a1,1,0,0,0-.006,2l5.558.035L.293,10.293a1,1,0,1,0,1.414,1.414L10,3.419,10,9a1,1,0,0,0,1,1h0a1,1,0,0,0,1-1Z" transform="translate(6 6)"/>
    </clipPath>
  </defs>
  <g id="Group_115" data-name="Group 115">
    <path id="Color-2" data-name="Color" d="M11.993,1.049A1,1,0,0,0,11,.05L3.006,0H3a1,1,0,0,0-.006,2l5.558.035L.293,10.293a1,1,0,1,0,1.414,1.414L10,3.419,10,9a1,1,0,0,0,1,1h0a1,1,0,0,0,1-1Z" transform="translate(6 6)"/>
  </g>
</svg>
