<svg id="Icons_Social_Google" data-name="Icons / Social / Google" xmlns="http://www.w3.org/2000/svg" xmlns:xlink="http://www.w3.org/1999/xlink" width="24" height="24" viewBox="0 0 24 24">
  <defs>
    <clipPath id="clip-path">
      <path id="Color" d="M10,20c-.148,0-.292,0-.427-.009A10.151,10.151,0,0,1,0,10.292,10.008,10.008,0,0,1,14.122.885a1.439,1.439,0,0,1,.77.851,1.467,1.467,0,0,1-.1,1.162L13.5,5.282a1.441,1.441,0,0,1-1.271.756,1.456,1.456,0,0,1-.564-.114,4.281,4.281,0,0,0-1.622-.312,4.459,4.459,0,0,0-3.273,1.4,4.313,4.313,0,0,0,.5,6.37A4.573,4.573,0,0,0,10.1,14.395a4.16,4.16,0,0,0,.613-.045,3.871,3.871,0,0,0,2.632-1.568h-2.9A1.452,1.452,0,0,1,9,11.332V8.65a1.452,1.452,0,0,1,1.45-1.45h8.1A1.454,1.454,0,0,1,20,8.638c0,.39.006,1.678,0,1.882A10.035,10.035,0,0,1,10,20ZM10,2a8,8,0,0,0-8,8.235,8.119,8.119,0,0,0,7.649,7.757c.106,0,.214.006.321.006A8.006,8.006,0,0,0,18,10.419C18,10.288,18,9.7,18,9.2H11v1.582h5.309l-.4,1.3a5.965,5.965,0,0,1-4.89,4.248,6.28,6.28,0,0,1-.9.064,6.586,6.586,0,0,1-4.092-1.447A6.312,6.312,0,0,1,5.3,5.653a6.571,6.571,0,0,1,4.756-2.042,6.182,6.182,0,0,1,1.911.3l.773-1.428A7.961,7.961,0,0,0,10,2Z" transform="translate(2 2)"/>
    </clipPath>
  </defs>
  <g id="Group_114" data-name="Group 114">
    <path id="Color-2" data-name="Color" d="M10,20c-.148,0-.292,0-.427-.009A10.151,10.151,0,0,1,0,10.292,10.008,10.008,0,0,1,14.122.885a1.439,1.439,0,0,1,.77.851,1.467,1.467,0,0,1-.1,1.162L13.5,5.282a1.441,1.441,0,0,1-1.271.756,1.456,1.456,0,0,1-.564-.114,4.281,4.281,0,0,0-1.622-.312,4.459,4.459,0,0,0-3.273,1.4,4.313,4.313,0,0,0,.5,6.37A4.573,4.573,0,0,0,10.1,14.395a4.16,4.16,0,0,0,.613-.045,3.871,3.871,0,0,0,2.632-1.568h-2.9A1.452,1.452,0,0,1,9,11.332V8.65a1.452,1.452,0,0,1,1.45-1.45h8.1A1.454,1.454,0,0,1,20,8.638c0,.39.006,1.678,0,1.882A10.035,10.035,0,0,1,10,20ZM10,2a8,8,0,0,0-8,8.235,8.119,8.119,0,0,0,7.649,7.757c.106,0,.214.006.321.006A8.006,8.006,0,0,0,18,10.419C18,10.288,18,9.7,18,9.2H11v1.582h5.309l-.4,1.3a5.965,5.965,0,0,1-4.89,4.248,6.28,6.28,0,0,1-.9.064,6.586,6.586,0,0,1-4.092-1.447A6.312,6.312,0,0,1,5.3,5.653a6.571,6.571,0,0,1,4.756-2.042,6.182,6.182,0,0,1,1.911.3l.773-1.428A7.961,7.961,0,0,0,10,2Z" transform="translate(2 2)"/>
  </g>
</svg>
