<svg id="Icons_Sun" data-name="Icons / Sun" xmlns="http://www.w3.org/2000/svg" width="24" height="24" viewBox="0 0 24 24">
  <path id="Color" d="M10,20a1,1,0,0,1-1-1V17a1,1,0,0,1,2,0v2A1,1,0,0,1,10,20Zm6.474-2.748a1,1,0,0,1-.695-.28L14.34,15.582a1,1,0,0,1,1.391-1.439l1.439,1.39a1,1,0,0,1-.7,1.72Zm-12.947,0a1,1,0,0,1-.695-1.72l1.438-1.39A1,1,0,0,1,5.66,15.582L4.221,16.972A1,1,0,0,1,3.526,17.252ZM10,14a4,4,0,1,1,4-4A4,4,0,0,1,10,14Zm0-6a2,2,0,1,0,2,2A2,2,0,0,0,10,8Zm9,3H17a1,1,0,0,1,0-2h2a1,1,0,0,1,0,2ZM3,11H1A1,1,0,1,1,1,9H3a1,1,0,1,1,0,2ZM15.035,6.138a1,1,0,0,1-.7-1.72l1.439-1.391a1,1,0,0,1,.7-.279,1,1,0,0,1,.7,1.719L15.73,5.857A.994.994,0,0,1,15.035,6.138Zm-10.07,0a1,1,0,0,1-.7-.281L2.831,4.468a1,1,0,0,1,1.39-1.44L5.66,4.418a1,1,0,0,1,.024,1.414A.991.991,0,0,1,4.965,6.138ZM10,4A1,1,0,0,1,9,3V1a1,1,0,1,1,2,0V3A1,1,0,0,1,10,4Z" transform="translate(2 2)"/>
</svg>
