<svg id="Icons_Log_in" data-name="Icons / Log / in" xmlns="http://www.w3.org/2000/svg" xmlns:xlink="http://www.w3.org/1999/xlink" width="24" height="24" viewBox="0 0 24 24">
  <defs>
    <clipPath id="clip-path">
      <path id="Color" d="M14,16a1,1,0,0,1,0-2h1V2H14a1,1,0,0,1,0-2h2a1,1,0,0,1,1,1V15a1,1,0,0,1-1,1ZM7.611,12.819a1,1,0,0,1-.243-1.394L9.086,8.982A.778.778,0,0,1,9,9H1A1,1,0,1,1,1,7H9L7.2,4.6A1,1,0,0,1,8.8,3.4l3,4a1,1,0,0,1,.018,1.174L9,12.576a1,1,0,0,1-1.392.243Z" transform="translate(3 4)"/>
    </clipPath>
  </defs>
  <g id="Group_96" data-name="Group 96">
    <path id="Color-2" data-name="Color" d="M14,16a1,1,0,0,1,0-2h1V2H14a1,1,0,0,1,0-2h2a1,1,0,0,1,1,1V15a1,1,0,0,1-1,1ZM7.611,12.819a1,1,0,0,1-.243-1.394L9.086,8.982A.778.778,0,0,1,9,9H1A1,1,0,1,1,1,7H9L7.2,4.6A1,1,0,0,1,8.8,3.4l3,4a1,1,0,0,1,.018,1.174L9,12.576a1,1,0,0,1-1.392.243Z" transform="translate(3 4)"/>
  </g>
</svg>
