<svg id="Icons_Arrow_Arrow_2_Left" data-name="Icons / Arrow / Arrow 2 / Left" xmlns="http://www.w3.org/2000/svg" xmlns:xlink="http://www.w3.org/1999/xlink" width="24" height="24" viewBox="0 0 24 24">
  <defs>
    <clipPath id="clip-path">
      <path id="Color" d="M15,6H3.135L6.768,1.64A1,1,0,0,0,5.232.36l-5,6a.942.942,0,0,0-.088.154.947.947,0,0,0-.071.124A.985.985,0,0,0,0,7V7S0,7,0,7a.985.985,0,0,0,.072.358.947.947,0,0,0,.071.124.942.942,0,0,0,.088.154l5,6a1,1,0,0,0,1.536-1.28L3.135,8H15a1,1,0,0,0,0-2" transform="translate(4 5)"/>
    </clipPath>
  </defs>
  <g id="Group_6" data-name="Group 6">
    <path id="Color-2" data-name="Color" d="M15,6H3.135L6.768,1.64A1,1,0,0,0,5.232.36l-5,6a.942.942,0,0,0-.088.154.947.947,0,0,0-.071.124A.985.985,0,0,0,0,7V7S0,7,0,7a.985.985,0,0,0,.072.358.947.947,0,0,0,.071.124.942.942,0,0,0,.088.154l5,6a1,1,0,0,0,1.536-1.28L3.135,8H15a1,1,0,0,0,0-2" transform="translate(4 5)"/>
  </g>
</svg>
