<svg id="Icons_Rewind_Right" data-name="Icons / Rewind / Right" xmlns="http://www.w3.org/2000/svg" xmlns:xlink="http://www.w3.org/1999/xlink" width="24" height="24" viewBox="0 0 24 24">
  <defs>
    <clipPath id="clip-path">
      <path id="Color" d="M9.956,12a2.153,2.153,0,0,1-.905-.2A1.764,1.764,0,0,1,8,10.214V7.625L3.259,11.541a2.043,2.043,0,0,1-1.3.462,2.153,2.153,0,0,1-.905-.2A1.764,1.764,0,0,1,0,10.214V1.788A1.763,1.763,0,0,1,1.05.2a2.132,2.132,0,0,1,.9-.2,2.053,2.053,0,0,1,1.3.462L8,4.379V1.788A1.763,1.763,0,0,1,9.05.2a2.135,2.135,0,0,1,.9-.2,2.053,2.053,0,0,1,1.3.462l5.1,4.214a1.692,1.692,0,0,1,0,2.652l-5.1,4.213A2.043,2.043,0,0,1,9.956,12ZM10,2.015V9.91L14.822,6Zm-8,0V9.91L6.822,6Z" transform="translate(4.5 5.999)"/>
    </clipPath>
  </defs>
  <g id="Group_34" data-name="Group 34">
    <path id="Color-2" data-name="Color" d="M9.956,12a2.153,2.153,0,0,1-.905-.2A1.764,1.764,0,0,1,8,10.214V7.625L3.259,11.541a2.043,2.043,0,0,1-1.3.462,2.153,2.153,0,0,1-.905-.2A1.764,1.764,0,0,1,0,10.214V1.788A1.763,1.763,0,0,1,1.05.2a2.132,2.132,0,0,1,.9-.2,2.053,2.053,0,0,1,1.3.462L8,4.379V1.788A1.763,1.763,0,0,1,9.05.2a2.135,2.135,0,0,1,.9-.2,2.053,2.053,0,0,1,1.3.462l5.1,4.214a1.692,1.692,0,0,1,0,2.652l-5.1,4.213A2.043,2.043,0,0,1,9.956,12ZM10,2.015V9.91L14.822,6Zm-8,0V9.91L6.822,6Z" transform="translate(4.5 5.999)"/>
  </g>
</svg>
