<svg id="Icons_Battery_Battery" data-name="Icons / Battery / Battery" xmlns="http://www.w3.org/2000/svg" width="24" height="24" viewBox="0 0 24 24">
  <path id="Color" d="M13.833,12H2.167A2.312,2.312,0,0,1,0,9.571V2.429A2.312,2.312,0,0,1,2.167,0H13.833A2.312,2.312,0,0,1,16,2.429V9.571A2.312,2.312,0,0,1,13.833,12ZM13.824,2H2.167A.518.518,0,0,0,2,2.429V9.571a.5.5,0,0,0,.176.43H13.828A.515.515,0,0,0,14,9.571V2.429A.5.5,0,0,0,13.824,2ZM19,9a1,1,0,0,1-1-1V4a1,1,0,1,1,2,0V8A1,1,0,0,1,19,9Z" transform="translate(2 6)"/>
</svg>
