<svg id="Icons_Crop" data-name="Icons / Crop" xmlns="http://www.w3.org/2000/svg" xmlns:xlink="http://www.w3.org/1999/xlink" width="24" height="24" viewBox="0 0 24 24">
  <defs>
    <clipPath id="clip-path">
      <path id="Color" d="M15,20a1,1,0,0,1-1-1V16H6.556A2.559,2.559,0,0,1,4,13.444V6H1A1,1,0,0,1,1,4H4V1A1,1,0,0,1,6,1V4h7.445A2.558,2.558,0,0,1,16,6.556V14h3a1,1,0,0,1,0,2H16v3A1,1,0,0,1,15,20ZM6,6v7.444A.556.556,0,0,0,6.556,14H14V6.556A.556.556,0,0,0,13.445,6Z" transform="translate(2 2)"/>
    </clipPath>
  </defs>
  <g id="Group_36" data-name="Group 36">
    <path id="Color-2" data-name="Color" d="M15,20a1,1,0,0,1-1-1V16H6.556A2.559,2.559,0,0,1,4,13.444V6H1A1,1,0,0,1,1,4H4V1A1,1,0,0,1,6,1V4h7.445A2.558,2.558,0,0,1,16,6.556V14h3a1,1,0,0,1,0,2H16v3A1,1,0,0,1,15,20ZM6,6v7.444A.556.556,0,0,0,6.556,14H14V6.556A.556.556,0,0,0,13.445,6Z" transform="translate(2 2)"/>
  </g>
</svg>
