<svg id="Icons_Arrow_Circle_Right" data-name="Icons / Arrow / Circle / Right" xmlns="http://www.w3.org/2000/svg" xmlns:xlink="http://www.w3.org/1999/xlink" width="24" height="24" viewBox="0 0 24 24">
  <defs>
    <clipPath id="clip-path">
      <path id="Color" d="M10,20A10,10,0,1,1,20,10,10.011,10.011,0,0,1,10,20ZM10,2a8,8,0,1,0,8,8A8.009,8.009,0,0,0,10,2Zm1,12a1,1,0,0,1-.707-1.707L11.586,11H6A1,1,0,0,1,6,9h5.664l-1.25-1.31a1,1,0,0,1,1.447-1.381l2.863,3a.363.363,0,0,1,.053.079.541.541,0,0,0,.033.056l.029.042a.656.656,0,0,1,.084.14.95.95,0,0,1,.058.282.209.209,0,0,0,.009.042A.177.177,0,0,1,15,10a1.029,1.029,0,0,1-.078.384,1,1,0,0,1-.215.322l-3,3A.994.994,0,0,1,11,14Z" transform="translate(2 2)"/>
    </clipPath>
  </defs>
  <g id="Group_38" data-name="Group 38">
    <path id="Color-2" data-name="Color" d="M10,20A10,10,0,1,1,20,10,10.011,10.011,0,0,1,10,20ZM10,2a8,8,0,1,0,8,8A8.009,8.009,0,0,0,10,2Zm1,12a1,1,0,0,1-.707-1.707L11.586,11H6A1,1,0,0,1,6,9h5.664l-1.25-1.31a1,1,0,0,1,1.447-1.381l2.863,3a.363.363,0,0,1,.053.079.541.541,0,0,0,.033.056l.029.042a.656.656,0,0,1,.084.14.95.95,0,0,1,.058.282.209.209,0,0,0,.009.042A.177.177,0,0,1,15,10a1.029,1.029,0,0,1-.078.384,1,1,0,0,1-.215.322l-3,3A.994.994,0,0,1,11,14Z" transform="translate(2 2)"/>
  </g>
</svg>
