<svg id="Icons_Navigation_Navigation_2" data-name="Icons / Navigation / Navigation 2" xmlns="http://www.w3.org/2000/svg" xmlns:xlink="http://www.w3.org/1999/xlink" width="24" height="24" viewBox="0 0 24 24">
  <defs>
    <clipPath id="clip-path">
      <path id="Color" d="M11.667,18l-.04,0h-.021a1,1,0,0,1-.92-.8L9.017,8.984.8,7.313A1,1,0,0,1,.683,5.386l16-5.333a1,1,0,0,1,1.265,1.265l-5.333,16A1,1,0,0,1,11.667,18Zm3.752-15.42h0L4.866,6.1l5.2,1.058a.994.994,0,0,1,.781.779l1.056,5.2L15.419,2.581Z" transform="translate(3 2.999)"/>
    </clipPath>
  </defs>
  <g id="Group_109" data-name="Group 109">
    <path id="Color-2" data-name="Color" d="M11.667,18l-.04,0h-.021a1,1,0,0,1-.92-.8L9.017,8.984.8,7.313A1,1,0,0,1,.683,5.386l16-5.333a1,1,0,0,1,1.265,1.265l-5.333,16A1,1,0,0,1,11.667,18Zm3.752-15.42h0L4.866,6.1l5.2,1.058a.994.994,0,0,1,.781.779l1.056,5.2L15.419,2.581Z" transform="translate(3 2.999)"/>
  </g>
</svg>
