<svg id="Icons_Eye_Off_2" data-name="Icons / Eye / Off 2" xmlns="http://www.w3.org/2000/svg" xmlns:xlink="http://www.w3.org/1999/xlink" width="24" height="24" viewBox="0 0 24 24">
  <defs>
    <clipPath id="clip-path">
      <path id="Color" d="M14.809,6.9a8.947,8.947,0,0,0,3.183-5.771A1,1,0,0,0,16.008.876,7.047,7.047,0,0,1,9,7,7.047,7.047,0,0,1,1.992.876a1,1,0,0,0-1.984.249A8.947,8.947,0,0,0,3.191,6.9L.879,9.208a1,1,0,1,0,1.414,1.414l2.6-2.6A9.067,9.067,0,0,0,8,8.94V12.5a1,1,0,0,0,2,0V8.94a9.062,9.062,0,0,0,3.1-.921l2.6,2.6a1,1,0,1,0,1.414-1.414Z" transform="translate(3 6.499)"/>
    </clipPath>
  </defs>
  <g id="Group_8" data-name="Group 8">
    <path id="Color-2" data-name="Color" d="M14.809,6.9a8.947,8.947,0,0,0,3.183-5.771A1,1,0,0,0,16.008.876,7.047,7.047,0,0,1,9,7,7.047,7.047,0,0,1,1.992.876a1,1,0,0,0-1.984.249A8.947,8.947,0,0,0,3.191,6.9L.879,9.208a1,1,0,1,0,1.414,1.414l2.6-2.6A9.067,9.067,0,0,0,8,8.94V12.5a1,1,0,0,0,2,0V8.94a9.062,9.062,0,0,0,3.1-.921l2.6,2.6a1,1,0,1,0,1.414-1.414Z" transform="translate(3 6.499)"/>
  </g>
</svg>
