<svg id="Icons_Trending_Up" data-name="Icons / Trending / Up" xmlns="http://www.w3.org/2000/svg" xmlns:xlink="http://www.w3.org/1999/xlink" width="24" height="24" viewBox="0 0 24 24">
  <defs>
    <clipPath id="clip-path">
      <path id="Color" d="M17.992.963A.881.881,0,0,0,17.95.754.947.947,0,0,0,17.9.584a.865.865,0,0,0-.1-.142A.98.98,0,0,0,17.673.27C17.664.261,17.66.249,17.65.241a.929.929,0,0,0-.119-.067,1.008,1.008,0,0,0-.187-.1,1,1,0,0,0-.2-.04A.94.94,0,0,0,17,0H12a1,1,0,0,0,0,2h2.826L10.79,6.708,6.514,4.143a1,1,0,0,0-1.283.217l-5,6a1,1,0,0,0,1.537,1.28L6.22,6.3l4.265,2.56a1,1,0,0,0,1.274-.207L16,3.7V6a1,1,0,0,0,2,0V1c0-.013-.007-.024-.008-.037" transform="translate(3 6)"/>
    </clipPath>
  </defs>
  <g id="Group_106" data-name="Group 106">
    <path id="Color-2" data-name="Color" d="M17.992.963A.881.881,0,0,0,17.95.754.947.947,0,0,0,17.9.584a.865.865,0,0,0-.1-.142A.98.98,0,0,0,17.673.27C17.664.261,17.66.249,17.65.241a.929.929,0,0,0-.119-.067,1.008,1.008,0,0,0-.187-.1,1,1,0,0,0-.2-.04A.94.94,0,0,0,17,0H12a1,1,0,0,0,0,2h2.826L10.79,6.708,6.514,4.143a1,1,0,0,0-1.283.217l-5,6a1,1,0,0,0,1.537,1.28L6.22,6.3l4.265,2.56a1,1,0,0,0,1.274-.207L16,3.7V6a1,1,0,0,0,2,0V1c0-.013-.007-.024-.008-.037" transform="translate(3 6)"/>
  </g>
</svg>
