<svg id="Icons_Camera" data-name="Icons / Camera" xmlns="http://www.w3.org/2000/svg" xmlns:xlink="http://www.w3.org/1999/xlink" width="24" height="24" viewBox="0 0 24 24">
  <defs>
    <clipPath id="clip-path">
      <path id="Color" d="M17,18H3a3,3,0,0,1-3-3V7A3,3,0,0,1,3,4H6V2.5A2.5,2.5,0,0,1,8.5,0h3A2.5,2.5,0,0,1,14,2.5V4h3a3,3,0,0,1,3,3v8A3,3,0,0,1,17,18ZM3,6A1,1,0,0,0,2,7v8a1,1,0,0,0,1,1H17a1,1,0,0,0,1-1V7a1,1,0,0,0-1-1ZM8.5,2a.5.5,0,0,0-.5.5V4h4V2.5a.5.5,0,0,0-.5-.5ZM10,14.5A3.5,3.5,0,1,1,13.5,11,3.5,3.5,0,0,1,10,14.5Zm0-5A1.5,1.5,0,1,0,11.5,11,1.5,1.5,0,0,0,10,9.5Z" transform="translate(2 3)"/>
    </clipPath>
  </defs>
  <g id="Group_43" data-name="Group 43">
    <path id="Color-2" data-name="Color" d="M17,18H3a3,3,0,0,1-3-3V7A3,3,0,0,1,3,4H6V2.5A2.5,2.5,0,0,1,8.5,0h3A2.5,2.5,0,0,1,14,2.5V4h3a3,3,0,0,1,3,3v8A3,3,0,0,1,17,18ZM3,6A1,1,0,0,0,2,7v8a1,1,0,0,0,1,1H17a1,1,0,0,0,1-1V7a1,1,0,0,0-1-1ZM8.5,2a.5.5,0,0,0-.5.5V4h4V2.5a.5.5,0,0,0-.5-.5ZM10,14.5A3.5,3.5,0,1,1,13.5,11,3.5,3.5,0,0,1,10,14.5Zm0-5A1.5,1.5,0,1,0,11.5,11,1.5,1.5,0,0,0,10,9.5Z" transform="translate(2 3)"/>
  </g>
</svg>
