<svg id="Icons_Toggle_Left" data-name="Icons / Toggle / Left" xmlns="http://www.w3.org/2000/svg" xmlns:xlink="http://www.w3.org/1999/xlink" width="24" height="24" viewBox="0 0 24 24">
  <defs>
    <clipPath id="clip-path">
      <path id="Color" d="M13,14H7A7,7,0,0,1,7,0h6a7,7,0,1,1,0,14ZM7,2A5,5,0,1,0,7,12h6A5,5,0,1,0,13,2Zm0,8a3,3,0,1,1,3-3A3,3,0,0,1,7,10ZM7,6A1,1,0,1,0,8,7,1,1,0,0,0,7,6Z" transform="translate(2 5)"/>
    </clipPath>
  </defs>
  <g id="Group_47" data-name="Group 47">
    <path id="Color-2" data-name="Color" d="M13,14H7A7,7,0,0,1,7,0h6a7,7,0,1,1,0,14ZM7,2A5,5,0,1,0,7,12h6A5,5,0,1,0,13,2Zm0,8a3,3,0,1,1,3-3A3,3,0,0,1,7,10ZM7,6A1,1,0,1,0,8,7,1,1,0,0,0,7,6Z" transform="translate(2 5)"/>
  </g>
</svg>
