<svg id="Icons_WiFi_On" data-name="Icons / WiFi / On" xmlns="http://www.w3.org/2000/svg" xmlns:xlink="http://www.w3.org/1999/xlink" width="24" height="24" viewBox="0 0 24 24">
  <defs>
    <clipPath id="clip-path">
      <path id="Color" d="M9.03,15a1,1,0,1,1,1,1A1,1,0,0,1,9.03,15Zm3.084-2.157a3.073,3.073,0,0,0-4.168,0A1,1,0,0,1,6.557,11.4a5,5,0,0,1,6.945,0,1,1,0,1,1-1.389,1.439Zm2.951-3.7a7,7,0,0,0-10.07,0,1,1,0,0,1-1.44-1.39,9,9,0,0,1,12.95,0,1,1,0,0,1-.026,1.414,1,1,0,0,1-1.414-.024ZM.28,5.343A1,1,0,0,1,.306,3.929a14,14,0,0,1,19.449,0,1,1,0,1,1-1.39,1.437,12,12,0,0,0-16.672,0A1,1,0,0,1,.28,5.343Z" transform="translate(1.97 4)"/>
    </clipPath>
  </defs>
  <g id="Group_117" data-name="Group 117">
    <path id="Color-2" data-name="Color" d="M9.03,15a1,1,0,1,1,1,1A1,1,0,0,1,9.03,15Zm3.084-2.157a3.073,3.073,0,0,0-4.168,0A1,1,0,0,1,6.557,11.4a5,5,0,0,1,6.945,0,1,1,0,1,1-1.389,1.439Zm2.951-3.7a7,7,0,0,0-10.07,0,1,1,0,0,1-1.44-1.39,9,9,0,0,1,12.95,0,1,1,0,0,1-.026,1.414,1,1,0,0,1-1.414-.024ZM.28,5.343A1,1,0,0,1,.306,3.929a14,14,0,0,1,19.449,0,1,1,0,1,1-1.39,1.437,12,12,0,0,0-16.672,0A1,1,0,0,1,.28,5.343Z" transform="translate(1.97 4)"/>
  </g>
</svg>
