<svg id="Icons_Question_Mark_Circle" data-name="Icons / Question / Mark Circle" xmlns="http://www.w3.org/2000/svg" xmlns:xlink="http://www.w3.org/1999/xlink" width="24" height="24" viewBox="0 0 24 24">
  <defs>
    <clipPath id="clip-path">
      <path id="Color" d="M10,20A10,10,0,1,1,20,10,10.011,10.011,0,0,1,10,20ZM10,2a8,8,0,1,0,8,8A8.009,8.009,0,0,0,10,2Zm0,14a1,1,0,1,1,1-1A1,1,0,0,1,10,16Zm0-3a1,1,0,0,1-1-1V10a1,1,0,0,1,1-1A1.5,1.5,0,1,0,8.5,7.5a1,1,0,0,1-2,0A3.5,3.5,0,1,1,11,10.837V12A1,1,0,0,1,10,13Z" transform="translate(2 2)"/>
    </clipPath>
  </defs>
  <g id="Group_11" data-name="Group 11">
    <path id="Color-2" data-name="Color" d="M10,20A10,10,0,1,1,20,10,10.011,10.011,0,0,1,10,20ZM10,2a8,8,0,1,0,8,8A8.009,8.009,0,0,0,10,2Zm0,14a1,1,0,1,1,1-1A1,1,0,0,1,10,16Zm0-3a1,1,0,0,1-1-1V10a1,1,0,0,1,1-1A1.5,1.5,0,1,0,8.5,7.5a1,1,0,0,1-2,0A3.5,3.5,0,1,1,11,10.837V12A1,1,0,0,1,10,13Z" transform="translate(2 2)"/>
  </g>
</svg>
