<svg id="Icons_Navigation_Navigation_1" data-name="Icons / Navigation / Navigation 1" xmlns="http://www.w3.org/2000/svg" xmlns:xlink="http://www.w3.org/1999/xlink" width="24" height="24" viewBox="0 0 24 24">
  <defs>
    <clipPath id="clip-path">
      <path id="Color" d="M17,17.956a1,1,0,0,1-.552-.166L9,12.857,1.553,17.789A1,1,0,0,1,.105,16.509l8-16a1.042,1.042,0,0,1,1.79,0l8,16a1,1,0,0,1-.9,1.447Zm-8-7.3a1,1,0,0,1,.553.166l4.88,3.231L9,3.191,3.569,14.054l4.88-3.231A1,1,0,0,1,9,10.658Z" transform="translate(3 3.045)"/>
    </clipPath>
  </defs>
  <g id="Group_122" data-name="Group 122">
    <path id="Color-2" data-name="Color" d="M17,17.956a1,1,0,0,1-.552-.166L9,12.857,1.553,17.789A1,1,0,0,1,.105,16.509l8-16a1.042,1.042,0,0,1,1.79,0l8,16a1,1,0,0,1-.9,1.447Zm-8-7.3a1,1,0,0,1,.553.166l4.88,3.231L9,3.191,3.569,14.054l4.88-3.231A1,1,0,0,1,9,10.658Z" transform="translate(3 3.045)"/>
  </g>
</svg>
