<svg id="Icons_Globe_Globe_2" data-name="Icons / Globe / Globe 2" xmlns="http://www.w3.org/2000/svg" xmlns:xlink="http://www.w3.org/1999/xlink" width="24" height="24" viewBox="0 0 24 24">
  <defs>
    <clipPath id="clip-path">
      <path id="Color" d="M10,20A10,10,0,1,1,20,10,10.011,10.011,0,0,1,10,20ZM2.962,13.8a7.995,7.995,0,0,0,10.144,3.573,2.268,2.268,0,0,0-.514-1.081l-.038-.058c-.117-.178-.237-.361-.345-.549-.989-1.719-.255-2.946.391-4.028l.1-.168a2.934,2.934,0,0,0,.287-1.464,7.351,7.351,0,0,1,.138-1.372c.4-1.846,2.4-2.33,3.865-2.533A8.005,8.005,0,0,0,13.664,2.9a4.617,4.617,0,0,1-1.417,1.866,8.486,8.486,0,0,1-.907.6l-.008.005-.006,0a2.9,2.9,0,0,0-1.113.912,4.751,4.751,0,0,0-.373,2.344c0,1.379,0,3.1-1.715,4.438a4.956,4.956,0,0,1-3.137,1.012A8.268,8.268,0,0,1,2.962,13.8ZM17.746,8.038c-.937.112-2.5.3-2.668,1.042a5.74,5.74,0,0,0-.093,1.012V10.1a4.688,4.688,0,0,1-.565,2.408l-.1.173c-.631,1.056-.765,1.331-.376,2.007.092.162.2.319.3.472l.016.025a6.2,6.2,0,0,1,.63,1.134,7.916,7.916,0,0,0,2.858-8.28ZM10,2a7.965,7.965,0,0,0-7.867,9.416,7.741,7.741,0,0,0,2.836.667,3.036,3.036,0,0,0,1.924-.6c.9-.707.948-1.508.948-2.863a6.52,6.52,0,0,1,.617-3.3,4.521,4.521,0,0,1,1.849-1.674l.044-.026a6.207,6.207,0,0,0,.662-.433,2.636,2.636,0,0,0,.774-.98A7.949,7.949,0,0,0,10,2Z" transform="translate(2 2)"/>
    </clipPath>
  </defs>
  <g id="Group_37" data-name="Group 37">
    <path id="Color-2" data-name="Color" d="M10,20A10,10,0,1,1,20,10,10.011,10.011,0,0,1,10,20ZM2.962,13.8a7.995,7.995,0,0,0,10.144,3.573,2.268,2.268,0,0,0-.514-1.081l-.038-.058c-.117-.178-.237-.361-.345-.549-.989-1.719-.255-2.946.391-4.028l.1-.168a2.934,2.934,0,0,0,.287-1.464,7.351,7.351,0,0,1,.138-1.372c.4-1.846,2.4-2.33,3.865-2.533A8.005,8.005,0,0,0,13.664,2.9a4.617,4.617,0,0,1-1.417,1.866,8.486,8.486,0,0,1-.907.6l-.008.005-.006,0a2.9,2.9,0,0,0-1.113.912,4.751,4.751,0,0,0-.373,2.344c0,1.379,0,3.1-1.715,4.438a4.956,4.956,0,0,1-3.137,1.012A8.268,8.268,0,0,1,2.962,13.8ZM17.746,8.038c-.937.112-2.5.3-2.668,1.042a5.74,5.74,0,0,0-.093,1.012V10.1a4.688,4.688,0,0,1-.565,2.408l-.1.173c-.631,1.056-.765,1.331-.376,2.007.092.162.2.319.3.472l.016.025a6.2,6.2,0,0,1,.63,1.134,7.916,7.916,0,0,0,2.858-8.28ZM10,2a7.965,7.965,0,0,0-7.867,9.416,7.741,7.741,0,0,0,2.836.667,3.036,3.036,0,0,0,1.924-.6c.9-.707.948-1.508.948-2.863a6.52,6.52,0,0,1,.617-3.3,4.521,4.521,0,0,1,1.849-1.674l.044-.026a6.207,6.207,0,0,0,.662-.433,2.636,2.636,0,0,0,.774-.98A7.949,7.949,0,0,0,10,2Z" transform="translate(2 2)"/>
  </g>
</svg>
