<svg id="Icons_Map" data-name="Icons / Map" xmlns="http://www.w3.org/2000/svg" xmlns:xlink="http://www.w3.org/1999/xlink" width="24" height="24" viewBox="0 0 24 24">
  <defs>
    <clipPath id="clip-path">
      <path id="Color" d="M17,15.993a.99.99,0,0,1-.41-.088L13,14.292,9.41,15.9a.076.076,0,0,1-.026.006.1.1,0,0,0-.022,0,.879.879,0,0,1-.725,0,.1.1,0,0,0-.022,0A.079.079,0,0,1,8.59,15.9L5,14.292,1.41,15.9A1,1,0,0,1,0,14.993V2.791a1,1,0,0,1,.59-.912l4-1.8A.116.116,0,0,1,4.614.073L4.635.067c.041-.014.083-.027.13-.039A.738.738,0,0,1,4.873.006,1.077,1.077,0,0,1,5,0a.856.856,0,0,1,.118.006A.744.744,0,0,1,5.24.029a1.217,1.217,0,0,1,.124.038l.021.006A.131.131,0,0,1,5.41.081L9,1.694,12.59.081a.1.1,0,0,1,.024-.008l.021-.006a1.337,1.337,0,0,1,.13-.039.738.738,0,0,1,.108-.022A1.077,1.077,0,0,1,13,0a.856.856,0,0,1,.118.006.765.765,0,0,1,.118.022,1.217,1.217,0,0,1,.124.038l.021.006a.131.131,0,0,1,.025.008l4,1.8a1,1,0,0,1,.59.912v12.2a1,1,0,0,1-1,1ZM14,2.539v10.01l2,.9V3.437Zm-2,0-2,.9v10.01l2-.9Zm-6,0v10.01l2,.9V3.437Zm-2,0-2,.9v10.01l2-.9Z" transform="translate(3 4.007)"/>
    </clipPath>
  </defs>
  <g id="Group_107" data-name="Group 107">
    <path id="Color-2" data-name="Color" d="M17,15.993a.99.99,0,0,1-.41-.088L13,14.292,9.41,15.9a.076.076,0,0,1-.026.006.1.1,0,0,0-.022,0,.879.879,0,0,1-.725,0,.1.1,0,0,0-.022,0A.079.079,0,0,1,8.59,15.9L5,14.292,1.41,15.9A1,1,0,0,1,0,14.993V2.791a1,1,0,0,1,.59-.912l4-1.8A.116.116,0,0,1,4.614.073L4.635.067c.041-.014.083-.027.13-.039A.738.738,0,0,1,4.873.006,1.077,1.077,0,0,1,5,0a.856.856,0,0,1,.118.006A.744.744,0,0,1,5.24.029a1.217,1.217,0,0,1,.124.038l.021.006A.131.131,0,0,1,5.41.081L9,1.694,12.59.081a.1.1,0,0,1,.024-.008l.021-.006a1.337,1.337,0,0,1,.13-.039.738.738,0,0,1,.108-.022A1.077,1.077,0,0,1,13,0a.856.856,0,0,1,.118.006.765.765,0,0,1,.118.022,1.217,1.217,0,0,1,.124.038l.021.006a.131.131,0,0,1,.025.008l4,1.8a1,1,0,0,1,.59.912v12.2a1,1,0,0,1-1,1ZM14,2.539v10.01l2,.9V3.437Zm-2,0-2,.9v10.01l2-.9Zm-6,0v10.01l2,.9V3.437Zm-2,0-2,.9v10.01l2-.9Z" transform="translate(3 4.007)"/>
  </g>
</svg>
