<svg id="Icons_Arrow_Arrow_2_Up" data-name="Icons / Arrow / Arrow 2 / Up" xmlns="http://www.w3.org/2000/svg" xmlns:xlink="http://www.w3.org/1999/xlink" width="24" height="24" viewBox="0 0 24 24">
  <defs>
    <clipPath id="clip-path">
      <path id="Color" d="M.232,6.64a1,1,0,0,0,1.408.128L6,3.135V15a1,1,0,0,0,2,0V3.135l4.36,3.633a1,1,0,0,0,1.28-1.536l-6-5A.956.956,0,0,0,7.485.143a.918.918,0,0,0-.122-.07.939.939,0,0,0-.726,0,.918.918,0,0,0-.122.07A.956.956,0,0,0,6.36.232l-6,5A1,1,0,0,0,.232,6.64" transform="translate(5 4)"/>
    </clipPath>
  </defs>
  <g id="Group_13" data-name="Group 13">
    <path id="Color-2" data-name="Color" d="M.232,6.64a1,1,0,0,0,1.408.128L6,3.135V15a1,1,0,0,0,2,0V3.135l4.36,3.633a1,1,0,0,0,1.28-1.536l-6-5A.956.956,0,0,0,7.485.143a.918.918,0,0,0-.122-.07.939.939,0,0,0-.726,0,.918.918,0,0,0-.122.07A.956.956,0,0,0,6.36.232l-6,5A1,1,0,0,0,.232,6.64" transform="translate(5 4)"/>
  </g>
</svg>
