<svg id="Icons_Arrow_Diagonal_Left_Up" data-name="Icons / Arrow / Diagonal / Left Up" xmlns="http://www.w3.org/2000/svg" xmlns:xlink="http://www.w3.org/1999/xlink" width="24" height="24" viewBox="0 0 24 24">
  <defs>
    <clipPath id="clip-path">
      <path id="Color" d="M11.707,10.293,3.418,2,9,2A1,1,0,0,0,9,0H9L1.049.006A1,1,0,0,0,.05,1L0,8.994A1,1,0,0,0,.994,10H1a1,1,0,0,0,1-.994l.035-5.557,8.258,8.258a1,1,0,0,0,1.414-1.414" transform="translate(6 6)"/>
    </clipPath>
  </defs>
  <g id="Group_127" data-name="Group 127">
    <path id="Color-2" data-name="Color" d="M11.707,10.293,3.418,2,9,2A1,1,0,0,0,9,0H9L1.049.006A1,1,0,0,0,.05,1L0,8.994A1,1,0,0,0,.994,10H1a1,1,0,0,0,1-.994l.035-5.557,8.258,8.258a1,1,0,0,0,1.414-1.414" transform="translate(6 6)"/>
  </g>
</svg>
