<svg id="Icons_Archive" data-name="Icons / Archive" xmlns="http://www.w3.org/2000/svg" xmlns:xlink="http://www.w3.org/1999/xlink" width="24" height="24" viewBox="0 0 24 24">
  <defs>
    <clipPath id="clip-path">
      <path id="Color" d="M14,18H4a3,3,0,0,1-3-3V5.22A2.989,2.989,0,0,1,3,0H15a2.989,2.989,0,0,1,2,5.22V15A3,3,0,0,1,14,18ZM3,6v9a1,1,0,0,0,1,1H14a1,1,0,0,0,1-1V6ZM3,2A1,1,0,1,0,3,4H15a1,1,0,0,0,0-2Zm8.134,9H6.866A.867.867,0,0,1,6,10.134V9.866A.867.867,0,0,1,6.866,9h4.268A.867.867,0,0,1,12,9.866v.268A.867.867,0,0,1,11.134,11Z" transform="translate(3 3)"/>
    </clipPath>
  </defs>
  <g id="Group_91" data-name="Group 91">
    <path id="Color-2" data-name="Color" d="M14,18H4a3,3,0,0,1-3-3V5.22A2.989,2.989,0,0,1,3,0H15a2.989,2.989,0,0,1,2,5.22V15A3,3,0,0,1,14,18ZM3,6v9a1,1,0,0,0,1,1H14a1,1,0,0,0,1-1V6ZM3,2A1,1,0,1,0,3,4H15a1,1,0,0,0,0-2Zm8.134,9H6.866A.867.867,0,0,1,6,10.134V9.866A.867.867,0,0,1,6.866,9h4.268A.867.867,0,0,1,12,9.866v.268A.867.867,0,0,1,11.134,11Z" transform="translate(3 3)"/>
  </g>
</svg>
