<svg id="Icons_Person_Delete" data-name="Icons / Person / Delete" xmlns="http://www.w3.org/2000/svg" width="24" height="24" viewBox="0 0 24 24">
  <path id="Color" d="M13,18a1,1,0,0,1-1-1A5,5,0,1,0,2,17a1,1,0,1,1-2,0,7,7,0,0,1,14,0A1,1,0,0,1,13,18ZM7,8a4,4,0,1,1,4-4A4.005,4.005,0,0,1,7,8ZM7,2A2,2,0,1,0,9,4,2,2,0,0,0,7,2ZM17.465,7a1.031,1.031,0,0,1-.733-.3L16,5.965l-.733.733A1.036,1.036,0,1,1,13.8,5.232l.733-.732L13.8,3.768a1.039,1.039,0,0,1,0-1.466,1.039,1.039,0,0,1,1.465,0L16,3.035l.732-.733A1.037,1.037,0,1,1,18.2,3.768l-.733.732.733.732A1.035,1.035,0,0,1,17.465,7Z" transform="translate(3 3)"/>
</svg>
