<svg id="Icons_Clipboard" data-name="Icons / Clipboard" xmlns="http://www.w3.org/2000/svg" xmlns:xlink="http://www.w3.org/1999/xlink" width="24" height="24" viewBox="0 0 24 24">
  <defs>
    <clipPath id="clip-path">
      <path id="Color" d="M15,20H3a3,3,0,0,1-3-3V6A3,3,0,0,1,3,3V2A2,2,0,0,1,5,0h8a2,2,0,0,1,2,2V3a3,3,0,0,1,3,3V17A3,3,0,0,1,15,20ZM3,5A1,1,0,0,0,2,6V17a1,1,0,0,0,1,1H15a1,1,0,0,0,1-1V6a1,1,0,0,0-1-1V6a2,2,0,0,1-2,2H5A2,2,0,0,1,3,6ZM5,2V6h8V2Z" transform="translate(3 2)"/>
    </clipPath>
  </defs>
  <g id="Group_65" data-name="Group 65">
    <path id="Color-2" data-name="Color" d="M15,20H3a3,3,0,0,1-3-3V6A3,3,0,0,1,3,3V2A2,2,0,0,1,5,0h8a2,2,0,0,1,2,2V3a3,3,0,0,1,3,3V17A3,3,0,0,1,15,20ZM3,5A1,1,0,0,0,2,6V17a1,1,0,0,0,1,1H15a1,1,0,0,0,1-1V6a1,1,0,0,0-1-1V6a2,2,0,0,1-2,2H5A2,2,0,0,1,3,6ZM5,2V6h8V2Z" transform="translate(3 2)"/>
  </g>
</svg>
