<svg id="Icons_Volume_Off" data-name="Icons / Volume / Off" xmlns="http://www.w3.org/2000/svg" xmlns:xlink="http://www.w3.org/1999/xlink" width="24" height="24" viewBox="0 0 24 24">
  <defs>
    <clipPath id="clip-path">
      <path id="Color" d="M17.793,17.708l-16-16A1,1,0,1,1,3.207.293l16,16a1,1,0,1,1-1.414,1.414Zm-5.358.119-6.412-4.4H1a1,1,0,0,1-1-1V5.572a1,1,0,0,1,1-1H3.243l2,2H2v4.856H6.333A1.011,1.011,0,0,1,6.9,11.6L12,15.1V13.329l2,2V17a1,1,0,0,1-1.565.826Zm5.287-4.432A6.531,6.531,0,0,0,19.5,9a6.789,6.789,0,0,0-2.638-5.229,1,1,0,0,1,1.275-1.543A8.759,8.759,0,0,1,21.5,9a8.513,8.513,0,0,1-2.363,5.809Zm-2.311-2.312a4.031,4.031,0,0,0-.19-4.455A1,1,0,0,1,16.78,5.374a5.971,5.971,0,0,1,.069,7.148ZM12,7.673V2.9L9.168,4.84,7.729,3.4,12.435.176A1,1,0,0,1,14,1V9.672Z" transform="translate(1.5 2.999)"/>
    </clipPath>
  </defs>
  <g id="Group_35" data-name="Group 35">
    <path id="Color-2" data-name="Color" d="M17.793,17.708l-16-16A1,1,0,1,1,3.207.293l16,16a1,1,0,1,1-1.414,1.414Zm-5.358.119-6.412-4.4H1a1,1,0,0,1-1-1V5.572a1,1,0,0,1,1-1H3.243l2,2H2v4.856H6.333A1.011,1.011,0,0,1,6.9,11.6L12,15.1V13.329l2,2V17a1,1,0,0,1-1.565.826Zm5.287-4.432A6.531,6.531,0,0,0,19.5,9a6.789,6.789,0,0,0-2.638-5.229,1,1,0,0,1,1.275-1.543A8.759,8.759,0,0,1,21.5,9a8.513,8.513,0,0,1-2.363,5.809Zm-2.311-2.312a4.031,4.031,0,0,0-.19-4.455A1,1,0,0,1,16.78,5.374a5.971,5.971,0,0,1,.069,7.148ZM12,7.673V2.9L9.168,4.84,7.729,3.4,12.435.176A1,1,0,0,1,14,1V9.672Z" transform="translate(1.5 2.999)"/>
  </g>
</svg>
