<svg id="Icons_Shield_On" data-name="Icons / Shield / On" xmlns="http://www.w3.org/2000/svg" xmlns:xlink="http://www.w3.org/1999/xlink" width="24" height="24" viewBox="0 0 24 24">
  <defs>
    <clipPath id="clip-path">
      <path id="Color" d="M9,19.7a2,2,0,0,1-.979-.255l-.3-.171A15.156,15.156,0,0,1,0,6.08V5.935A2.006,2.006,0,0,1,1.018,4.193l7-3.938a2.008,2.008,0,0,1,1.959,0l7,3.937A2.008,2.008,0,0,1,18,5.935V6.08a15.156,15.156,0,0,1-7.718,13.2l-.3.17A2,2,0,0,1,9,19.7ZM9,2,2,5.935V6.08A13.161,13.161,0,0,0,8.7,17.535l.3.17.3-.17A13.161,13.161,0,0,0,16,6.08V5.935L9,2Z" transform="translate(3 2.149)"/>
    </clipPath>
  </defs>
  <g id="Group_20" data-name="Group 20">
    <path id="Color-2" data-name="Color" d="M9,19.7a2,2,0,0,1-.979-.255l-.3-.171A15.156,15.156,0,0,1,0,6.08V5.935A2.006,2.006,0,0,1,1.018,4.193l7-3.938a2.008,2.008,0,0,1,1.959,0l7,3.937A2.008,2.008,0,0,1,18,5.935V6.08a15.156,15.156,0,0,1-7.718,13.2l-.3.17A2,2,0,0,1,9,19.7ZM9,2,2,5.935V6.08A13.161,13.161,0,0,0,8.7,17.535l.3.17.3-.17A13.161,13.161,0,0,0,16,6.08V5.935L9,2Z" transform="translate(3 2.149)"/>
  </g>
</svg>
