<svg id="Icons_Umbrella" data-name="Icons / Umbrella" xmlns="http://www.w3.org/2000/svg" xmlns:xlink="http://www.w3.org/1999/xlink" width="24" height="24" viewBox="0 0 24 24">
  <defs>
    <clipPath id="clip-path">
      <path id="Color" d="M12,20a3,3,0,0,1-3-3V11H1a1,1,0,0,1-1-1,10,10,0,1,1,20,0,1,1,0,0,1-1,1H11v6a1,1,0,0,0,2,0,1,1,0,0,1,2,0A3,3,0,0,1,12,20ZM10,2A8.009,8.009,0,0,0,2.063,9H17.938A8.01,8.01,0,0,0,10,2Z" transform="translate(2 2)"/>
    </clipPath>
  </defs>
  <g id="Group_63" data-name="Group 63">
    <path id="Color-2" data-name="Color" d="M12,20a3,3,0,0,1-3-3V11H1a1,1,0,0,1-1-1,10,10,0,1,1,20,0,1,1,0,0,1-1,1H11v6a1,1,0,0,0,2,0,1,1,0,0,1,2,0A3,3,0,0,1,12,20ZM10,2A8.009,8.009,0,0,0,2.063,9H17.938A8.01,8.01,0,0,0,10,2Z" transform="translate(2 2)"/>
  </g>
</svg>
