<svg id="Icons_Volume_Down" data-name="Icons / Volume / Down" xmlns="http://www.w3.org/2000/svg" width="24" height="24" viewBox="0 0 24 24">
  <path id="Color" d="M13,18a.989.989,0,0,1-.564-.175l-6.412-4.4H1a1,1,0,0,1-1-1V5.572a1,1,0,0,1,1-1H6.023l6.412-4.4A1,1,0,0,1,14,1V17a1,1,0,0,1-1,1ZM2,6.572v4.857H6.333A1.013,1.013,0,0,1,6.9,11.6L12,15.1V2.9L6.9,6.4a1.013,1.013,0,0,1-.566.175ZM17,13a1,1,0,0,1-.779-1.627,4.014,4.014,0,0,0,0-4.746A1,1,0,0,1,17,5a1,1,0,0,1,.779.373,5.972,5.972,0,0,1,0,7.254A.993.993,0,0,1,17,13Z" transform="translate(2 3)"/>
</svg>
