<svg id="Icons_Shuffle_Shuffle_1" data-name="Icons / Shuffle / Shuffle 1" xmlns="http://www.w3.org/2000/svg" xmlns:xlink="http://www.w3.org/1999/xlink" width="24" height="24" viewBox="0 0 24 24">
  <defs>
    <clipPath id="clip-path">
      <path id="Color" d="M14.92,15.984l-4.227,0a1,1,0,0,1,0-2h1.879L9.793,11.207a1,1,0,0,1,1.414-1.414l2.784,2.783.01-1.9a1,1,0,0,1,1-.994h0a1,1,0,0,1,1,1l-.021,4.208a.981.981,0,0,1-.273.814A1,1,0,0,1,15,16C14.973,16,14.947,15.987,14.92,15.984ZM.293,15.707a1,1,0,0,1,0-1.414L6.58,8.006.748,2.175A1,1,0,0,1,2.162.761l5.832,5.83,4.583-4.583L10.688,2a1,1,0,0,1-1-1A1.025,1.025,0,0,1,10.7,0L15,.021a1,1,0,0,1,1,1l0,4.287a1,1,0,0,1-1,1h0a1,1,0,0,1-1-1V3.415L1.707,15.707a1,1,0,0,1-1.414,0Z" transform="translate(4 4)"/>
    </clipPath>
  </defs>
  <g id="Group_130" data-name="Group 130">
    <path id="Color-2" data-name="Color" d="M14.92,15.984l-4.227,0a1,1,0,0,1,0-2h1.879L9.793,11.207a1,1,0,0,1,1.414-1.414l2.784,2.783.01-1.9a1,1,0,0,1,1-.994h0a1,1,0,0,1,1,1l-.021,4.208a.981.981,0,0,1-.273.814A1,1,0,0,1,15,16C14.973,16,14.947,15.987,14.92,15.984ZM.293,15.707a1,1,0,0,1,0-1.414L6.58,8.006.748,2.175A1,1,0,0,1,2.162.761l5.832,5.83,4.583-4.583L10.688,2a1,1,0,0,1-1-1A1.025,1.025,0,0,1,10.7,0L15,.021a1,1,0,0,1,1,1l0,4.287a1,1,0,0,1-1,1h0a1,1,0,0,1-1-1V3.415L1.707,15.707a1,1,0,0,1-1.414,0Z" transform="translate(4 4)"/>
  </g>
</svg>
