<svg id="Icons_Activity" data-name="Icons / Activity" xmlns="http://www.w3.org/2000/svg" xmlns:xlink="http://www.w3.org/1999/xlink" width="24" height="24" viewBox="0 0 24 24">
  <defs>
    <clipPath id="clip-path">
      <path id="Color" d="M12.329,16a2.038,2.038,0,0,1-.205-.01,1.98,1.98,0,0,1-1.76-1.583L7.681,2.017,4.918,8.4A1,1,0,0,1,4,9H1A1,1,0,1,1,1,7H3.344L5.85,1.213A1.957,1.957,0,0,1,7.876.011a1.98,1.98,0,0,1,1.76,1.583l2.683,12.392L15.082,7.6A1,1,0,0,1,16,7h3a1,1,0,1,1,0,2H16.656L14.15,14.79A1.968,1.968,0,0,1,12.329,16" transform="translate(2 3.999)"/>
    </clipPath>
  </defs>
  <g id="Group_103" data-name="Group 103">
    <path id="Color-2" data-name="Color" d="M12.329,16a2.038,2.038,0,0,1-.205-.01,1.98,1.98,0,0,1-1.76-1.583L7.681,2.017,4.918,8.4A1,1,0,0,1,4,9H1A1,1,0,1,1,1,7H3.344L5.85,1.213A1.957,1.957,0,0,1,7.876.011a1.98,1.98,0,0,1,1.76,1.583l2.683,12.392L15.082,7.6A1,1,0,0,1,16,7h3a1,1,0,1,1,0,2H16.656L14.15,14.79A1.968,1.968,0,0,1,12.329,16" transform="translate(2 3.999)"/>
  </g>
</svg>
