<svg id="Icons_Inbox" data-name="Icons / Inbox" xmlns="http://www.w3.org/2000/svg" xmlns:xlink="http://www.w3.org/1999/xlink" width="24" height="24" viewBox="0 0 24 24">
  <defs>
    <clipPath id="clip-path">
      <path id="Color" d="M15,18H3a3,3,0,0,1-3-3V9.236a2.014,2.014,0,0,1,.211-.894L3.553,1.658A2.984,2.984,0,0,1,6.236,0h5.528a2.984,2.984,0,0,1,2.683,1.658l3.343,6.684A2.014,2.014,0,0,1,18,9.236V15A3,3,0,0,1,15,18ZM2,10v5a1,1,0,0,0,1,1H15a1,1,0,0,0,1-1V10H14v3a1,1,0,0,1-1,1H5a1,1,0,0,1-1-1V10ZM6.236,2a.991.991,0,0,0-.894.553L2.618,8H5A1,1,0,0,1,6,9v3h6V9a1,1,0,0,1,1-1h2.382L12.658,2.553A.991.991,0,0,0,11.764,2Z" transform="translate(3 3)"/>
    </clipPath>
  </defs>
  <g id="Group_120" data-name="Group 120">
    <path id="Color-2" data-name="Color" d="M15,18H3a3,3,0,0,1-3-3V9.236a2.014,2.014,0,0,1,.211-.894L3.553,1.658A2.984,2.984,0,0,1,6.236,0h5.528a2.984,2.984,0,0,1,2.683,1.658l3.343,6.684A2.014,2.014,0,0,1,18,9.236V15A3,3,0,0,1,15,18ZM2,10v5a1,1,0,0,0,1,1H15a1,1,0,0,0,1-1V10H14v3a1,1,0,0,1-1,1H5a1,1,0,0,1-1-1V10ZM6.236,2a.991.991,0,0,0-.894.553L2.618,8H5A1,1,0,0,1,6,9v3h6V9a1,1,0,0,1,1-1h2.382L12.658,2.553A.991.991,0,0,0,11.764,2Z" transform="translate(3 3)"/>
  </g>
</svg>
