<svg id="Icons_Undo" data-name="Icons / Undo" xmlns="http://www.w3.org/2000/svg" xmlns:xlink="http://www.w3.org/1999/xlink" width="24" height="24" viewBox="0 0 24 24">
  <defs>
    <clipPath id="clip-path">
      <path id="Color" d="M17.721,17a1,1,0,0,1-.972-.762A8.945,8.945,0,0,0,8.954,9.554v1.121a1.8,1.8,0,0,1-1.094,1.64A2.051,2.051,0,0,1,7,12.5a2.006,2.006,0,0,1-1.32-.49L.618,7.586a1.752,1.752,0,0,1,0-2.671L5.684.491A2.006,2.006,0,0,1,7,0a2.051,2.051,0,0,1,.856.186,1.8,1.8,0,0,1,1.094,1.64V3.045a11.132,11.132,0,0,1,7.132,3.438,10.445,10.445,0,0,1,2.606,9.754A1,1,0,0,1,17.721,17ZM7.954,7.5a11.373,11.373,0,0,1,4.979,1.145,10.978,10.978,0,0,1,3.831,3.114A8.953,8.953,0,0,0,7.954,5a1,1,0,0,1-1-1V2.077L2.13,6.251l4.824,4.212V8.5A1,1,0,0,1,7.954,7.5Z" transform="translate(2.5 4)"/>
    </clipPath>
  </defs>
  <g id="Group_204" data-name="Group 204">
    <path id="Color-2" data-name="Color" d="M17.721,17a1,1,0,0,1-.972-.762A8.945,8.945,0,0,0,8.954,9.554v1.121a1.8,1.8,0,0,1-1.094,1.64A2.051,2.051,0,0,1,7,12.5a2.006,2.006,0,0,1-1.32-.49L.618,7.586a1.752,1.752,0,0,1,0-2.671L5.684.491A2.006,2.006,0,0,1,7,0a2.051,2.051,0,0,1,.856.186,1.8,1.8,0,0,1,1.094,1.64V3.045a11.132,11.132,0,0,1,7.132,3.438,10.445,10.445,0,0,1,2.606,9.754A1,1,0,0,1,17.721,17ZM7.954,7.5a11.373,11.373,0,0,1,4.979,1.145,10.978,10.978,0,0,1,3.831,3.114A8.953,8.953,0,0,0,7.954,5a1,1,0,0,1-1-1V2.077L2.13,6.251l4.824,4.212V8.5A1,1,0,0,1,7.954,7.5Z" transform="translate(2.5 4)"/>
  </g>
</svg>
