<svg id="Icons_Close_Close" data-name="Icons / Close / Close" xmlns="http://www.w3.org/2000/svg" xmlns:xlink="http://www.w3.org/1999/xlink" width="24" height="24" viewBox="0 0 24 24">
  <defs>
    <clipPath id="clip-path">
      <path id="Color" d="M7.414,6l4.293-4.293A1,1,0,1,0,10.293.293L6,4.586,1.707.293A1,1,0,0,0,.293,1.707L4.586,6,.293,10.293a1,1,0,1,0,1.414,1.414L6,7.414l4.293,4.293a1,1,0,0,0,1.414-1.414Z" transform="translate(6 6)"/>
    </clipPath>
  </defs>
  <g id="Group_73" data-name="Group 73">
    <path id="Color-2" data-name="Color" d="M7.414,6l4.293-4.293A1,1,0,1,0,10.293.293L6,4.586,1.707.293A1,1,0,0,0,.293,1.707L4.586,6,.293,10.293a1,1,0,1,0,1.414,1.414L6,7.414l4.293,4.293a1,1,0,0,0,1.414-1.414Z" transform="translate(6 6)"/>
  </g>
</svg>
