<svg id="Icons_Arrow_IOS_Down" data-name="Icons / Arrow / IOS / Down" xmlns="http://www.w3.org/2000/svg" xmlns:xlink="http://www.w3.org/1999/xlink" width="24" height="24" viewBox="0 0 24 24">
  <defs>
    <clipPath id="clip-path">
      <path id="Color" d="M7,7a.993.993,0,0,1-.64-.232l-6-5A1,1,0,1,1,1.64.231L7.011,4.707,12.373.392A1,1,0,0,1,13.627,1.95l-6,4.828A1,1,0,0,1,7,7" transform="translate(5 9.001)"/>
    </clipPath>
  </defs>
  <g id="Group_1" data-name="Group 1">
    <path id="Color-2" data-name="Color" d="M7,7a.993.993,0,0,1-.64-.232l-6-5A1,1,0,1,1,1.64.231L7.011,4.707,12.373.392A1,1,0,0,1,13.627,1.95l-6,4.828A1,1,0,0,1,7,7" transform="translate(5 9.001)"/>
  </g>
</svg>
