<svg id="Icons_Person_Persones" data-name="Icons / Person / Persones" xmlns="http://www.w3.org/2000/svg" width="24" height="24" viewBox="0 0 24 24">
  <path id="Color" d="M13,18a1,1,0,0,1-1-1A5,5,0,1,0,2,17a1,1,0,1,1-2,0,7,7,0,0,1,11.94-4.954A5,5,0,0,1,20,16a1,1,0,0,1-2,0,2.994,2.994,0,0,0-4.856-2.351A7,7,0,0,1,14,17,1,1,0,0,1,13,18Zm2-8a3,3,0,1,1,3-3A3,3,0,0,1,15,10Zm0-4a1,1,0,1,0,1,1A1,1,0,0,0,15,6ZM7,8a4,4,0,1,1,4-4A4.005,4.005,0,0,1,7,8ZM7,2A2,2,0,1,0,9,4,2,2,0,0,0,7,2Z" transform="translate(2 3)"/>
</svg>
