<svg id="Icons_Checkmark_Checkmark" data-name="Icons / Checkmark / Checkmark" xmlns="http://www.w3.org/2000/svg" xmlns:xlink="http://www.w3.org/1999/xlink" width="24" height="24" viewBox="0 0 24 24">
  <defs>
    <clipPath id="clip-path">
      <path id="Color" d="M5.863,12a1,1,0,0,1-.729-.315L.271,6.506A1,1,0,0,1,1.728,5.137L5.853,9.528l8.408-9.2a1,1,0,1,1,1.477,1.348l-9.137,10A1,1,0,0,1,5.87,12Z" transform="translate(4 6)"/>
    </clipPath>
  </defs>
  <g id="Group_116" data-name="Group 116">
    <path id="Color-2" data-name="Color" d="M5.863,12a1,1,0,0,1-.729-.315L.271,6.506A1,1,0,0,1,1.728,5.137L5.853,9.528l8.408-9.2a1,1,0,1,1,1.477,1.348l-9.137,10A1,1,0,0,1,5.87,12Z" transform="translate(4 6)"/>
  </g>
</svg>
