<svg id="Icons_Arrow_Circle_Left" data-name="Icons / Arrow / Circle / Left" xmlns="http://www.w3.org/2000/svg" xmlns:xlink="http://www.w3.org/1999/xlink" width="24" height="24" viewBox="0 0 24 24">
  <defs>
    <clipPath id="clip-path">
      <path id="Color" d="M10,20A10,10,0,1,1,20,10,10.011,10.011,0,0,1,10,20ZM10,2a8,8,0,1,0,8,8A8.009,8.009,0,0,0,10,2ZM9,14a.994.994,0,0,1-.707-.293l-3-3a1,1,0,0,1-.292-.7V10a.187.187,0,0,1,.01-.052.245.245,0,0,0,.009-.039.956.956,0,0,1,.057-.283.644.644,0,0,1,.086-.143l.028-.039c.012-.017.022-.035.031-.053a.385.385,0,0,1,.054-.082l2.863-3A1,1,0,1,1,9.586,7.69L8.336,9H14a1,1,0,1,1,0,2H8.414l1.293,1.293A1,1,0,0,1,9,14Z" transform="translate(2 2)"/>
    </clipPath>
  </defs>
  <g id="Group_52" data-name="Group 52">
    <path id="Color-2" data-name="Color" d="M10,20A10,10,0,1,1,20,10,10.011,10.011,0,0,1,10,20ZM10,2a8,8,0,1,0,8,8A8.009,8.009,0,0,0,10,2ZM9,14a.994.994,0,0,1-.707-.293l-3-3a1,1,0,0,1-.292-.7V10a.187.187,0,0,1,.01-.052.245.245,0,0,0,.009-.039.956.956,0,0,1,.057-.283.644.644,0,0,1,.086-.143l.028-.039c.012-.017.022-.035.031-.053a.385.385,0,0,1,.054-.082l2.863-3A1,1,0,1,1,9.586,7.69L8.336,9H14a1,1,0,1,1,0,2H8.414l1.293,1.293A1,1,0,0,1,9,14Z" transform="translate(2 2)"/>
  </g>
</svg>
