<svg id="Icons_Message_Square" data-name="Icons / Message / Square" xmlns="http://www.w3.org/2000/svg" xmlns:xlink="http://www.w3.org/1999/xlink" width="24" height="24" viewBox="0 0 24 24">
  <defs>
    <clipPath id="clip-path">
      <path id="Color" d="M1,19a1,1,0,0,1-1-1V3A3,3,0,0,1,3,0H17a3,3,0,0,1,3,3V13a3,3,0,0,1-3,3H6.554a.992.992,0,0,0-.515.143L1.515,18.857A.99.99,0,0,1,1,19ZM3,2A1,1,0,0,0,2,3V16.234l3.01-1.806A3,3,0,0,1,6.554,14H17a1,1,0,0,0,1-1V3a1,1,0,0,0-1-1ZM14,9a1,1,0,1,1,1-1A1,1,0,0,1,14,9ZM10,9a1,1,0,1,1,1-1A1,1,0,0,1,10,9ZM6,9A1,1,0,1,1,7,8,1,1,0,0,1,6,9Z" transform="translate(2 2)"/>
    </clipPath>
  </defs>
  <g id="Group_81" data-name="Group 81">
    <path id="Color-2" data-name="Color" d="M1,19a1,1,0,0,1-1-1V3A3,3,0,0,1,3,0H17a3,3,0,0,1,3,3V13a3,3,0,0,1-3,3H6.554a.992.992,0,0,0-.515.143L1.515,18.857A.99.99,0,0,1,1,19ZM3,2A1,1,0,0,0,2,3V16.234l3.01-1.806A3,3,0,0,1,6.554,14H17a1,1,0,0,0,1-1V3a1,1,0,0,0-1-1ZM14,9a1,1,0,1,1,1-1A1,1,0,0,1,14,9ZM10,9a1,1,0,1,1,1-1A1,1,0,0,1,10,9ZM6,9A1,1,0,1,1,7,8,1,1,0,0,1,6,9Z" transform="translate(2 2)"/>
  </g>
</svg>
