<svg id="Icons_At" data-name="Icons / At" xmlns="http://www.w3.org/2000/svg" xmlns:xlink="http://www.w3.org/1999/xlink" width="24" height="24" viewBox="0 0 24 24">
  <defs>
    <clipPath id="clip-path">
      <path id="Color" d="M10,20a10.082,10.082,0,0,1-4.069-.853A10,10,0,0,1,2.906,2.954,9.927,9.927,0,0,1,10,0c.316,0,.637.015.953.045A10.191,10.191,0,0,1,20,10.226V10.9a3.7,3.7,0,0,1-3.673,3.7c-.064,0-.129,0-.193-.005a3.635,3.635,0,0,1-2.828-1.635,5.1,5.1,0,1,1-.681-6.686A.985.985,0,0,1,13.6,5.4a1,1,0,0,1,1,1v4.324A1.817,1.817,0,0,0,16.222,12.6l.075,0A1.7,1.7,0,0,0,18,10.9v-.675a8.175,8.175,0,0,0-7.231-8.189C10.515,2.013,10.257,2,10,2A8,8,0,0,0,2.04,10.827a8.009,8.009,0,0,0,12.823,5.526,1,1,0,1,1,1.216,1.588A10.054,10.054,0,0,1,10,20ZM9.182,6.909A3.091,3.091,0,1,0,12.272,10,3.095,3.095,0,0,0,9.182,6.909Z" transform="translate(2 1.999)"/>
    </clipPath>
  </defs>
  <g id="Group_77" data-name="Group 77">
    <path id="Color-2" data-name="Color" d="M10,20a10.082,10.082,0,0,1-4.069-.853A10,10,0,0,1,2.906,2.954,9.927,9.927,0,0,1,10,0c.316,0,.637.015.953.045A10.191,10.191,0,0,1,20,10.226V10.9a3.7,3.7,0,0,1-3.673,3.7c-.064,0-.129,0-.193-.005a3.635,3.635,0,0,1-2.828-1.635,5.1,5.1,0,1,1-.681-6.686A.985.985,0,0,1,13.6,5.4a1,1,0,0,1,1,1v4.324A1.817,1.817,0,0,0,16.222,12.6l.075,0A1.7,1.7,0,0,0,18,10.9v-.675a8.175,8.175,0,0,0-7.231-8.189C10.515,2.013,10.257,2,10,2A8,8,0,0,0,2.04,10.827a8.009,8.009,0,0,0,12.823,5.526,1,1,0,1,1,1.216,1.588A10.054,10.054,0,0,1,10,20ZM9.182,6.909A3.091,3.091,0,1,0,12.272,10,3.095,3.095,0,0,0,9.182,6.909Z" transform="translate(2 1.999)"/>
  </g>
</svg>
