<svg id="Icons_Droplet_Off" data-name="Icons / Droplet / Off" xmlns="http://www.w3.org/2000/svg" xmlns:xlink="http://www.w3.org/1999/xlink" width="24" height="24" viewBox="0 0 24 24">
  <defs>
    <clipPath id="clip-path">
      <path id="Color" d="M16.294,17.708l-16-16A1,1,0,0,1,1.707.293l16,16a1,1,0,0,1-1.414,1.414ZM9,18a7.388,7.388,0,0,1-5.309-2.238,7.732,7.732,0,0,1-.7-9.94L4.425,7.254a5.728,5.728,0,0,0,.693,7.106A5.407,5.407,0,0,0,9,16H9a5.366,5.366,0,0,0,3.145-1.024l1.431,1.43A7.349,7.349,0,0,1,9,18Zm5.371-6.457a5.7,5.7,0,0,0-1.491-5.155L9,2.429l-1.85,1.89L5.732,2.9,8.282.3A1,1,0,0,1,9,0H9A1,1,0,0,1,9.71.3l4.6,4.688a7.73,7.73,0,0,1,1.67,8.164Z" transform="translate(3 3)"/>
    </clipPath>
  </defs>
  <g id="Group_113" data-name="Group 113">
    <path id="Color-2" data-name="Color" d="M16.294,17.708l-16-16A1,1,0,0,1,1.707.293l16,16a1,1,0,0,1-1.414,1.414ZM9,18a7.388,7.388,0,0,1-5.309-2.238,7.732,7.732,0,0,1-.7-9.94L4.425,7.254a5.728,5.728,0,0,0,.693,7.106A5.407,5.407,0,0,0,9,16H9a5.366,5.366,0,0,0,3.145-1.024l1.431,1.43A7.349,7.349,0,0,1,9,18Zm5.371-6.457a5.7,5.7,0,0,0-1.491-5.155L9,2.429l-1.85,1.89L5.732,2.9,8.282.3A1,1,0,0,1,9,0H9A1,1,0,0,1,9.71.3l4.6,4.688a7.73,7.73,0,0,1,1.67,8.164Z" transform="translate(3 3)"/>
  </g>
</svg>
