<svg id="Icons_Trending_Down" data-name="Icons / Trending / Down" xmlns="http://www.w3.org/2000/svg" xmlns:xlink="http://www.w3.org/1999/xlink" width="24" height="24" viewBox="0 0 24 24">
  <defs>
    <clipPath id="clip-path">
      <path id="Color" d="M18,6a1,1,0,0,0-2,0V8.3L11.759,3.349a1,1,0,0,0-1.274-.206L6.22,5.7,1.769.36A1,1,0,0,0,.231,1.64l5,6a1,1,0,0,0,1.284.217L10.79,5.292,14.826,10H12a1,1,0,0,0,0,2h5a.978.978,0,0,0,.364-.074,1.076,1.076,0,0,0,.132-.076.917.917,0,0,0,.154-.091c.01-.008.014-.02.023-.029a.94.94,0,0,0,.135-.172.926.926,0,0,0,.095-.142.881.881,0,0,0,.047-.169.9.9,0,0,0,.042-.21c0-.013.008-.024.008-.037Z" transform="translate(3 6)"/>
    </clipPath>
  </defs>
  <g id="Group_119" data-name="Group 119">
    <path id="Color-2" data-name="Color" d="M18,6a1,1,0,0,0-2,0V8.3L11.759,3.349a1,1,0,0,0-1.274-.206L6.22,5.7,1.769.36A1,1,0,0,0,.231,1.64l5,6a1,1,0,0,0,1.284.217L10.79,5.292,14.826,10H12a1,1,0,0,0,0,2h5a.978.978,0,0,0,.364-.074,1.076,1.076,0,0,0,.132-.076.917.917,0,0,0,.154-.091c.01-.008.014-.02.023-.029a.94.94,0,0,0,.135-.172.926.926,0,0,0,.095-.142.881.881,0,0,0,.047-.169.9.9,0,0,0,.042-.21c0-.013.008-.024.008-.037Z" transform="translate(3 6)"/>
  </g>
</svg>
