<svg id="Icons_Arrow_IOS_Right" data-name="Icons / Arrow / IOS / Right" xmlns="http://www.w3.org/2000/svg" xmlns:xlink="http://www.w3.org/1999/xlink" width="24" height="24" viewBox="0 0 24 24">
  <defs>
    <clipPath id="clip-path">
      <path id="Color" d="M1,14a1,1,0,0,1-.768-1.64L4.707,6.989.392,1.627A1,1,0,0,1,1.951.373l4.828,6A1,1,0,0,1,6.768,7.64l-5,6A1,1,0,0,1,1,14" transform="translate(9 5)"/>
    </clipPath>
  </defs>
  <g id="Group_3" data-name="Group 3">
    <path id="Color-2" data-name="Color" d="M1,14a1,1,0,0,1-.768-1.64L4.707,6.989.392,1.627A1,1,0,0,1,1.951.373l4.828,6A1,1,0,0,1,6.768,7.64l-5,6A1,1,0,0,1,1,14" transform="translate(9 5)"/>
  </g>
</svg>
