<svg id="Icons_Sync" data-name="Icons / Sync" xmlns="http://www.w3.org/2000/svg" xmlns:xlink="http://www.w3.org/1999/xlink" width="24" height="24" viewBox="0 0 24 24">
  <defs>
    <clipPath id="clip-path">
      <path id="Color" d="M2.353,13.212l-.37,1.972a1,1,0,0,1-1.966-.369l.75-4a1.043,1.043,0,0,1,.068-.171,1.028,1.028,0,0,1,.077-.189A.806.806,0,0,1,1,10.36a.967.967,0,0,1,.181-.183c.011-.008.026-.01.037-.017a.952.952,0,0,1,.316-.137.053.053,0,0,1,.021,0h.019a1.013,1.013,0,0,1,.338-.009l4.25.706A1,1,0,0,1,6,12.705a.923.923,0,0,1-.164-.014l-1.644-.272A7.172,7.172,0,0,0,10.43,16a7.09,7.09,0,0,0,6.643-4.375,1,1,0,1,1,1.853.75A9.079,9.079,0,0,1,10.43,18,9.162,9.162,0,0,1,2.353,13.212ZM19.086,7.986l-4.25-.7a1,1,0,1,1,.327-1.972l1.644.272A7.17,7.17,0,0,0,10.57,2,7.09,7.09,0,0,0,3.927,6.375a1,1,0,1,1-1.853-.75A9.08,9.08,0,0,1,10.57,0a9.16,9.16,0,0,1,8.078,4.788l.369-1.973a1,1,0,0,1,1.967.37l-.749,4a.954.954,0,0,1-.072.189.9.9,0,0,1-.05.133,1.129,1.129,0,0,1-.139.167c-.03.03-.05.067-.083.094a.975.975,0,0,1-.2.116.846.846,0,0,1-.1.054A.992.992,0,0,1,19.252,8,.943.943,0,0,1,19.086,7.986Z" transform="translate(1.5 3)"/>
    </clipPath>
  </defs>
  <g id="Group_123" data-name="Group 123">
    <path id="Color-2" data-name="Color" d="M2.353,13.212l-.37,1.972a1,1,0,0,1-1.966-.369l.75-4a1.043,1.043,0,0,1,.068-.171,1.028,1.028,0,0,1,.077-.189A.806.806,0,0,1,1,10.36a.967.967,0,0,1,.181-.183c.011-.008.026-.01.037-.017a.952.952,0,0,1,.316-.137.053.053,0,0,1,.021,0h.019a1.013,1.013,0,0,1,.338-.009l4.25.706A1,1,0,0,1,6,12.705a.923.923,0,0,1-.164-.014l-1.644-.272A7.172,7.172,0,0,0,10.43,16a7.09,7.09,0,0,0,6.643-4.375,1,1,0,1,1,1.853.75A9.079,9.079,0,0,1,10.43,18,9.162,9.162,0,0,1,2.353,13.212ZM19.086,7.986l-4.25-.7a1,1,0,1,1,.327-1.972l1.644.272A7.17,7.17,0,0,0,10.57,2,7.09,7.09,0,0,0,3.927,6.375a1,1,0,1,1-1.853-.75A9.08,9.08,0,0,1,10.57,0a9.16,9.16,0,0,1,8.078,4.788l.369-1.973a1,1,0,0,1,1.967.37l-.749,4a.954.954,0,0,1-.072.189.9.9,0,0,1-.05.133,1.129,1.129,0,0,1-.139.167c-.03.03-.05.067-.083.094a.975.975,0,0,1-.2.116.846.846,0,0,1-.1.054A.992.992,0,0,1,19.252,8,.943.943,0,0,1,19.086,7.986Z" transform="translate(1.5 3)"/>
  </g>
</svg>
