<svg id="Icons_Bulb" data-name="Icons / Bulb" xmlns="http://www.w3.org/2000/svg" width="24" height="24" viewBox="0 0 24 24">
  <path id="Color" d="M11,20H9a2,2,0,0,1-2-2V14a5,5,0,1,1,6,0v4A2,2,0,0,1,11,20ZM10,7a3,3,0,0,0-1.5,5.593,1,1,0,0,1,.5.868V18h2V13.46a1,1,0,0,1,.5-.868A3,3,0,0,0,10,7Zm9,4H17a1,1,0,0,1,0-2h2a1,1,0,0,1,0,2ZM3,11H1A1,1,0,1,1,1,9H3a1,1,0,1,1,0,2ZM15.035,6.138a1,1,0,0,1-.695-1.719L15.779,3.03a1,1,0,0,1,.7-.281,1,1,0,0,1,.693,1.717L15.73,5.857A1,1,0,0,1,15.035,6.138Zm-10.07,0a1,1,0,0,1-.7-.28L2.831,4.468a1,1,0,1,1,1.39-1.438L5.66,4.418a1,1,0,0,1,.024,1.414A.991.991,0,0,1,4.965,6.138ZM10,4A1,1,0,0,1,9,3V1a1,1,0,1,1,2,0V3A1,1,0,0,1,10,4Z" transform="translate(2 2)"/>
</svg>
