<svg id="Icons_Checkmark_Square" data-name="Icons / Checkmark / Square" xmlns="http://www.w3.org/2000/svg" xmlns:xlink="http://www.w3.org/1999/xlink" width="24" height="24" viewBox="0 0 24 24">
  <defs>
    <clipPath id="clip-path">
      <path id="Color" d="M15,18H3a3,3,0,0,1-3-3V3A3,3,0,0,1,3,0H15a3,3,0,0,1,3,3V15A3,3,0,0,1,15,18ZM3,2A1,1,0,0,0,2,3V15a1,1,0,0,0,1,1H15a1,1,0,0,0,1-1V3a1,1,0,0,0-1-1ZM7.939,13H7.932a1,1,0,0,1-.788-.383L4.712,9.509A1,1,0,1,1,6.287,8.277l1.634,2.086L11.7,5.395A1,1,0,1,1,13.3,6.605l-4.569,6A1,1,0,0,1,7.939,13Z" transform="translate(3 3)"/>
    </clipPath>
  </defs>
  <g id="Group_110" data-name="Group 110">
    <path id="Color-2" data-name="Color" d="M15,18H3a3,3,0,0,1-3-3V3A3,3,0,0,1,3,0H15a3,3,0,0,1,3,3V15A3,3,0,0,1,15,18ZM3,2A1,1,0,0,0,2,3V15a1,1,0,0,0,1,1H15a1,1,0,0,0,1-1V3a1,1,0,0,0-1-1ZM7.939,13H7.932a1,1,0,0,1-.788-.383L4.712,9.509A1,1,0,1,1,6.287,8.277l1.634,2.086L11.7,5.395A1,1,0,1,1,13.3,6.605l-4.569,6A1,1,0,0,1,7.939,13Z" transform="translate(3 3)"/>
  </g>
</svg>
