<svg id="Icons_Save" data-name="Icons / Save" xmlns="http://www.w3.org/2000/svg" xmlns:xlink="http://www.w3.org/1999/xlink" width="24" height="24" viewBox="0 0 24 24">
  <defs>
    <clipPath id="clip-path">
      <path id="Color" d="M15,18H3a3,3,0,0,1-3-3V3A3,3,0,0,1,3,0h7.172a2.978,2.978,0,0,1,2.121.879l4.828,4.828A2.982,2.982,0,0,1,18,7.829V15A3,3,0,0,1,15,18ZM3,2A1,1,0,0,0,2,3V15a1,1,0,0,0,1,1H5V13a1,1,0,0,1,1-1h6a1,1,0,0,1,1,1v3h2a1,1,0,0,0,1-1V7.829a1,1,0,0,0-.293-.708L10.879,2.293A1.011,1.011,0,0,0,10.172,2H7V6h3a1,1,0,0,1,0,2H6A1,1,0,0,1,5,7V2ZM7,14v2h4V14Z" transform="translate(3 3)"/>
    </clipPath>
  </defs>
  <g id="Group_18" data-name="Group 18">
    <path id="Color-2" data-name="Color" d="M15,18H3a3,3,0,0,1-3-3V3A3,3,0,0,1,3,0h7.172a2.978,2.978,0,0,1,2.121.879l4.828,4.828A2.982,2.982,0,0,1,18,7.829V15A3,3,0,0,1,15,18ZM3,2A1,1,0,0,0,2,3V15a1,1,0,0,0,1,1H5V13a1,1,0,0,1,1-1h6a1,1,0,0,1,1,1v3h2a1,1,0,0,0,1-1V7.829a1,1,0,0,0-.293-.708L10.879,2.293A1.011,1.011,0,0,0,10.172,2H7V6h3a1,1,0,0,1,0,2H6A1,1,0,0,1,5,7V2ZM7,14v2h4V14Z" transform="translate(3 3)"/>
  </g>
</svg>
