<svg id="Icons_List" data-name="Icons / List" xmlns="http://www.w3.org/2000/svg" xmlns:xlink="http://www.w3.org/1999/xlink" width="24" height="24" viewBox="0 0 24 24">
  <defs>
    <clipPath id="clip-path">
      <path id="Color" d="M4.936,12A.937.937,0,0,1,4,11.064v-.128A.938.938,0,0,1,4.936,10H17.065a.939.939,0,0,1,.936.936v.128a.938.938,0,0,1-.936.936ZM0,11a1,1,0,1,1,1,1A1,1,0,0,1,0,11ZM4.936,7A.938.938,0,0,1,4,6.064V5.936A.937.937,0,0,1,4.936,5H17.065A.938.938,0,0,1,18,5.936v.128A.939.939,0,0,1,17.065,7ZM0,6A1,1,0,1,1,1,7,1,1,0,0,1,0,6ZM4.936,2A.938.938,0,0,1,4,1.064V.936A.938.938,0,0,1,4.936,0H17.065A.939.939,0,0,1,18,.936v.128A.939.939,0,0,1,17.065,2ZM0,1A1,1,0,1,1,1,2,1,1,0,0,1,0,1Z" transform="translate(3 6)"/>
    </clipPath>
  </defs>
  <g id="Group_26" data-name="Group 26">
    <path id="Color-2" data-name="Color" d="M4.936,12A.937.937,0,0,1,4,11.064v-.128A.938.938,0,0,1,4.936,10H17.065a.939.939,0,0,1,.936.936v.128a.938.938,0,0,1-.936.936ZM0,11a1,1,0,1,1,1,1A1,1,0,0,1,0,11ZM4.936,7A.938.938,0,0,1,4,6.064V5.936A.937.937,0,0,1,4.936,5H17.065A.938.938,0,0,1,18,5.936v.128A.939.939,0,0,1,17.065,7ZM0,6A1,1,0,1,1,1,7,1,1,0,0,1,0,6ZM4.936,2A.938.938,0,0,1,4,1.064V.936A.938.938,0,0,1,4.936,0H17.065A.939.939,0,0,1,18,.936v.128A.939.939,0,0,1,17.065,2ZM0,1A1,1,0,1,1,1,2,1,1,0,0,1,0,1Z" transform="translate(3 6)"/>
  </g>
</svg>
