<svg id="Icons_Arrow_Arrowhead_Left" data-name="Icons / Arrow / Arrowhead / Left" xmlns="http://www.w3.org/2000/svg" xmlns:xlink="http://www.w3.org/1999/xlink" width="24" height="24" viewBox="0 0 24 24">
  <defs>
    <clipPath id="clip-path">
      <path id="Color" d="M12.048,13.627l-4.828-6a1,1,0,0,1,.011-1.267l5-6a1,1,0,0,1,1.537,1.28L9.293,7.011l4.315,5.362a1,1,0,0,1-1.559,1.254Zm-7,0-4.828-6A1,1,0,0,1,.232,6.359l5-6A1,1,0,1,1,6.768,1.64L2.292,7.01l4.315,5.362a1,1,0,0,1-1.558,1.255Z" transform="translate(5 5)"/>
    </clipPath>
  </defs>
  <g id="Group_27" data-name="Group 27">
    <path id="Color-2" data-name="Color" d="M12.048,13.627l-4.828-6a1,1,0,0,1,.011-1.267l5-6a1,1,0,0,1,1.537,1.28L9.293,7.011l4.315,5.362a1,1,0,0,1-1.559,1.254Zm-7,0-4.828-6A1,1,0,0,1,.232,6.359l5-6A1,1,0,1,1,6.768,1.64L2.292,7.01l4.315,5.362a1,1,0,0,1-1.558,1.255Z" transform="translate(5 5)"/>
  </g>
</svg>
