<svg id="Icons_Person_Person" data-name="Icons / Person / Person" xmlns="http://www.w3.org/2000/svg" width="24" height="24" viewBox="0 0 24 24">
  <path id="Color" d="M13.928,20a1.093,1.093,0,0,1-1.071-1.111A5.466,5.466,0,0,0,7.5,13.333a5.465,5.465,0,0,0-5.357,5.556A1.093,1.093,0,0,1,1.071,20,1.093,1.093,0,0,1,0,18.889a7.651,7.651,0,0,1,7.5-7.778A7.652,7.652,0,0,1,15,18.889,1.093,1.093,0,0,1,13.928,20ZM7.5,8.889A4.373,4.373,0,0,1,3.214,4.444,4.372,4.372,0,0,1,7.5,0a4.372,4.372,0,0,1,4.286,4.444A4.373,4.373,0,0,1,7.5,8.889Zm0-6.667A2.186,2.186,0,0,0,5.357,4.444,2.186,2.186,0,0,0,7.5,6.666,2.186,2.186,0,0,0,9.643,4.444,2.186,2.186,0,0,0,7.5,2.222Z" transform="translate(4 2)"/>
</svg>
