<svg id="Icons_Pricetag" data-name="Icons / Pricetag" xmlns="http://www.w3.org/2000/svg" xmlns:xlink="http://www.w3.org/1999/xlink" width="24" height="24" viewBox="0 0 24 24">
  <defs>
    <style>
      .cls-1 {
        fill: #0df205;
      }

      .cls-2 {
        clip-path: url(#clip-path);
      }
    </style>
    <clipPath id="clip-path">
      <path id="Color" class="cls-1" d="M8.866,18a1.808,1.808,0,0,1-1.283-.53L1.166,11.051a.994.994,0,0,1-.289-.614L0,1.093a1,1,0,0,1,.289-.8.982.982,0,0,1,.8-.288l9.344.871a1,1,0,0,1,.614.288l6.417,6.417a1.819,1.819,0,0,1,0,2.57l-7.317,7.316A1.805,1.805,0,0,1,8.866,18ZM2.107,2.108l.727,7.784,6.032,6.033,7.059-7.058L9.892,2.834ZM6.5,8a1.5,1.5,0,1,1,1.061-.439A1.49,1.49,0,0,1,6.5,8Z" transform="translate(3 3)"/>
    </clipPath>
  </defs>
  <g id="Group_105" data-name="Group 105">
    <path id="Color-2" data-name="Color" class="cls-1" d="M8.866,18a1.808,1.808,0,0,1-1.283-.53L1.166,11.051a.994.994,0,0,1-.289-.614L0,1.093a1,1,0,0,1,.289-.8.982.982,0,0,1,.8-.288l9.344.871a1,1,0,0,1,.614.288l6.417,6.417a1.819,1.819,0,0,1,0,2.57l-7.317,7.316A1.805,1.805,0,0,1,8.866,18ZM2.107,2.108l.727,7.784,6.032,6.033,7.059-7.058L9.892,2.834ZM6.5,8a1.5,1.5,0,1,1,1.061-.439A1.49,1.49,0,0,1,6.5,8Z" transform="translate(3 3)"/>
  </g>
</svg>
