<svg id="Icons_Award" data-name="Icons / Award" xmlns="http://www.w3.org/2000/svg" xmlns:xlink="http://www.w3.org/1999/xlink" width="24" height="24" viewBox="0 0 24 24">
  <defs>
    <clipPath id="clip-path">
      <path id="Color" d="M13,20a.993.993,0,0,1-.484-.125l-5.68-3.142-5.33,3.129A1.013,1.013,0,0,1,1,20a.987.987,0,0,1-.6-.2,1,1,0,0,1-.367-1.048L2.34,9.772a6,6,0,1,1,9.319,0l2.309,8.978a1,1,0,0,1-.356,1.04A1.01,1.01,0,0,1,13,20Zm-6.18-5.419a1.01,1.01,0,0,1,.486.126L11.453,17,9.965,11.21a5.962,5.962,0,0,1-5.929,0L2.568,16.92l3.748-2.2A.981.981,0,0,1,6.819,14.581ZM7,2a4,4,0,1,0,4,4A4,4,0,0,0,7,2Z" transform="translate(5 2)"/>
    </clipPath>
  </defs>
  <g id="Group_10" data-name="Group 10">
    <path id="Color-2" data-name="Color" d="M13,20a.993.993,0,0,1-.484-.125l-5.68-3.142-5.33,3.129A1.013,1.013,0,0,1,1,20a.987.987,0,0,1-.6-.2,1,1,0,0,1-.367-1.048L2.34,9.772a6,6,0,1,1,9.319,0l2.309,8.978a1,1,0,0,1-.356,1.04A1.01,1.01,0,0,1,13,20Zm-6.18-5.419a1.01,1.01,0,0,1,.486.126L11.453,17,9.965,11.21a5.962,5.962,0,0,1-5.929,0L2.568,16.92l3.748-2.2A.981.981,0,0,1,6.819,14.581ZM7,2a4,4,0,1,0,4,4A4,4,0,0,0,7,2Z" transform="translate(5 2)"/>
  </g>
</svg>
