<svg id="Icons_Arrow_Circle_Up" data-name="Icons / Arrow / Circle / Up" xmlns="http://www.w3.org/2000/svg" xmlns:xlink="http://www.w3.org/1999/xlink" width="24" height="24" viewBox="0 0 24 24">
  <defs>
    <clipPath id="clip-path">
      <path id="Color" d="M10,20A10,10,0,1,1,20,10,10.011,10.011,0,0,1,10,20ZM10,2a8,8,0,1,0,8,8A8.009,8.009,0,0,0,10,2Zm0,13a1,1,0,0,1-1-1V8.337L7.69,9.586A1,1,0,0,1,6.31,8.139l3-2.862a.363.363,0,0,1,.077-.052.53.53,0,0,0,.054-.033l.045-.032a.725.725,0,0,1,.141-.085A1.02,1.02,0,0,1,9.9,5.02a.277.277,0,0,0,.046-.01A.211.211,0,0,1,10,5h.006a.965.965,0,0,1,.38.077.95.95,0,0,1,.322.215l3,3a1,1,0,0,1-1.416,1.414L11,8.414V14A1,1,0,0,1,10,15Z" transform="translate(2 2)"/>
    </clipPath>
  </defs>
  <g id="Group_67" data-name="Group 67">
    <path id="Color-2" data-name="Color" d="M10,20A10,10,0,1,1,20,10,10.011,10.011,0,0,1,10,20ZM10,2a8,8,0,1,0,8,8A8.009,8.009,0,0,0,10,2Zm0,13a1,1,0,0,1-1-1V8.337L7.69,9.586A1,1,0,0,1,6.31,8.139l3-2.862a.363.363,0,0,1,.077-.052.53.53,0,0,0,.054-.033l.045-.032a.725.725,0,0,1,.141-.085A1.02,1.02,0,0,1,9.9,5.02a.277.277,0,0,0,.046-.01A.211.211,0,0,1,10,5h.006a.965.965,0,0,1,.38.077.95.95,0,0,1,.322.215l3,3a1,1,0,0,1-1.416,1.414L11,8.414V14A1,1,0,0,1,10,15Z" transform="translate(2 2)"/>
  </g>
</svg>
