<svg id="Icons_Plus_Square" data-name="Icons / Plus / Square" xmlns="http://www.w3.org/2000/svg" xmlns:xlink="http://www.w3.org/1999/xlink" width="24" height="24" viewBox="0 0 24 24">
  <defs>
    <clipPath id="clip-path">
      <path id="Color" d="M15,18H3a3,3,0,0,1-3-3V3A3,3,0,0,1,3,0H15a3,3,0,0,1,3,3V15A3,3,0,0,1,15,18ZM3,2A1,1,0,0,0,2,3V15a1,1,0,0,0,1,1H15a1,1,0,0,0,1-1V3a1,1,0,0,0-1-1ZM9,13a1,1,0,0,1-1-1V10H6A1,1,0,0,1,6,8H8V6a1,1,0,0,1,2,0V8h2a1,1,0,1,1,0,2H10v2A1,1,0,0,1,9,13Z" transform="translate(3 3)"/>
    </clipPath>
  </defs>
  <g id="Group_173" data-name="Group 173">
    <path id="Color-2" data-name="Color" d="M15,18H3a3,3,0,0,1-3-3V3A3,3,0,0,1,3,0H15a3,3,0,0,1,3,3V15A3,3,0,0,1,15,18ZM3,2A1,1,0,0,0,2,3V15a1,1,0,0,0,1,1H15a1,1,0,0,0,1-1V3a1,1,0,0,0-1-1ZM9,13a1,1,0,0,1-1-1V10H6A1,1,0,0,1,6,8H8V6a1,1,0,0,1,2,0V8h2a1,1,0,1,1,0,2H10v2A1,1,0,0,1,9,13Z" transform="translate(3 3)"/>
  </g>
</svg>
