<svg id="Icons_Percent" data-name="Icons / Percent" xmlns="http://www.w3.org/2000/svg" xmlns:xlink="http://www.w3.org/1999/xlink" width="24" height="24" viewBox="0 0 24 24">
  <defs>
    <clipPath id="clip-path">
      <path id="Color" d="M12,17a3.5,3.5,0,1,1,3.5-3.5A3.5,3.5,0,0,1,12,17Zm0-5a1.5,1.5,0,1,0,1.5,1.5A1.5,1.5,0,0,0,12,12ZM.889,16a.888.888,0,0,1-.628-1.517L14.483.261a.887.887,0,0,1,1.257,0,.892.892,0,0,1,0,1.257L1.518,15.74A.886.886,0,0,1,.889,16ZM4,7A3.5,3.5,0,1,1,7.5,3.5,3.5,3.5,0,0,1,4,7ZM4,2A1.5,1.5,0,1,0,5.5,3.5,1.5,1.5,0,0,0,4,2Z" transform="translate(4 4)"/>
    </clipPath>
  </defs>
  <g id="Group_137" data-name="Group 137">
    <path id="Color-2" data-name="Color" d="M12,17a3.5,3.5,0,1,1,3.5-3.5A3.5,3.5,0,0,1,12,17Zm0-5a1.5,1.5,0,1,0,1.5,1.5A1.5,1.5,0,0,0,12,12ZM.889,16a.888.888,0,0,1-.628-1.517L14.483.261a.887.887,0,0,1,1.257,0,.892.892,0,0,1,0,1.257L1.518,15.74A.886.886,0,0,1,.889,16ZM4,7A3.5,3.5,0,1,1,7.5,3.5,3.5,3.5,0,0,1,4,7ZM4,2A1.5,1.5,0,1,0,5.5,3.5,1.5,1.5,0,0,0,4,2Z" transform="translate(4 4)"/>
  </g>
</svg>
