<svg id="Icons_Options_Options_1" data-name="Icons / Options / Options 1" xmlns="http://www.w3.org/2000/svg" xmlns:xlink="http://www.w3.org/1999/xlink" width="24" height="24" viewBox="0 0 24 24">
  <defs>
    <clipPath id="clip-path">
      <path id="Color" d="M15,20a1,1,0,0,1-1-1V13.815a2.981,2.981,0,0,1,0-5.63V1a1,1,0,0,1,2,0V8.185a2.981,2.981,0,0,1,0,5.63V19A1,1,0,0,1,15,20Zm0-10a1,1,0,1,0,1,1A1,1,0,0,0,15,10ZM9,20a1,1,0,0,1-1-1V5.815a3,3,0,1,1,2,0V19A1,1,0,0,1,9,20ZM9,2a1,1,0,1,0,1,1A1,1,0,0,0,9,2ZM3,20a1,1,0,0,1-1-1V17.815a2.981,2.981,0,0,1,0-5.63V1A1,1,0,1,1,4,1V12.185a2.98,2.98,0,0,1,0,5.63V19A1,1,0,0,1,3,20Zm0-6a1,1,0,1,0,1,1A1,1,0,0,0,3,14Z" transform="translate(3 2)"/>
    </clipPath>
  </defs>
  <g id="Group_85" data-name="Group 85">
    <path id="Color-2" data-name="Color" d="M15,20a1,1,0,0,1-1-1V13.815a2.981,2.981,0,0,1,0-5.63V1a1,1,0,0,1,2,0V8.185a2.981,2.981,0,0,1,0,5.63V19A1,1,0,0,1,15,20Zm0-10a1,1,0,1,0,1,1A1,1,0,0,0,15,10ZM9,20a1,1,0,0,1-1-1V5.815a3,3,0,1,1,2,0V19A1,1,0,0,1,9,20ZM9,2a1,1,0,1,0,1,1A1,1,0,0,0,9,2ZM3,20a1,1,0,0,1-1-1V17.815a2.981,2.981,0,0,1,0-5.63V1A1,1,0,1,1,4,1V12.185a2.98,2.98,0,0,1,0,5.63V19A1,1,0,0,1,3,20Zm0-6a1,1,0,1,0,1,1A1,1,0,0,0,3,14Z" transform="translate(3 2)"/>
  </g>
</svg>
