<svg id="Icons_Menu_Menu_2" data-name="Icons / Menu / Menu 2" xmlns="http://www.w3.org/2000/svg" xmlns:xlink="http://www.w3.org/1999/xlink" width="24" height="24" viewBox="0 0 24 24">
  <defs>
    <clipPath id="clip-path">
      <path id="Color" d="M.948,12A.95.95,0,0,1,0,11.051v-.1A.951.951,0,0,1,.948,10h16.1a.952.952,0,0,1,.949.95v.1a.951.951,0,0,1-.949.949Zm0-5A.951.951,0,0,1,0,6.051v-.1A.95.95,0,0,1,.948,5h16.1A.951.951,0,0,1,18,5.949v.1a.952.952,0,0,1-.949.95Zm0-5A.95.95,0,0,1,0,1.051v-.1A.95.95,0,0,1,.948,0h16.1A.951.951,0,0,1,18,.949v.1A.951.951,0,0,1,17.051,2Z" transform="translate(3 6)"/>
    </clipPath>
  </defs>
  <g id="Group_39" data-name="Group 39">
    <path id="Color-2" data-name="Color" d="M.948,12A.95.95,0,0,1,0,11.051v-.1A.951.951,0,0,1,.948,10h16.1a.952.952,0,0,1,.949.95v.1a.951.951,0,0,1-.949.949Zm0-5A.951.951,0,0,1,0,6.051v-.1A.95.95,0,0,1,.948,5h16.1A.951.951,0,0,1,18,5.949v.1a.952.952,0,0,1-.949.95Zm0-5A.95.95,0,0,1,0,1.051v-.1A.95.95,0,0,1,.948,0h16.1A.951.951,0,0,1,18,.949v.1A.951.951,0,0,1,17.051,2Z" transform="translate(3 6)"/>
  </g>
</svg>
