<svg id="Icons_Edit_Edit_1" data-name="Icons / Edit / Edit 1" xmlns="http://www.w3.org/2000/svg" xmlns:xlink="http://www.w3.org/1999/xlink" width="24" height="24" viewBox="0 0 24 24">
  <defs>
    <clipPath id="clip-path">
      <path id="Color" d="M1,15.978a1,1,0,0,1-1-1.09l.379-4.17A1.975,1.975,0,0,1,.953,9.5l9-9A1.8,1.8,0,0,1,11.238,0a2.028,2.028,0,0,1,1.427.577L15.4,3.315a1.927,1.927,0,0,1,.069,2.715l-9,9a1.971,1.971,0,0,1-1.214.568l-4.17.38C1.064,15.977,1.034,15.978,1,15.978ZM7.984,5.3h0L2.367,10.918,2.1,13.874,5.08,13.6,10.68,8l-2.7-2.7Zm3.288-3.289h0L9.324,3.962l2.695,2.695,1.948-1.949L11.272,2.012Z" transform="translate(4 4.022)"/>
    </clipPath>
  </defs>
  <g id="Group_16" data-name="Group 16">
    <path id="Color-2" data-name="Color" d="M1,15.978a1,1,0,0,1-1-1.09l.379-4.17A1.975,1.975,0,0,1,.953,9.5l9-9A1.8,1.8,0,0,1,11.238,0a2.028,2.028,0,0,1,1.427.577L15.4,3.315a1.927,1.927,0,0,1,.069,2.715l-9,9a1.971,1.971,0,0,1-1.214.568l-4.17.38C1.064,15.977,1.034,15.978,1,15.978ZM7.984,5.3h0L2.367,10.918,2.1,13.874,5.08,13.6,10.68,8l-2.7-2.7Zm3.288-3.289h0L9.324,3.962l2.695,2.695,1.948-1.949L11.272,2.012Z" transform="translate(4 4.022)"/>
  </g>
</svg>
