<svg id="Icons_Speaker" data-name="Icons / Speaker" xmlns="http://www.w3.org/2000/svg" xmlns:xlink="http://www.w3.org/1999/xlink" width="24" height="24" viewBox="0 0 24 24">
  <defs>
    <clipPath id="clip-path">
      <path id="Color" d="M13,20H3a3,3,0,0,1-3-3V3A3,3,0,0,1,3,0H13a3,3,0,0,1,3,3V17A3,3,0,0,1,13,20ZM3,2A1,1,0,0,0,2,3V17a1,1,0,0,0,1,1H13a1,1,0,0,0,1-1V3a1,1,0,0,0-1-1ZM8,17a3.5,3.5,0,1,1,3.5-3.5A3.5,3.5,0,0,1,8,17Zm0-5a1.5,1.5,0,1,0,1.5,1.5A1.5,1.5,0,0,0,8,12ZM8,9a3,3,0,1,1,3-3A3,3,0,0,1,8,9ZM8,5A1,1,0,1,0,9,6,1,1,0,0,0,8,5Z" transform="translate(4 2)"/>
    </clipPath>
  </defs>
  <g id="Group_46" data-name="Group 46">
    <path id="Color-2" data-name="Color" d="M13,20H3a3,3,0,0,1-3-3V3A3,3,0,0,1,3,0H13a3,3,0,0,1,3,3V17A3,3,0,0,1,13,20ZM3,2A1,1,0,0,0,2,3V17a1,1,0,0,0,1,1H13a1,1,0,0,0,1-1V3a1,1,0,0,0-1-1ZM8,17a3.5,3.5,0,1,1,3.5-3.5A3.5,3.5,0,0,1,8,17Zm0-5a1.5,1.5,0,1,0,1.5,1.5A1.5,1.5,0,0,0,8,12ZM8,9a3,3,0,1,1,3-3A3,3,0,0,1,8,9ZM8,5A1,1,0,1,0,9,6,1,1,0,0,0,8,5Z" transform="translate(4 2)"/>
  </g>
</svg>
