<svg id="Icons_Bell_Off" data-name="Icons / Bell / Off" xmlns="http://www.w3.org/2000/svg" width="24" height="24" viewBox="0 0 24 24">
  <path id="Color" d="M9,20a3.845,3.845,0,0,1-4-3.659V16H1.637A1.637,1.637,0,0,1,.479,13.207l1.8-1.8V6.726c0-.2.015-.4.031-.587L4.28,8.107v3.3a1.987,1.987,0,0,1-.586,1.414L2.516,14h7.657l.857.858L12.173,16l.778.779A3.883,3.883,0,0,1,9,20ZM7,16v.34A1.879,1.879,0,0,0,9,18a1.88,1.88,0,0,0,2-1.66V16Zm10,3a.99.99,0,0,1-.707-.293L13.586,16,13,15.413l-1.345-1.345L11.587,14l-7.3-7.3L2.532,4.945.293,2.706A1,1,0,1,1,1.707,1.292L3.42,3.005,4.886,4.47,14.414,14l1.993,1.994,1.3,1.3A1,1,0,0,1,17,19Zm.42-3.409h0l-3.6-3.6a2.035,2.035,0,0,1-.095-.583V6.936a4.854,4.854,0,0,0-4.082-4.9A4.965,4.965,0,0,0,8.993,2,4.631,4.631,0,0,0,5.9,3.17a3.512,3.512,0,0,0-.351.374l-.081.1L4.036,2.206a6.791,6.791,0,0,1,.548-.54A6.72,6.72,0,0,1,9.9.059,6.858,6.858,0,0,1,15.72,6.936V11.4l1.8,1.8a1.628,1.628,0,0,1,.353,1.783,1.6,1.6,0,0,1-.452.6Z" transform="translate(3 2)"/>
</svg>
