<svg id="Icons_Swap" data-name="Icons / Swap" xmlns="http://www.w3.org/2000/svg" xmlns:xlink="http://www.w3.org/1999/xlink" width="24" height="24" viewBox="0 0 24 24">
  <defs>
    <clipPath id="clip-path">
      <path id="Color" d="M4.249,16.79l-3.862-3A1,1,0,0,1,.4,12.2l4-3a1,1,0,0,1,1.2,1.6L4,12H17a1,1,0,0,1,0,2H3.918l1.558,1.21a1,1,0,0,1-1.227,1.58ZM12.2,7.6a1,1,0,0,1,.2-1.4L14,5H1A1,1,0,1,1,1,3H14.082L12.524,1.79A1,1,0,1,1,13.751.211l3.862,3A1,1,0,0,1,17.6,4.8l-4,3a1,1,0,0,1-1.4-.2Z" transform="translate(3 3)"/>
    </clipPath>
  </defs>
  <g id="Group_89" data-name="Group 89">
    <path id="Color-2" data-name="Color" d="M4.249,16.79l-3.862-3A1,1,0,0,1,.4,12.2l4-3a1,1,0,0,1,1.2,1.6L4,12H17a1,1,0,0,1,0,2H3.918l1.558,1.21a1,1,0,0,1-1.227,1.58ZM12.2,7.6a1,1,0,0,1,.2-1.4L14,5H1A1,1,0,1,1,1,3H14.082L12.524,1.79A1,1,0,1,1,13.751.211l3.862,3A1,1,0,0,1,17.6,4.8l-4,3a1,1,0,0,1-1.4-.2Z" transform="translate(3 3)"/>
  </g>
</svg>
