<svg id="Icons_Bluetooth" data-name="Icons / Bluetooth" xmlns="http://www.w3.org/2000/svg" xmlns:xlink="http://www.w3.org/1999/xlink" width="24" height="24" viewBox="0 0 24 24">
  <defs>
    <clipPath id="clip-path">
      <path id="Color" d="M6.163,18a1.181,1.181,0,0,1-.55-.137A1.143,1.143,0,0,1,5,16.854V10.561L1.784,14.621A1,1,0,1,1,.216,13.38L3.722,8.953.248,4.626A1,1,0,0,1,.4,3.221a1,1,0,0,1,1.406.154L5,7.352V1.147A1.141,1.141,0,0,1,5.618.134,1.193,1.193,0,0,1,6.164,0a1.156,1.156,0,0,1,.668.211l4.675,3.244a1.136,1.136,0,0,1,.137,1.762L7.629,9.007l3.987,3.845a1.137,1.137,0,0,1-.147,1.758L6.827,17.8A1.18,1.18,0,0,1,6.163,18ZM7,11.18H7v4.071l2.467-1.692L7,11.18ZM7,2.761H7v4.09L9.5,4.495,7,2.761Z" transform="translate(6 2.999)"/>
    </clipPath>
  </defs>
  <g id="Group_69" data-name="Group 69">
    <path id="Color-2" data-name="Color" d="M6.163,18a1.181,1.181,0,0,1-.55-.137A1.143,1.143,0,0,1,5,16.854V10.561L1.784,14.621A1,1,0,1,1,.216,13.38L3.722,8.953.248,4.626A1,1,0,0,1,.4,3.221a1,1,0,0,1,1.406.154L5,7.352V1.147A1.141,1.141,0,0,1,5.618.134,1.193,1.193,0,0,1,6.164,0a1.156,1.156,0,0,1,.668.211l4.675,3.244a1.136,1.136,0,0,1,.137,1.762L7.629,9.007l3.987,3.845a1.137,1.137,0,0,1-.147,1.758L6.827,17.8A1.18,1.18,0,0,1,6.163,18ZM7,11.18H7v4.071l2.467-1.692L7,11.18ZM7,2.761H7v4.09L9.5,4.495,7,2.761Z" transform="translate(6 2.999)"/>
  </g>
</svg>
