<svg id="Icons_Log_Out" data-name="Icons / Log / Out" xmlns="http://www.w3.org/2000/svg" xmlns:xlink="http://www.w3.org/1999/xlink" width="24" height="24" viewBox="0 0 24 24">
  <defs>
    <clipPath id="clip-path">
      <path id="Color" d="M1,16a1,1,0,0,1-1-1V1A1,1,0,0,1,1,0H3A1,1,0,1,1,3,2H2V14H3a1,1,0,1,1,0,2Zm11.4-3.2a1,1,0,0,1-.2-1.4L14,9H6A1,1,0,1,1,6,7h8a.7.7,0,0,1,.086.018L12.368,4.575A1,1,0,0,1,14,3.424l2.814,4A1,1,0,0,1,16.8,8.6l-3,4a1,1,0,0,1-1.4.2Z" transform="translate(4 4)"/>
    </clipPath>
  </defs>
  <g id="Group_108" data-name="Group 108">
    <path id="Color-2" data-name="Color" d="M1,16a1,1,0,0,1-1-1V1A1,1,0,0,1,1,0H3A1,1,0,1,1,3,2H2V14H3a1,1,0,1,1,0,2Zm11.4-3.2a1,1,0,0,1-.2-1.4L14,9H6A1,1,0,1,1,6,7h8a.7.7,0,0,1,.086.018L12.368,4.575A1,1,0,0,1,14,3.424l2.814,4A1,1,0,0,1,16.8,8.6l-3,4a1,1,0,0,1-1.4.2Z" transform="translate(4 4)"/>
  </g>
</svg>
