<svg id="Icons_Image" data-name="Icons / Image" xmlns="http://www.w3.org/2000/svg" xmlns:xlink="http://www.w3.org/1999/xlink" width="24" height="24" viewBox="0 0 24 24">
  <defs>
    <clipPath id="clip-path">
      <path id="Color" d="M15,18H3a3,3,0,0,1-3-3V3A3,3,0,0,1,3,0H15a3,3,0,0,1,3,3V15A3,3,0,0,1,15,18Zm-3.966-8a.73.73,0,0,0-.468.156L3.561,16H15a1,1,0,0,0,1-1V13.994l-4.5-3.84A.72.72,0,0,0,11.034,10ZM3,2A1,1,0,0,0,2,3V14.7L9.277,8.626a2.778,2.778,0,0,1,3.52.006L16,11.364V3a1,1,0,0,0-1-1ZM5,7A1.5,1.5,0,1,1,6.5,5.5,1.5,1.5,0,0,1,5,7Z" transform="translate(3 3)"/>
    </clipPath>
  </defs>
  <g id="Group_59" data-name="Group 59">
    <path id="Color-2" data-name="Color" d="M15,18H3a3,3,0,0,1-3-3V3A3,3,0,0,1,3,0H15a3,3,0,0,1,3,3V15A3,3,0,0,1,15,18Zm-3.966-8a.73.73,0,0,0-.468.156L3.561,16H15a1,1,0,0,0,1-1V13.994l-4.5-3.84A.72.72,0,0,0,11.034,10ZM3,2A1,1,0,0,0,2,3V14.7L9.277,8.626a2.778,2.778,0,0,1,3.52.006L16,11.364V3a1,1,0,0,0-1-1ZM5,7A1.5,1.5,0,1,1,6.5,5.5,1.5,1.5,0,0,1,5,7Z" transform="translate(3 3)"/>
  </g>
</svg>
