<svg id="Icons_Corner_Down_Right" data-name="Icons / Corner / Down Right" xmlns="http://www.w3.org/2000/svg" xmlns:xlink="http://www.w3.org/1999/xlink" width="24" height="24" viewBox="0 0 24 24">
  <defs>
    <clipPath id="clip-path">
      <path id="Color" d="M14.781,7.375l-4-5A1,1,0,0,0,9.219,3.624L11.92,7H3A1,1,0,0,1,2,6V1A1,1,0,0,0,0,1V6A3,3,0,0,0,3,9h8.92l-2.7,3.375a1,1,0,1,0,1.562,1.249l4-5a1,1,0,0,0,0-1.249" transform="translate(5 5.001)"/>
    </clipPath>
  </defs>
  <g id="Group_82" data-name="Group 82">
    <path id="Color-2" data-name="Color" d="M14.781,7.375l-4-5A1,1,0,0,0,9.219,3.624L11.92,7H3A1,1,0,0,1,2,6V1A1,1,0,0,0,0,1V6A3,3,0,0,0,3,9h8.92l-2.7,3.375a1,1,0,1,0,1.562,1.249l4-5a1,1,0,0,0,0-1.249" transform="translate(5 5.001)"/>
  </g>
</svg>
