<svg id="Icons_Arrow_Chevron_Right" data-name="Icons / Arrow / Chevron / Right" xmlns="http://www.w3.org/2000/svg" xmlns:xlink="http://www.w3.org/1999/xlink" width="24" height="24" viewBox="0 0 24 24">
  <defs>
    <clipPath id="clip-path">
      <path id="Color" d="M1,10A1,1,0,0,1,.293,8.292L3.6,4.987.418,1.694A1,1,0,0,1,1.857.3l3.862,4a1,1,0,0,1-.012,1.4l-4,4A1,1,0,0,1,1,10" transform="translate(9.5 7.001)"/>
    </clipPath>
  </defs>
  <g id="Group_79" data-name="Group 79">
    <path id="Color-2" data-name="Color" d="M1,10A1,1,0,0,1,.293,8.292L3.6,4.987.418,1.694A1,1,0,0,1,1.857.3l3.862,4a1,1,0,0,1-.012,1.4l-4,4A1,1,0,0,1,1,10" transform="translate(9.5 7.001)"/>
  </g>
</svg>
