<svg id="Icons_Checkmark_Square_2" data-name="Icons / Checkmark / Square 2" xmlns="http://www.w3.org/2000/svg" xmlns:xlink="http://www.w3.org/1999/xlink" width="24" height="24" viewBox="0 0 24 24">
  <defs>
    <clipPath id="clip-path">
      <path id="Color" d="M2.6,18A2.6,2.6,0,0,1,0,15.4V2.6A2.6,2.6,0,0,1,2.6,0h9.567a1,1,0,1,1,0,2H2.6a.6.6,0,0,0-.6.6V15.4a.6.6,0,0,0,.6.6H15.4a.6.6,0,0,0,.6-.6V9.833a1,1,0,1,1,2,0V15.4A2.6,2.6,0,0,1,15.4,18Zm6.62-6a1,1,0,0,1-.72-.31L6.277,9.36A1,1,0,1,1,7.724,7.979l1.5,1.578L15.282,3.3A1,1,0,0,1,16.718,4.7l-6.777,7A1,1,0,0,1,9.223,12Z" transform="translate(3 3)"/>
    </clipPath>
  </defs>
  <g id="Group_55" data-name="Group 55">
    <path id="Color-2" data-name="Color" d="M2.6,18A2.6,2.6,0,0,1,0,15.4V2.6A2.6,2.6,0,0,1,2.6,0h9.567a1,1,0,1,1,0,2H2.6a.6.6,0,0,0-.6.6V15.4a.6.6,0,0,0,.6.6H15.4a.6.6,0,0,0,.6-.6V9.833a1,1,0,1,1,2,0V15.4A2.6,2.6,0,0,1,15.4,18Zm6.62-6a1,1,0,0,1-.72-.31L6.277,9.36A1,1,0,1,1,7.724,7.979l1.5,1.578L15.282,3.3A1,1,0,0,1,16.718,4.7l-6.777,7A1,1,0,0,1,9.223,12Z" transform="translate(3 3)"/>
  </g>
</svg>
