<svg id="Icons_Eye_Eye" data-name="Icons / Eye / Eye" xmlns="http://www.w3.org/2000/svg" xmlns:xlink="http://www.w3.org/1999/xlink" width="24" height="24" viewBox="0 0 24 24">
  <defs>
    <clipPath id="clip-path">
      <path id="Color" d="M10.025,14C4.153,14,.755,8.584.133,7.5a1,1,0,0,1,0-1C.987,5.014,4.2.145,9.73,0c.1,0,.2,0,.294,0,5.816,0,9.221,5.418,9.844,6.5a1,1,0,0,1,0,1c-.854,1.489-4.071,6.358-9.6,6.5ZM9.967,2,9.781,2C5.729,2.107,3.11,5.53,2.173,7c.988,1.5,3.733,5,7.875,5l.172,0c4.056-.1,6.671-3.527,7.607-4.993C16.839,5.5,14.1,2,9.967,2ZM10,10.5A3.5,3.5,0,1,1,13.5,7,3.5,3.5,0,0,1,10,10.5Zm0-5A1.5,1.5,0,1,0,11.5,7,1.5,1.5,0,0,0,10,5.5Z" transform="translate(2 4.999)"/>
    </clipPath>
  </defs>
  <g id="Group_7" data-name="Group 7">
    <path id="Color-2" data-name="Color" d="M10.025,14C4.153,14,.755,8.584.133,7.5a1,1,0,0,1,0-1C.987,5.014,4.2.145,9.73,0c.1,0,.2,0,.294,0,5.816,0,9.221,5.418,9.844,6.5a1,1,0,0,1,0,1c-.854,1.489-4.071,6.358-9.6,6.5ZM9.967,2,9.781,2C5.729,2.107,3.11,5.53,2.173,7c.988,1.5,3.733,5,7.875,5l.172,0c4.056-.1,6.671-3.527,7.607-4.993C16.839,5.5,14.1,2,9.967,2ZM10,10.5A3.5,3.5,0,1,1,13.5,7,3.5,3.5,0,0,1,10,10.5Zm0-5A1.5,1.5,0,1,0,11.5,7,1.5,1.5,0,0,0,10,5.5Z" transform="translate(2 4.999)"/>
  </g>
</svg>
