<svg id="Icons_Lock" data-name="Icons / Lock" xmlns="http://www.w3.org/2000/svg" xmlns:xlink="http://www.w3.org/1999/xlink" width="24" height="24" viewBox="0 0 24 24">
  <defs>
    <clipPath id="clip-path">
      <path id="Color" d="M13,20H3a3,3,0,0,1-3-3V9A3,3,0,0,1,3,6H4V4.111A4.062,4.062,0,0,1,8,0a4.061,4.061,0,0,1,4,4.111V6h1a3,3,0,0,1,3,3v8A3,3,0,0,1,13,20ZM3,8A1,1,0,0,0,2,9v8a1,1,0,0,0,1,1H13a1,1,0,0,0,1-1V9a1,1,0,0,0-1-1H3ZM8,2A2.06,2.06,0,0,0,6,4.111V6h4V4.111A2.06,2.06,0,0,0,8,2ZM8,16a3,3,0,1,1,3-3A3,3,0,0,1,8,16Zm0-4a1,1,0,1,0,1,1A1,1,0,0,0,8,12Z" transform="translate(4 2)"/>
    </clipPath>
  </defs>
  <g id="Group_84" data-name="Group 84">
    <path id="Color-2" data-name="Color" d="M13,20H3a3,3,0,0,1-3-3V9A3,3,0,0,1,3,6H4V4.111A4.062,4.062,0,0,1,8,0a4.061,4.061,0,0,1,4,4.111V6h1a3,3,0,0,1,3,3v8A3,3,0,0,1,13,20ZM3,8A1,1,0,0,0,2,9v8a1,1,0,0,0,1,1H13a1,1,0,0,0,1-1V9a1,1,0,0,0-1-1H3ZM8,2A2.06,2.06,0,0,0,6,4.111V6h4V4.111A2.06,2.06,0,0,0,8,2ZM8,16a3,3,0,1,1,3-3A3,3,0,0,1,8,16Zm0-4a1,1,0,1,0,1,1A1,1,0,0,0,8,12Z" transform="translate(4 2)"/>
  </g>
</svg>
