<svg id="contactform" xmlns="http://www.w3.org/2000/svg" xmlns:xlink="http://www.w3.org/1999/xlink" width="390" height="542.918" viewBox="0 0 390 542.918">
  <defs>
    <filter id="Rectangle_1183" x="27" y="448.918" width="337" height="58" filterUnits="userSpaceOnUse">
      <feOffset input="SourceAlpha"/>
      <feGaussianBlur stdDeviation="3" result="blur"/>
      <feFlood flood-color="#7d7c7c" flood-opacity="0.62"/>
      <feComposite operator="in" in2="blur"/>
      <feComposite in="SourceGraphic"/>
    </filter>
    <filter id="Rectangle_1183-2" x="26" y="368.918" width="337" height="58" filterUnits="userSpaceOnUse">
      <feOffset input="SourceAlpha"/>
      <feGaussianBlur stdDeviation="3" result="blur-2"/>
      <feFlood flood-color="#7d7c7c" flood-opacity="0.62"/>
      <feComposite operator="in" in2="blur-2"/>
      <feComposite in="SourceGraphic"/>
    </filter>
    <filter id="Rectangle_1183-3" x="27" y="289.918" width="337" height="58" filterUnits="userSpaceOnUse">
      <feOffset input="SourceAlpha"/>
      <feGaussianBlur stdDeviation="3" result="blur-3"/>
      <feFlood flood-color="#7d7c7c" flood-opacity="0.62"/>
      <feComposite operator="in" in2="blur-3"/>
      <feComposite in="SourceGraphic"/>
    </filter>
    <filter id="Rectangle_1183-4" x="26" y="209.918" width="337" height="58" filterUnits="userSpaceOnUse">
      <feOffset input="SourceAlpha"/>
      <feGaussianBlur stdDeviation="3" result="blur-4"/>
      <feFlood flood-color="#7d7c7c" flood-opacity="0.62"/>
      <feComposite operator="in" in2="blur-4"/>
      <feComposite in="SourceGraphic"/>
    </filter>
    <filter id="Rectangle_1183-5" x="27" y="129.918" width="337" height="58" filterUnits="userSpaceOnUse">
      <feOffset input="SourceAlpha"/>
      <feGaussianBlur stdDeviation="3" result="blur-5"/>
      <feFlood flood-color="#7d7c7c" flood-opacity="0.62"/>
      <feComposite operator="in" in2="blur-5"/>
      <feComposite in="SourceGraphic"/>
    </filter>
    <filter id="Rectangle_1183-6" x="26" y="49.918" width="337" height="58" filterUnits="userSpaceOnUse">
      <feOffset input="SourceAlpha"/>
      <feGaussianBlur stdDeviation="3" result="blur-6"/>
      <feFlood flood-color="#7d7c7c" flood-opacity="0.62"/>
      <feComposite operator="in" in2="blur-6"/>
      <feComposite in="SourceGraphic"/>
    </filter>
  </defs>
  <rect id="_Color_l_Container" data-name="🎨 Color l Container" width="390" height="515.159" rx="4" fill="none"/>
  <g id="Rectangle_1233" data-name="Rectangle 1233" transform="translate(200 529.918)" fill="none" stroke="#0d0d0d" stroke-linejoin="round" stroke-width="0.5">
    <rect width="10" height="10" rx="5" stroke="none"/>
    <rect x="-0.25" y="-0.25" width="10.5" height="10.5" rx="5.25" fill="none"/>
  </g>
  <text id="Remember_me" data-name="Remember me" transform="translate(212 539.918)" fill="#0d0d0d" font-size="11" font-family="Oswald-Regular, Oswald"><tspan x="0" y="0">Remember me</tspan></text>
  <text id="Password" transform="translate(35 367.918)" fill="#0d0d0d" font-size="11" font-family="Oswald-Regular, Oswald"><tspan x="0" y="0">Password</tspan></text>
  <text id="Comfirm_pasword" data-name="Comfirm pasword" transform="translate(35 448.918)" fill="#0d0d0d" font-size="11" font-family="Oswald-Regular, Oswald"><tspan x="0" y="0">Comfirm pasword</tspan></text>
  <g transform="matrix(1, 0, 0, 1, 0, 0)" filter="url(#Rectangle_1183)">
    <g id="Rectangle_1183-7" data-name="Rectangle 1183" transform="translate(36 457.92)" fill="#f2f2f2" stroke="#1d2540" stroke-linejoin="round" stroke-width="0.5">
      <rect width="319" height="40" rx="3" stroke="none"/>
      <rect x="0.25" y="0.25" width="318.5" height="39.5" rx="2.75" fill="none"/>
    </g>
  </g>
  <g transform="matrix(1, 0, 0, 1, 0, 0)" filter="url(#Rectangle_1183-2)">
    <g id="Rectangle_1183-8" data-name="Rectangle 1183" transform="translate(35 377.92)" fill="#f2f2f2" stroke="#1d2540" stroke-linejoin="round" stroke-width="0.5">
      <rect width="319" height="40" rx="3" stroke="none"/>
      <rect x="0.25" y="0.25" width="318.5" height="39.5" rx="2.75" fill="none"/>
    </g>
  </g>
  <text id="Last_name" data-name="Last name" transform="translate(35 208.918)" fill="#0d0d0d" font-size="11" font-family="Oswald-Regular, Oswald"><tspan x="0" y="0">Last name</tspan></text>
  <text id="Email" transform="translate(35 289.918)" fill="#0d0d0d" font-size="11" font-family="Oswald-Regular, Oswald"><tspan x="0" y="0">Email</tspan></text>
  <g transform="matrix(1, 0, 0, 1, 0, 0)" filter="url(#Rectangle_1183-3)">
    <g id="Rectangle_1183-9" data-name="Rectangle 1183" transform="translate(36 298.92)" fill="#f2f2f2" stroke="#1d2540" stroke-linejoin="round" stroke-width="0.5">
      <rect width="319" height="40" rx="3" stroke="none"/>
      <rect x="0.25" y="0.25" width="318.5" height="39.5" rx="2.75" fill="none"/>
    </g>
  </g>
  <g transform="matrix(1, 0, 0, 1, 0, 0)" filter="url(#Rectangle_1183-4)">
    <g id="Rectangle_1183-10" data-name="Rectangle 1183" transform="translate(35 218.92)" fill="#f2f2f2" stroke="#1d2540" stroke-linejoin="round" stroke-width="0.5">
      <rect width="319" height="40" rx="3" stroke="none"/>
      <rect x="0.25" y="0.25" width="318.5" height="39.5" rx="2.75" fill="none"/>
    </g>
  </g>
  <text id="Username" transform="translate(35 48.918)" fill="#0d0d0d" font-size="11" font-family="Oswald-Regular, Oswald"><tspan x="0" y="0">Username</tspan></text>
  <g transform="matrix(1, 0, 0, 1, 0, 0)" filter="url(#Rectangle_1183-5)">
    <g id="Rectangle_1183-11" data-name="Rectangle 1183" transform="translate(36 138.92)" fill="#f2f2f2" stroke="#1d2540" stroke-linejoin="round" stroke-width="0.5">
      <rect width="319" height="40" rx="3" stroke="none"/>
      <rect x="0.25" y="0.25" width="318.5" height="39.5" rx="2.75" fill="none"/>
    </g>
  </g>
  <g transform="matrix(1, 0, 0, 1, 0, 0)" filter="url(#Rectangle_1183-6)">
    <g id="Rectangle_1183-12" data-name="Rectangle 1183" transform="translate(35 58.92)" fill="#f2f2f2" stroke="#1d2540" stroke-linejoin="round" stroke-width="0.5">
      <rect width="319" height="40" rx="3" stroke="none"/>
      <rect x="0.25" y="0.25" width="318.5" height="39.5" rx="2.75" fill="none"/>
    </g>
  </g>
</svg>
