<svg id="Icons_Corner_Down_Left" data-name="Icons / Corner / Down Left" xmlns="http://www.w3.org/2000/svg" xmlns:xlink="http://www.w3.org/1999/xlink" width="24" height="24" viewBox="0 0 24 24">
  <defs>
    <clipPath id="clip-path">
      <path id="Color" d="M14.971,1a1,1,0,0,0-1-1h0a1,1,0,0,0-1,1l.021,5a1,1,0,0,1-1,1l-8.919.037L5.763,3.659A1,1,0,0,0,4.2,2.416L.217,7.432a1,1,0,0,0,0,1.25l4.02,4.983A1,1,0,0,0,5.8,12.409L3.085,9.045,12,9.008A3,3,0,0,0,14.992,6Z" transform="translate(5 5)"/>
    </clipPath>
  </defs>
  <g id="Group_71" data-name="Group 71">
    <path id="Color-2" data-name="Color" d="M14.971,1a1,1,0,0,0-1-1h0a1,1,0,0,0-1,1l.021,5a1,1,0,0,1-1,1l-8.919.037L5.763,3.659A1,1,0,0,0,4.2,2.416L.217,7.432a1,1,0,0,0,0,1.25l4.02,4.983A1,1,0,0,0,5.8,12.409L3.085,9.045,12,9.008A3,3,0,0,0,14.992,6Z" transform="translate(5 5)"/>
  </g>
</svg>
