<svg id="Icons_Menu_Menu_2" data-name="Icons / Menu / Menu 2" xmlns="http://www.w3.org/2000/svg" xmlns:xlink="http://www.w3.org/1999/xlink" width="24" height="24" viewBox="0 0 24 24">
  <defs>
    <clipPath id="clip-path">
      <path id="Color" d="M.935,12A.937.937,0,0,1,0,11.064v-.128A.937.937,0,0,1,.935,10h16.13a.939.939,0,0,1,.936.936v.128a.938.938,0,0,1-.936.936Zm4-5A.938.938,0,0,1,4,6.064V5.936A.937.937,0,0,1,4.936,5H17.065A.938.938,0,0,1,18,5.936v.128A.939.939,0,0,1,17.065,7ZM0,6A1,1,0,1,1,1,7,1,1,0,0,1,0,6ZM.935,2A.937.937,0,0,1,0,1.064V.936A.937.937,0,0,1,.935,0h16.13A.939.939,0,0,1,18,.936v.128A.939.939,0,0,1,17.065,2Z" transform="translate(3 6)"/>
    </clipPath>
  </defs>
  <g id="Group_12" data-name="Group 12">
    <path id="Color-2" data-name="Color" d="M.935,12A.937.937,0,0,1,0,11.064v-.128A.937.937,0,0,1,.935,10h16.13a.939.939,0,0,1,.936.936v.128a.938.938,0,0,1-.936.936Zm4-5A.938.938,0,0,1,4,6.064V5.936A.937.937,0,0,1,4.936,5H17.065A.938.938,0,0,1,18,5.936v.128A.939.939,0,0,1,17.065,7ZM0,6A1,1,0,1,1,1,7,1,1,0,0,1,0,6ZM.935,2A.937.937,0,0,1,0,1.064V.936A.937.937,0,0,1,.935,0h16.13A.939.939,0,0,1,18,.936v.128A.939.939,0,0,1,17.065,2Z" transform="translate(3 6)"/>
  </g>
</svg>
