<svg id="Icons_Copy" data-name="Icons / Copy" xmlns="http://www.w3.org/2000/svg" xmlns:xlink="http://www.w3.org/1999/xlink" width="24" height="24" viewBox="0 0 24 24">
  <defs>
    <clipPath id="clip-path">
      <path id="Color" d="M15,18H9a3,3,0,0,1-3-3V12H2.667A2.67,2.67,0,0,1,0,9.333V2.667A2.67,2.67,0,0,1,2.667,0H9.333A2.67,2.67,0,0,1,12,2.667V6h3a3,3,0,0,1,3,3v6A3,3,0,0,1,15,18ZM9,8A1,1,0,0,0,8,9v6a1,1,0,0,0,1,1h6a1,1,0,0,0,1-1V9a1,1,0,0,0-1-1ZM2.667,2A.668.668,0,0,0,2,2.667V9.333A.668.668,0,0,0,2.667,10H6V9A3,3,0,0,1,9,6h1V2.667A.668.668,0,0,0,9.333,2Z" transform="translate(3 3)"/>
    </clipPath>
  </defs>
  <g id="Group_42" data-name="Group 42">
    <path id="Color-2" data-name="Color" d="M15,18H9a3,3,0,0,1-3-3V12H2.667A2.67,2.67,0,0,1,0,9.333V2.667A2.67,2.67,0,0,1,2.667,0H9.333A2.67,2.67,0,0,1,12,2.667V6h3a3,3,0,0,1,3,3v6A3,3,0,0,1,15,18ZM9,8A1,1,0,0,0,8,9v6a1,1,0,0,0,1,1h6a1,1,0,0,0,1-1V9a1,1,0,0,0-1-1ZM2.667,2A.668.668,0,0,0,2,2.667V9.333A.668.668,0,0,0,2.667,10H6V9A3,3,0,0,1,9,6h1V2.667A.668.668,0,0,0,9.333,2Z" transform="translate(3 3)"/>
  </g>
</svg>
