<svg id="Icons_Shopping_Bag" data-name="Icons / Shopping / Bag" xmlns="http://www.w3.org/2000/svg" xmlns:xlink="http://www.w3.org/1999/xlink" width="24" height="24" viewBox="0 0 24 24">
  <defs>
    <clipPath id="clip-path">
      <path id="Color" d="M15,18H3a3,3,0,0,1-3-3V5.829A2.979,2.979,0,0,1,.879,3.707L3.707.879A2.978,2.978,0,0,1,5.828,0h6.343a2.978,2.978,0,0,1,2.121.879l2.828,2.828A2.979,2.979,0,0,1,18,5.829V15A3,3,0,0,1,15,18ZM2,6v9a1,1,0,0,0,1,1H15a1,1,0,0,0,1-1V6ZM5.828,2a1.011,1.011,0,0,0-.707.293L3.414,4H14.586L12.879,2.293A1.011,1.011,0,0,0,12.172,2ZM9,13A4,4,0,0,1,5,9,1,1,0,0,1,7,9a2,2,0,0,0,4,0,1,1,0,0,1,2,0A4,4,0,0,1,9,13Z" transform="translate(3 3)"/>
    </clipPath>
  </defs>
  <g id="Group_104" data-name="Group 104">
    <path id="Color-2" data-name="Color" d="M15,18H3a3,3,0,0,1-3-3V5.829A2.979,2.979,0,0,1,.879,3.707L3.707.879A2.978,2.978,0,0,1,5.828,0h6.343a2.978,2.978,0,0,1,2.121.879l2.828,2.828A2.979,2.979,0,0,1,18,5.829V15A3,3,0,0,1,15,18ZM2,6v9a1,1,0,0,0,1,1H15a1,1,0,0,0,1-1V6ZM5.828,2a1.011,1.011,0,0,0-.707.293L3.414,4H14.586L12.879,2.293A1.011,1.011,0,0,0,12.172,2ZM9,13A4,4,0,0,1,5,9,1,1,0,0,1,7,9a2,2,0,0,0,4,0,1,1,0,0,1,2,0A4,4,0,0,1,9,13Z" transform="translate(3 3)"/>
  </g>
</svg>
