<svg id="Icons_Cast" data-name="Icons / Cast" xmlns="http://www.w3.org/2000/svg" xmlns:xlink="http://www.w3.org/1999/xlink" width="24" height="24" viewBox="0 0 24 24">
  <defs>
    <clipPath id="clip-path">
      <path id="Color" d="M14,18a1,1,0,1,1,0-2h1.4a.717.717,0,0,0,.6-.778V2.777A.717.717,0,0,0,15.4,2H2.6a.715.715,0,0,0-.6.778V4A1,1,0,1,1,0,4V2.777A2.7,2.7,0,0,1,2.6,0H15.4A2.7,2.7,0,0,1,18,2.777V15.223A2.7,2.7,0,0,1,15.4,18Zm-5.56-.04a1,1,0,0,1-.68-1.239A6.032,6.032,0,0,0,1.138,9.057a1,1,0,1,1-.275-1.98A7.961,7.961,0,0,1,7.648,9.351,8.037,8.037,0,0,1,9.68,17.279a1,1,0,0,1-.96.721A1.014,1.014,0,0,1,8.44,17.96Zm-4.19-.054a1,1,0,0,1-.484-1.329,2.516,2.516,0,0,0-2.629-3.554,1,1,0,1,1-.273-1.98,4.484,4.484,0,0,1,3.813,1.278,4.532,4.532,0,0,1,.9,5.1A1,1,0,0,1,4.672,18,.989.989,0,0,1,4.25,17.906ZM0,16a1,1,0,1,1,1,1A1,1,0,0,1,0,16Z" transform="translate(3 3)"/>
    </clipPath>
  </defs>
  <g id="Group_44" data-name="Group 44">
    <path id="Color-2" data-name="Color" d="M14,18a1,1,0,1,1,0-2h1.4a.717.717,0,0,0,.6-.778V2.777A.717.717,0,0,0,15.4,2H2.6a.715.715,0,0,0-.6.778V4A1,1,0,1,1,0,4V2.777A2.7,2.7,0,0,1,2.6,0H15.4A2.7,2.7,0,0,1,18,2.777V15.223A2.7,2.7,0,0,1,15.4,18Zm-5.56-.04a1,1,0,0,1-.68-1.239A6.032,6.032,0,0,0,1.138,9.057a1,1,0,1,1-.275-1.98A7.961,7.961,0,0,1,7.648,9.351,8.037,8.037,0,0,1,9.68,17.279a1,1,0,0,1-.96.721A1.014,1.014,0,0,1,8.44,17.96Zm-4.19-.054a1,1,0,0,1-.484-1.329,2.516,2.516,0,0,0-2.629-3.554,1,1,0,1,1-.273-1.98,4.484,4.484,0,0,1,3.813,1.278,4.532,4.532,0,0,1,.9,5.1A1,1,0,0,1,4.672,18,.989.989,0,0,1,4.25,17.906ZM0,16a1,1,0,1,1,1,1A1,1,0,0,1,0,16Z" transform="translate(3 3)"/>
  </g>
</svg>
