<svg id="Icons_Options_Options_2" data-name="Icons / Options / Options 2" xmlns="http://www.w3.org/2000/svg" xmlns:xlink="http://www.w3.org/1999/xlink" width="24" height="24" viewBox="0 0 24 24">
  <defs>
    <clipPath id="clip-path">
      <path id="Color" d="M9,18a3,3,0,0,1-2.815-2H1a1,1,0,0,1,0-2H6.185a2.981,2.981,0,0,1,5.63,0H19a1,1,0,0,1,0,2H11.815A3,3,0,0,1,9,18Zm0-4a1,1,0,1,0,1,1A1,1,0,0,0,9,14Zm8-2a3,3,0,0,1-2.815-2H1A1,1,0,1,1,1,8H14.185A2.994,2.994,0,1,1,17,12Zm0-4a1,1,0,1,0,1,1A1,1,0,0,0,17,8ZM5,6A3,3,0,0,1,2.185,4H1A1,1,0,1,1,1,2H2.185A2.981,2.981,0,0,1,7.815,2H19a1,1,0,0,1,0,2H7.815A3,3,0,0,1,5,6ZM5,2A1,1,0,1,0,6,3,1,1,0,0,0,5,2Z" transform="translate(2 3)"/>
    </clipPath>
  </defs>
  <g id="Group_74" data-name="Group 74">
    <path id="Color-2" data-name="Color" d="M9,18a3,3,0,0,1-2.815-2H1a1,1,0,0,1,0-2H6.185a2.981,2.981,0,0,1,5.63,0H19a1,1,0,0,1,0,2H11.815A3,3,0,0,1,9,18Zm0-4a1,1,0,1,0,1,1A1,1,0,0,0,9,14Zm8-2a3,3,0,0,1-2.815-2H1A1,1,0,1,1,1,8H14.185A2.994,2.994,0,1,1,17,12Zm0-4a1,1,0,1,0,1,1A1,1,0,0,0,17,8ZM5,6A3,3,0,0,1,2.185,4H1A1,1,0,1,1,1,2H2.185A2.981,2.981,0,0,1,7.815,2H19a1,1,0,0,1,0,2H7.815A3,3,0,0,1,5,6ZM5,2A1,1,0,1,0,6,3,1,1,0,0,0,5,2Z" transform="translate(2 3)"/>
  </g>
</svg>
