<svg id="Icons_Droplet_On" data-name="Icons / Droplet / On" xmlns="http://www.w3.org/2000/svg" xmlns:xlink="http://www.w3.org/1999/xlink" width="24" height="24" viewBox="0 0 24 24">
  <defs>
    <clipPath id="clip-path">
      <path id="Color" d="M7.494,18H7.433a7.394,7.394,0,0,1-5.292-2.284A7.729,7.729,0,0,1,2.228,4.946L6.862.3A1.012,1.012,0,0,1,7.572,0h.007A1.013,1.013,0,0,1,8.29.306l4.559,4.727A7.728,7.728,0,0,1,12.761,15.8,7.39,7.39,0,0,1,7.494,18ZM7.558,2.429,3.649,6.355a5.722,5.722,0,0,0-.068,7.972A5.406,5.406,0,0,0,7.448,16H7.49a5.407,5.407,0,0,0,3.854-1.61,5.718,5.718,0,0,0,.065-7.97Z" transform="translate(5 3)"/>
    </clipPath>
  </defs>
  <g id="Group_100" data-name="Group 100">
    <path id="Color-2" data-name="Color" d="M7.494,18H7.433a7.394,7.394,0,0,1-5.292-2.284A7.729,7.729,0,0,1,2.228,4.946L6.862.3A1.012,1.012,0,0,1,7.572,0h.007A1.013,1.013,0,0,1,8.29.306l4.559,4.727A7.728,7.728,0,0,1,12.761,15.8,7.39,7.39,0,0,1,7.494,18ZM7.558,2.429,3.649,6.355a5.722,5.722,0,0,0-.068,7.972A5.406,5.406,0,0,0,7.448,16H7.49a5.407,5.407,0,0,0,3.854-1.61,5.718,5.718,0,0,0,.065-7.97Z" transform="translate(5 3)"/>
  </g>
</svg>
