<svg id="Icons_Social_Pantone" data-name="Icons / Social / Pantone" xmlns="http://www.w3.org/2000/svg" xmlns:xlink="http://www.w3.org/1999/xlink" width="24" height="24" viewBox="0 0 24 24">
  <defs>
    <clipPath id="clip-path">
      <path id="Color" d="M17,18H3.909A3.913,3.913,0,0,1,0,14.091V1A1,1,0,0,1,1,0H6.818a1,1,0,0,1,1,1V4.448L9.641,2.493a1,1,0,0,1,.7-.317l.059,0a.959.959,0,0,1,.658.268L15.189,6.3a1,1,0,0,1,.05,1.413l-2.3,2.469H17a1,1,0,0,1,1,1V17A1,1,0,0,1,17,18Zm-5.927-5.818L7.514,16H16V12.182ZM2,12v2.092a1.909,1.909,0,1,0,3.818,0V12Zm8.422-7.411-2.6,2.793v5.36L13.1,7.081ZM2,7v3H5.817V7ZM2,2V5H5.817V2Z" transform="translate(3 3)"/>
    </clipPath>
  </defs>
  <g id="Group_101" data-name="Group 101">
    <path id="Color-2" data-name="Color" d="M17,18H3.909A3.913,3.913,0,0,1,0,14.091V1A1,1,0,0,1,1,0H6.818a1,1,0,0,1,1,1V4.448L9.641,2.493a1,1,0,0,1,.7-.317l.059,0a.959.959,0,0,1,.658.268L15.189,6.3a1,1,0,0,1,.05,1.413l-2.3,2.469H17a1,1,0,0,1,1,1V17A1,1,0,0,1,17,18Zm-5.927-5.818L7.514,16H16V12.182ZM2,12v2.092a1.909,1.909,0,1,0,3.818,0V12Zm8.422-7.411-2.6,2.793v5.36L13.1,7.081ZM2,7v3H5.817V7ZM2,2V5H5.817V2Z" transform="translate(3 3)"/>
  </g>
</svg>
