<svg id="Icons_Social_Twitter" data-name="Icons / Social / Twitter" xmlns="http://www.w3.org/2000/svg" xmlns:xlink="http://www.w3.org/1999/xlink" width="24" height="24" viewBox="0 0 24 24">
  <defs>
    <clipPath id="clip-path">
      <path id="Color" d="M5.513,16l-.08,0A10.926,10.926,0,0,1,.778,14.914a1.379,1.379,0,0,1-.763-1.442,1.393,1.393,0,0,1,1.158-1.181,6.724,6.724,0,0,0,2.54-.887A9.516,9.516,0,0,1,.189,2.327,1.4,1.4,0,0,1,1.57,1.122a1.352,1.352,0,0,1,1.025.47A7.086,7.086,0,0,0,7.466,4.341,4.6,4.6,0,0,1,8.875,1.235,4.469,4.469,0,0,1,11.965,0L12.1,0a4.46,4.46,0,0,1,3.147,1.43A.641.641,0,0,0,15.7,1.6a.785.785,0,0,0,.323-.072,1.431,1.431,0,0,1,.587-.127,1.388,1.388,0,0,1,1.345,1.723,6.657,6.657,0,0,1-1.283,2.6,10.635,10.635,0,0,1-3.076,7.05A11.055,11.055,0,0,1,5.513,16ZM2.08,3.934a7.1,7.1,0,0,0,3.727,6.453l.958.546-.637.9a5.57,5.57,0,0,1-2.677,1.921A8.842,8.842,0,0,0,5.5,14h.012a.667.667,0,0,1,.075,0,8.8,8.8,0,0,0,9.095-8.594,1.306,1.306,0,0,1,.369-.847l.015-.019a5.06,5.06,0,0,0,.607-.934,2.6,2.6,0,0,1-1.913-.842A2.466,2.466,0,0,0,12.04,2l-.09,0a2.494,2.494,0,0,0-1.7.688,2.565,2.565,0,0,0-.726,2.427l.261,1.139L8.62,6.335c-.229.017-.459.026-.684.026A8.306,8.306,0,0,1,2.08,3.934Z" transform="translate(3 4)"/>
    </clipPath>
  </defs>
  <g id="Group_126" data-name="Group 126">
    <path id="Color-2" data-name="Color" d="M5.513,16l-.08,0A10.926,10.926,0,0,1,.778,14.914a1.379,1.379,0,0,1-.763-1.442,1.393,1.393,0,0,1,1.158-1.181,6.724,6.724,0,0,0,2.54-.887A9.516,9.516,0,0,1,.189,2.327,1.4,1.4,0,0,1,1.57,1.122a1.352,1.352,0,0,1,1.025.47A7.086,7.086,0,0,0,7.466,4.341,4.6,4.6,0,0,1,8.875,1.235,4.469,4.469,0,0,1,11.965,0L12.1,0a4.46,4.46,0,0,1,3.147,1.43A.641.641,0,0,0,15.7,1.6a.785.785,0,0,0,.323-.072,1.431,1.431,0,0,1,.587-.127,1.388,1.388,0,0,1,1.345,1.723,6.657,6.657,0,0,1-1.283,2.6,10.635,10.635,0,0,1-3.076,7.05A11.055,11.055,0,0,1,5.513,16ZM2.08,3.934a7.1,7.1,0,0,0,3.727,6.453l.958.546-.637.9a5.57,5.57,0,0,1-2.677,1.921A8.842,8.842,0,0,0,5.5,14h.012a.667.667,0,0,1,.075,0,8.8,8.8,0,0,0,9.095-8.594,1.306,1.306,0,0,1,.369-.847l.015-.019a5.06,5.06,0,0,0,.607-.934,2.6,2.6,0,0,1-1.913-.842A2.466,2.466,0,0,0,12.04,2l-.09,0a2.494,2.494,0,0,0-1.7.688,2.565,2.565,0,0,0-.726,2.427l.261,1.139L8.62,6.335c-.229.017-.459.026-.684.026A8.306,8.306,0,0,1,2.08,3.934Z" transform="translate(3 4)"/>
  </g>
</svg>
