<svg id="Icons_Volume_On" data-name="Icons / Volume / On" xmlns="http://www.w3.org/2000/svg" xmlns:xlink="http://www.w3.org/1999/xlink" width="24" height="24" viewBox="0 0 24 24">
  <defs>
    <clipPath id="clip-path">
      <path id="Color" d="M13,18a.983.983,0,0,1-.564-.175l-6.412-4.4H1a1,1,0,0,1-1-1V5.572a1,1,0,0,1,1-1H6.023l6.412-4.4A.988.988,0,0,1,13,0a1,1,0,0,1,1,1V17a1,1,0,0,1-1,1ZM2,6.572v4.857H6.333A1.013,1.013,0,0,1,6.9,11.6L12,15.1V2.9L6.9,6.4a1.013,1.013,0,0,1-.566.175Z" transform="translate(4 3)"/>
    </clipPath>
  </defs>
  <g id="Group_49" data-name="Group 49">
    <path id="Color-2" data-name="Color" d="M13,18a.983.983,0,0,1-.564-.175l-6.412-4.4H1a1,1,0,0,1-1-1V5.572a1,1,0,0,1,1-1H6.023l6.412-4.4A.988.988,0,0,1,13,0a1,1,0,0,1,1,1V17a1,1,0,0,1-1,1ZM2,6.572v4.857H6.333A1.013,1.013,0,0,1,6.9,11.6L12,15.1V2.9L6.9,6.4a1.013,1.013,0,0,1-.566.175Z" transform="translate(4 3)"/>
  </g>
</svg>
