<svg id="Icons_Refresh" data-name="Icons / Refresh" xmlns="http://www.w3.org/2000/svg" xmlns:xlink="http://www.w3.org/1999/xlink" width="24" height="24" viewBox="0 0 24 24">
  <defs>
    <clipPath id="clip-path">
      <path id="Color" d="M17.3,10.426a1,1,0,0,0-1.256.65A7.13,7.13,0,0,1,9.184,16,7.1,7.1,0,0,1,2,9,7.1,7.1,0,0,1,9.184,2a7.252,7.252,0,0,1,4.645,1.67l-2.166-.357a1,1,0,1,0-.326,1.972l4.246.7A1.025,1.025,0,0,0,15.747,6a.987.987,0,0,0,.343-.061.972.972,0,0,0,.1-.059.994.994,0,0,0,.192-.112.906.906,0,0,0,.09-.105.859.859,0,0,0,.132-.156,1.043,1.043,0,0,0,.054-.142.918.918,0,0,0,.068-.179l.754-4A1,1,0,0,0,15.517.815l-.272,1.441A9.23,9.23,0,0,0,9.184,0,9.1,9.1,0,0,0,0,9a9.1,9.1,0,0,0,9.184,9,9.125,9.125,0,0,0,8.769-6.318,1,1,0,0,0-.65-1.256" transform="translate(3 3)"/>
    </clipPath>
  </defs>
  <g id="Group_138" data-name="Group 138">
    <path id="Color-2" data-name="Color" d="M17.3,10.426a1,1,0,0,0-1.256.65A7.13,7.13,0,0,1,9.184,16,7.1,7.1,0,0,1,2,9,7.1,7.1,0,0,1,9.184,2a7.252,7.252,0,0,1,4.645,1.67l-2.166-.357a1,1,0,1,0-.326,1.972l4.246.7A1.025,1.025,0,0,0,15.747,6a.987.987,0,0,0,.343-.061.972.972,0,0,0,.1-.059.994.994,0,0,0,.192-.112.906.906,0,0,0,.09-.105.859.859,0,0,0,.132-.156,1.043,1.043,0,0,0,.054-.142.918.918,0,0,0,.068-.179l.754-4A1,1,0,0,0,15.517.815l-.272,1.441A9.23,9.23,0,0,0,9.184,0,9.1,9.1,0,0,0,0,9a9.1,9.1,0,0,0,9.184,9,9.125,9.125,0,0,0,8.769-6.318,1,1,0,0,0-.65-1.256" transform="translate(3 3)"/>
  </g>
</svg>
