<svg id="Icons_Folder_Remove" data-name="Icons / Folder / Remove" xmlns="http://www.w3.org/2000/svg" xmlns:xlink="http://www.w3.org/1999/xlink" width="24" height="24" viewBox="0 0 24 24">
  <defs>
    <clipPath id="clip-path">
      <path id="Color" d="M17.5,17H2.5A2.47,2.47,0,0,1,0,14.568V2.431A2.469,2.469,0,0,1,2.5,0H7.1a.994.994,0,0,1,.774.367l2.6,3.179H17.5A2.47,2.47,0,0,1,20,5.978v8.59A2.47,2.47,0,0,1,17.5,17ZM2.5,2a.47.47,0,0,0-.5.431V14.568A.471.471,0,0,0,2.5,15h15a.471.471,0,0,0,.5-.432V5.978a.471.471,0,0,0-.5-.432H10a1,1,0,0,1-.774-.368L6.626,2ZM12,11.5H8a1,1,0,1,1,0-2h4a1,1,0,0,1,0,2Z" transform="translate(2 3.5)"/>
    </clipPath>
  </defs>
  <g id="Group_165" data-name="Group 165">
    <path id="Color-2" data-name="Color" d="M17.5,17H2.5A2.47,2.47,0,0,1,0,14.568V2.431A2.469,2.469,0,0,1,2.5,0H7.1a.994.994,0,0,1,.774.367l2.6,3.179H17.5A2.47,2.47,0,0,1,20,5.978v8.59A2.47,2.47,0,0,1,17.5,17ZM2.5,2a.47.47,0,0,0-.5.431V14.568A.471.471,0,0,0,2.5,15h15a.471.471,0,0,0,.5-.432V5.978a.471.471,0,0,0-.5-.432H10a1,1,0,0,1-.774-.368L6.626,2ZM12,11.5H8a1,1,0,1,1,0-2h4a1,1,0,0,1,0,2Z" transform="translate(2 3.5)"/>
  </g>
</svg>
