<svg id="Icons_Video_On" data-name="Icons / Video / On" xmlns="http://www.w3.org/2000/svg" xmlns:xlink="http://www.w3.org/1999/xlink" width="24" height="24" viewBox="0 0 24 24">
  <defs>
    <clipPath id="clip-path">
      <path id="Color" d="M12,14H3a3,3,0,0,1-3-3V3A3,3,0,0,1,3,0h9a3,3,0,0,1,3,3V4.452l2.161-2A1.7,1.7,0,0,1,18.319,2a1.723,1.723,0,0,1,.692.145A1.608,1.608,0,0,1,20,3.63v6.741a1.606,1.606,0,0,1-.988,1.484,1.712,1.712,0,0,1-.693.145,1.693,1.693,0,0,1-1.157-.452L15,9.549V11A3,3,0,0,1,12,14ZM3,2A1,1,0,0,0,2,3v8a1,1,0,0,0,1,1h9a1,1,0,0,0,1-1V3a1,1,0,0,0-1-1ZM18,4.4,15.191,7,18,9.6Z" transform="translate(2 5)"/>
    </clipPath>
  </defs>
  <g id="Group_203" data-name="Group 203">
    <path id="Color-2" data-name="Color" d="M12,14H3a3,3,0,0,1-3-3V3A3,3,0,0,1,3,0h9a3,3,0,0,1,3,3V4.452l2.161-2A1.7,1.7,0,0,1,18.319,2a1.723,1.723,0,0,1,.692.145A1.608,1.608,0,0,1,20,3.63v6.741a1.606,1.606,0,0,1-.988,1.484,1.712,1.712,0,0,1-.693.145,1.693,1.693,0,0,1-1.157-.452L15,9.549V11A3,3,0,0,1,12,14ZM3,2A1,1,0,0,0,2,3v8a1,1,0,0,0,1,1h9a1,1,0,0,0,1-1V3a1,1,0,0,0-1-1ZM18,4.4,15.191,7,18,9.6Z" transform="translate(2 5)"/>
  </g>
</svg>
