<svg id="Icons_Link_Link_2" data-name="Icons / Link / Link 2" xmlns="http://www.w3.org/2000/svg" xmlns:xlink="http://www.w3.org/1999/xlink" width="24" height="24" viewBox="0 0 24 24">
  <defs>
    <clipPath id="clip-path">
      <path id="Color" d="M1.207,17.641a6.155,6.155,0,0,1,.675-8.075L3.157,8.293A1.006,1.006,0,0,1,4.582,9.715l-1.425,1.42a4.015,4.015,0,0,0,.273,5.931,4.183,4.183,0,0,0,5.576-.4L10.28,15.4A1.006,1.006,0,1,1,11.7,16.817l-1.425,1.42a6.063,6.063,0,0,1-9.073-.6Zm6.086-4.934a1,1,0,0,1,0-1.414l4-4a1,1,0,0,1,1.414,1.414l-4,4a1,1,0,0,1-1.414,0Zm8.1-1a1.008,1.008,0,0,1,0-1.425l1.422-1.427a4.039,4.039,0,0,0-.273-5.95,4.16,4.16,0,0,0-5.567.4L9.7,4.577a1,1,0,0,1-1.422,0,1.087,1.087,0,0,1,.177-1.6L9.527,1.9a6.192,6.192,0,0,1,8.135-.68,6.063,6.063,0,0,1,.573,9.06L16.812,11.7a1,1,0,0,1-1.422,0Z" transform="translate(2 2)"/>
    </clipPath>
  </defs>
  <g id="Group_177" data-name="Group 177">
    <path id="Color-2" data-name="Color" d="M1.207,17.641a6.155,6.155,0,0,1,.675-8.075L3.157,8.293A1.006,1.006,0,0,1,4.582,9.715l-1.425,1.42a4.015,4.015,0,0,0,.273,5.931,4.183,4.183,0,0,0,5.576-.4L10.28,15.4A1.006,1.006,0,1,1,11.7,16.817l-1.425,1.42a6.063,6.063,0,0,1-9.073-.6Zm6.086-4.934a1,1,0,0,1,0-1.414l4-4a1,1,0,0,1,1.414,1.414l-4,4a1,1,0,0,1-1.414,0Zm8.1-1a1.008,1.008,0,0,1,0-1.425l1.422-1.427a4.039,4.039,0,0,0-.273-5.95,4.16,4.16,0,0,0-5.567.4L9.7,4.577a1,1,0,0,1-1.422,0,1.087,1.087,0,0,1,.177-1.6L9.527,1.9a6.192,6.192,0,0,1,8.135-.68,6.063,6.063,0,0,1,.573,9.06L16.812,11.7a1,1,0,0,1-1.422,0Z" transform="translate(2 2)"/>
  </g>
</svg>
