<svg id="Icons_Layout" data-name="Icons / Layout" xmlns="http://www.w3.org/2000/svg" xmlns:xlink="http://www.w3.org/1999/xlink" width="24" height="24" viewBox="0 0 24 24">
  <defs>
    <clipPath id="clip-path">
      <path id="Color" d="M15,18H3a3,3,0,0,1-3-3V3A3,3,0,0,1,3,0H15a3,3,0,0,1,3,3V15A3,3,0,0,1,15,18ZM10,7v9h5a1,1,0,0,0,1-1V7ZM2,7v8a1,1,0,0,0,1,1H8V7ZM3,2A1,1,0,0,0,2,3V5H16V3a1,1,0,0,0-1-1Z" transform="translate(3 3)"/>
    </clipPath>
  </defs>
  <g id="Group_149" data-name="Group 149">
    <path id="Color-2" data-name="Color" d="M15,18H3a3,3,0,0,1-3-3V3A3,3,0,0,1,3,0H15a3,3,0,0,1,3,3V15A3,3,0,0,1,15,18ZM10,7v9h5a1,1,0,0,0,1-1V7ZM2,7v8a1,1,0,0,0,1,1H8V7ZM3,2A1,1,0,0,0,2,3V5H16V3a1,1,0,0,0-1-1Z" transform="translate(3 3)"/>
  </g>
</svg>
