<svg id="Icons_Collapse" data-name="Icons / Collapse" xmlns="http://www.w3.org/2000/svg" xmlns:xlink="http://www.w3.org/1999/xlink" width="24" height="24" viewBox="0 0 24 24">
  <defs>
    <clipPath id="clip-path">
      <path id="Color" d="M5,15l0-2.585L1.707,15.708A1,1,0,0,1,.293,14.294l3.279-3.281L1,11A1,1,0,0,1,1,9H1l5,.024a1,1,0,0,1,1,1L7,15a1,1,0,1,1-2,0ZM15,7,10.024,7a1,1,0,0,1-1-1L9,1.005A1,1,0,0,1,10,0h0a1,1,0,0,1,1,1l.013,2.578,3.28-3.28a1,1,0,0,1,1.415,1.414L12.416,5H15a1,1,0,1,1,0,2Z" transform="translate(4 4)"/>
    </clipPath>
  </defs>
  <g id="Group_168" data-name="Group 168">
    <path id="Color-2" data-name="Color" d="M5,15l0-2.585L1.707,15.708A1,1,0,0,1,.293,14.294l3.279-3.281L1,11A1,1,0,0,1,1,9H1l5,.024a1,1,0,0,1,1,1L7,15a1,1,0,1,1-2,0ZM15,7,10.024,7a1,1,0,0,1-1-1L9,1.005A1,1,0,0,1,10,0h0a1,1,0,0,1,1,1l.013,2.578,3.28-3.28a1,1,0,0,1,1.415,1.414L12.416,5H15a1,1,0,1,1,0,2Z" transform="translate(4 4)"/>
  </g>
</svg>
