<svg id="Icons_More_Horizontal" data-name="Icons / More / Horizontal" xmlns="http://www.w3.org/2000/svg" xmlns:xlink="http://www.w3.org/1999/xlink" width="24" height="24" viewBox="0 0 24 24">
  <defs>
    <clipPath id="clip-path">
      <path id="Color" d="M14,2a2,2,0,1,1,2,2A2,2,0,0,1,14,2ZM7,2A2,2,0,1,1,9,4,2,2,0,0,1,7,2ZM0,2A2,2,0,1,1,2,4,2,2,0,0,1,0,2Z" transform="translate(3 10)"/>
    </clipPath>
  </defs>
  <g id="Group_161" data-name="Group 161">
    <path id="Color-2" data-name="Color" d="M14,2a2,2,0,1,1,2,2A2,2,0,0,1,14,2ZM7,2A2,2,0,1,1,9,4,2,2,0,0,1,7,2ZM0,2A2,2,0,1,1,2,4,2,2,0,0,1,0,2Z" transform="translate(3 10)"/>
  </g>
</svg>
