<svg id="Icons_Weight" data-name="Icons / Weight" xmlns="http://www.w3.org/2000/svg" xmlns:xlink="http://www.w3.org/1999/xlink" width="24" height="24" viewBox="0 0 24 24">
  <defs>
    <clipPath id="clip-path">
      <path id="Color" d="M15,20H3a3,3,0,0,1-3-3V6A3,3,0,0,1,3,3H4.42a5,5,0,0,1,9.158,0H15a3,3,0,0,1,3,3V17A3,3,0,0,1,15,20ZM3,5A1,1,0,0,0,2,6V17a1,1,0,0,0,1,1H15a1,1,0,0,0,1-1V6a1,1,0,0,0-1-1H14A5,5,0,0,1,4,5ZM8,2.172A2.973,2.973,0,0,0,6.1,4.238l0,.015a.167.167,0,0,0,0,.021l0,.013A2.639,2.639,0,0,0,6,5a3,3,0,1,0,6,0,2.628,2.628,0,0,0-.093-.729A3,3,0,0,0,10,2.172V4A1,1,0,1,1,8,4Z" transform="translate(3 2)"/>
    </clipPath>
  </defs>
  <g id="Group_210" data-name="Group 210">
    <path id="Color-2" data-name="Color" d="M15,20H3a3,3,0,0,1-3-3V6A3,3,0,0,1,3,3H4.42a5,5,0,0,1,9.158,0H15a3,3,0,0,1,3,3V17A3,3,0,0,1,15,20ZM3,5A1,1,0,0,0,2,6V17a1,1,0,0,0,1,1H15a1,1,0,0,0,1-1V6a1,1,0,0,0-1-1H14A5,5,0,0,1,4,5ZM8,2.172A2.973,2.973,0,0,0,6.1,4.238l0,.015a.167.167,0,0,0,0,.021l0,.013A2.639,2.639,0,0,0,6,5a3,3,0,1,0,6,0,2.628,2.628,0,0,0-.093-.729A3,3,0,0,0,10,2.172V4A1,1,0,1,1,8,4Z" transform="translate(3 2)"/>
  </g>
</svg>
