<svg id="Icons_Cloud_Download" data-name="Icons / Cloud / Download" xmlns="http://www.w3.org/2000/svg" xmlns:xlink="http://www.w3.org/1999/xlink" width="24" height="24" viewBox="0 0 24 24">
  <defs>
    <clipPath id="clip-path">
      <path id="Color" d="M9.293,17.707l-3-3a1,1,0,0,1,1.414-1.414L9,14.586V9a1,1,0,0,1,2,0v5.644l1.305-1.26a1,1,0,0,1,1.39,1.439l-3,2.9A1.009,1.009,0,0,1,10,18,.993.993,0,0,1,9.293,17.707Zm-8.042-5.4A5,5,0,0,1,4.325,4.045a6,6,0,0,1,11.35,0,5,5,0,0,1,3.074,8.265,1,1,0,1,1-1.5-1.326A3,3,0,0,0,15,6h-.1a1,1,0,0,1-.98-.8,4,4,0,0,0-7.839,0A1,1,0,0,1,5.1,6H5a3,3,0,0,0-2.25,4.983,1,1,0,1,1-1.5,1.326Z" transform="translate(2 3)"/>
    </clipPath>
  </defs>
  <g id="Group_133" data-name="Group 133">
    <path id="Color-2" data-name="Color" d="M9.293,17.707l-3-3a1,1,0,0,1,1.414-1.414L9,14.586V9a1,1,0,0,1,2,0v5.644l1.305-1.26a1,1,0,0,1,1.39,1.439l-3,2.9A1.009,1.009,0,0,1,10,18,.993.993,0,0,1,9.293,17.707Zm-8.042-5.4A5,5,0,0,1,4.325,4.045a6,6,0,0,1,11.35,0,5,5,0,0,1,3.074,8.265,1,1,0,1,1-1.5-1.326A3,3,0,0,0,15,6h-.1a1,1,0,0,1-.98-.8,4,4,0,0,0-7.839,0A1,1,0,0,1,5.1,6H5a3,3,0,0,0-2.25,4.983,1,1,0,1,1-1.5,1.326Z" transform="translate(2 3)"/>
  </g>
</svg>
