<svg id="Icons_Code" data-name="Icons / Code" xmlns="http://www.w3.org/2000/svg" xmlns:xlink="http://www.w3.org/1999/xlink" width="24" height="24" viewBox="0 0 24 24">
  <defs>
    <clipPath id="clip-path">
      <path id="Color" d="M5.049,13.628l-4.828-6A1,1,0,0,1,.232,6.36l5-6A1,1,0,0,1,6.769,1.641L2.292,7.011l4.316,5.363a1,1,0,1,1-1.559,1.254Zm8.311.142a1,1,0,0,1-.128-1.41l4.477-5.37L13.393,1.628A1,1,0,0,1,14.952.374l4.828,6a1,1,0,0,1-.011,1.268l-5,6a1,1,0,0,1-1.409.129Z" transform="translate(2 4.999)"/>
    </clipPath>
  </defs>
  <g id="Group_154" data-name="Group 154">
    <path id="Color-2" data-name="Color" d="M5.049,13.628l-4.828-6A1,1,0,0,1,.232,6.36l5-6A1,1,0,0,1,6.769,1.641L2.292,7.011l4.316,5.363a1,1,0,1,1-1.559,1.254Zm8.311.142a1,1,0,0,1-.128-1.41l4.477-5.37L13.393,1.628A1,1,0,0,1,14.952.374l4.828,6a1,1,0,0,1-.011,1.268l-5,6a1,1,0,0,1-1.409.129Z" transform="translate(2 4.999)"/>
  </g>
</svg>
