<svg id="Icons_Corner_Right_Up" data-name="Icons / Corner / Right Up" xmlns="http://www.w3.org/2000/svg" xmlns:xlink="http://www.w3.org/1999/xlink" width="24" height="24" viewBox="0 0 24 24">
  <defs>
    <clipPath id="clip-path">
      <path id="Color" d="M13.625,4.219l-5-4a1,1,0,0,0-1.249,0l-5,4A1,1,0,0,0,3.625,5.781L7,3.08V12a1,1,0,0,1-1,1H1a1,1,0,0,0,0,2H6a3,3,0,0,0,3-3V3.08l3.376,2.7a1,1,0,0,0,1.249-1.562" transform="translate(4.999 4)"/>
    </clipPath>
  </defs>
  <g id="Group_175" data-name="Group 175">
    <path id="Color-2" data-name="Color" d="M13.625,4.219l-5-4a1,1,0,0,0-1.249,0l-5,4A1,1,0,0,0,3.625,5.781L7,3.08V12a1,1,0,0,1-1,1H1a1,1,0,0,0,0,2H6a3,3,0,0,0,3-3V3.08l3.376,2.7a1,1,0,0,0,1.249-1.562" transform="translate(4.999 4)"/>
  </g>
</svg>
