<svg id="Icons_Phone_Off" data-name="Icons / Phone / Off" xmlns="http://www.w3.org/2000/svg" xmlns:xlink="http://www.w3.org/1999/xlink" width="24" height="24" viewBox="0 0 24 24">
  <defs>
    <clipPath id="clip-path">
      <path id="Color" d="M5.944,16.729,7.37,15.3A13.314,13.314,0,0,0,15.4,18,2.6,2.6,0,0,0,18,15.4a2.3,2.3,0,0,0-.021-.328l-4.62-1.061c-.093.175-.193.366-.285.545-.455.87-.782,1.5-1.627,1.163a11.531,11.531,0,0,1-2.934-1.561l1.43-1.43a9.559,9.559,0,0,0,1.412.8c.65-1.243.652-1.245.8-1.382a1,1,0,0,1,.916-.253l5.964,1.369a1,1,0,0,1,.72.647,4.25,4.25,0,0,1,.185.73A4.539,4.539,0,0,1,20,15.4,4.6,4.6,0,0,1,15.4,20,15.308,15.308,0,0,1,5.944,16.729ZM2.26,17.74a.89.89,0,0,1,0-1.257L16.482,2.261a.889.889,0,0,1,1.257,1.257L3.517,17.74a.89.89,0,0,1-1.257,0ZM0,4.6A4.591,4.591,0,0,1,5.365.066a4.283,4.283,0,0,1,.727.184A1,1,0,0,1,6.738.97L8.107,6.934a1,1,0,0,1-.253.916c-.136.142-.14.145-1.381.8a9.991,9.991,0,0,0,.8,1.409L5.844,11.484a11.672,11.672,0,0,1-1.579-2.97c-.322-.8.307-1.132,1.178-1.587.178-.094.369-.194.544-.285L4.927,2.022A2.358,2.358,0,0,0,4.6,2,2.6,2.6,0,0,0,2,4.6a13.314,13.314,0,0,0,2.7,8.03L3.271,14.057A15.317,15.317,0,0,1,0,4.6Z" transform="translate(2 2)"/>
    </clipPath>
  </defs>
  <g id="Group_190" data-name="Group 190">
    <path id="Color-2" data-name="Color" d="M5.944,16.729,7.37,15.3A13.314,13.314,0,0,0,15.4,18,2.6,2.6,0,0,0,18,15.4a2.3,2.3,0,0,0-.021-.328l-4.62-1.061c-.093.175-.193.366-.285.545-.455.87-.782,1.5-1.627,1.163a11.531,11.531,0,0,1-2.934-1.561l1.43-1.43a9.559,9.559,0,0,0,1.412.8c.65-1.243.652-1.245.8-1.382a1,1,0,0,1,.916-.253l5.964,1.369a1,1,0,0,1,.72.647,4.25,4.25,0,0,1,.185.73A4.539,4.539,0,0,1,20,15.4,4.6,4.6,0,0,1,15.4,20,15.308,15.308,0,0,1,5.944,16.729ZM2.26,17.74a.89.89,0,0,1,0-1.257L16.482,2.261a.889.889,0,0,1,1.257,1.257L3.517,17.74a.89.89,0,0,1-1.257,0ZM0,4.6A4.591,4.591,0,0,1,5.365.066a4.283,4.283,0,0,1,.727.184A1,1,0,0,1,6.738.97L8.107,6.934a1,1,0,0,1-.253.916c-.136.142-.14.145-1.381.8a9.991,9.991,0,0,0,.8,1.409L5.844,11.484a11.672,11.672,0,0,1-1.579-2.97c-.322-.8.307-1.132,1.178-1.587.178-.094.369-.194.544-.285L4.927,2.022A2.358,2.358,0,0,0,4.6,2,2.6,2.6,0,0,0,2,4.6a13.314,13.314,0,0,0,2.7,8.03L3.271,14.057A15.317,15.317,0,0,1,0,4.6Z" transform="translate(2 2)"/>
  </g>
</svg>
