<svg id="Icons_Flip_Flip_1" data-name="Icons / Flip / Flip 1" xmlns="http://www.w3.org/2000/svg" xmlns:xlink="http://www.w3.org/1999/xlink" width="24" height="24" viewBox="0 0 24 24">
  <defs>
    <clipPath id="clip-path">
      <path id="Color" d="M3.293,18.707l-3-3a1,1,0,1,1,1.414-1.414L3,15.586v-12A3.564,3.564,0,0,1,6.53,0H9A1,1,0,0,1,9,2H6.53A1.563,1.563,0,0,0,5,3.59v12l1.292-1.293a1,1,0,0,1,1.415,1.414l-3,3a1,1,0,0,1-1.414,0ZM11,19a1,1,0,1,1,0-2h2.471A1.562,1.562,0,0,0,15,15.41v-12L13.707,4.707a1,1,0,1,1-1.414-1.414l3-3a1,1,0,0,1,1.415,0l3,3a1,1,0,1,1-1.414,1.414L17,3.415v12A3.564,3.564,0,0,1,13.471,19Z" transform="translate(2 2.5)"/>
    </clipPath>
  </defs>
  <g id="Group_206" data-name="Group 206">
    <path id="Color-2" data-name="Color" d="M3.293,18.707l-3-3a1,1,0,1,1,1.414-1.414L3,15.586v-12A3.564,3.564,0,0,1,6.53,0H9A1,1,0,0,1,9,2H6.53A1.563,1.563,0,0,0,5,3.59v12l1.292-1.293a1,1,0,0,1,1.415,1.414l-3,3a1,1,0,0,1-1.414,0ZM11,19a1,1,0,1,1,0-2h2.471A1.562,1.562,0,0,0,15,15.41v-12L13.707,4.707a1,1,0,1,1-1.414-1.414l3-3a1,1,0,0,1,1.415,0l3,3a1,1,0,1,1-1.414,1.414L17,3.415v12A3.564,3.564,0,0,1,13.471,19Z" transform="translate(2 2.5)"/>
  </g>
</svg>
