<svg id="Icons_Loader" data-name="Icons / Loader" xmlns="http://www.w3.org/2000/svg" xmlns:xlink="http://www.w3.org/1999/xlink" width="24" height="24" viewBox="0 0 24 24">
  <defs>
    <clipPath id="clip-path">
      <path id="Color" d="M9,19V17a1,1,0,1,1,2,0v2a1,1,0,0,1-2,0Zm6.779-2.029-1.439-1.39a1,1,0,0,1,1.391-1.439l1.439,1.39a1,1,0,0,1-1.391,1.439ZM2.807,16.947a1,1,0,0,1,.024-1.415l1.438-1.39A1,1,0,0,1,5.66,15.582l-1.439,1.39a1,1,0,0,1-1.414-.024ZM17,11a1,1,0,1,1,0-2h2a1,1,0,0,1,0,2ZM1,11A1,1,0,0,1,1,9H3a1,1,0,0,1,0,2ZM14.316,5.832a1,1,0,0,1,.024-1.414l1.438-1.39a1,1,0,0,1,1.391,1.439L15.73,5.858a1,1,0,0,1-1.414-.026ZM4.27,5.857,2.831,4.468A1,1,0,0,1,4.221,3.029L5.66,4.418A1,1,0,0,1,4.27,5.857ZM9,3V1a1,1,0,0,1,2,0V3A1,1,0,0,1,9,3Z" transform="translate(2 2)"/>
    </clipPath>
  </defs>
  <g id="Group_187" data-name="Group 187">
    <path id="Color-2" data-name="Color" d="M9,19V17a1,1,0,1,1,2,0v2a1,1,0,0,1-2,0Zm6.779-2.029-1.439-1.39a1,1,0,0,1,1.391-1.439l1.439,1.39a1,1,0,0,1-1.391,1.439ZM2.807,16.947a1,1,0,0,1,.024-1.415l1.438-1.39A1,1,0,0,1,5.66,15.582l-1.439,1.39a1,1,0,0,1-1.414-.024ZM17,11a1,1,0,1,1,0-2h2a1,1,0,0,1,0,2ZM1,11A1,1,0,0,1,1,9H3a1,1,0,0,1,0,2ZM14.316,5.832a1,1,0,0,1,.024-1.414l1.438-1.39a1,1,0,0,1,1.391,1.439L15.73,5.858a1,1,0,0,1-1.414-.026ZM4.27,5.857,2.831,4.468A1,1,0,0,1,4.221,3.029L5.66,4.418A1,1,0,0,1,4.27,5.857ZM9,3V1a1,1,0,0,1,2,0V3A1,1,0,0,1,9,3Z" transform="translate(2 2)"/>
  </g>
</svg>
