<svg id="Icons_Layers" data-name="Icons / Layers" xmlns="http://www.w3.org/2000/svg" xmlns:xlink="http://www.w3.org/1999/xlink" width="24" height="24" viewBox="0 0 24 24">
  <defs>
    <clipPath id="clip-path">
      <path id="Color" d="M9,18a1.009,1.009,0,0,1-.5-.132l-8-4.594a1,1,0,0,1-.5-.926.992.992,0,0,1,.606-.86l2.152-.916L.5,9.274A1,1,0,0,1,.608,7.487l2.152-.916L.5,5.274A1,1,0,0,1,.608,3.488l8-3.407a.994.994,0,0,1,.783,0l8,3.407A1,1,0,0,1,17.5,5.274l-2.259,1.3,2.152.916A1,1,0,0,1,17.5,9.274l-2.258,1.3,2.152.917a1,1,0,0,1,.106,1.786l-8,4.594A1.007,1.007,0,0,1,9,18ZM4.934,11.819l-1.694.722L9,15.847l5.76-3.307-1.694-.723L9.5,13.867a1,1,0,0,1-1,0L4.934,11.819Zm0-4L3.24,8.54,9,11.848,14.76,8.54l-1.694-.722L9.5,9.868a1,1,0,0,1-1,0L4.934,7.818ZM9,2.087,3.24,4.541,9,7.847l5.76-3.307L9,2.087Z" transform="translate(3 3)"/>
    </clipPath>
  </defs>
  <g id="Group_134" data-name="Group 134">
    <path id="Color-2" data-name="Color" d="M9,18a1.009,1.009,0,0,1-.5-.132l-8-4.594a1,1,0,0,1-.5-.926.992.992,0,0,1,.606-.86l2.152-.916L.5,9.274A1,1,0,0,1,.608,7.487l2.152-.916L.5,5.274A1,1,0,0,1,.608,3.488l8-3.407a.994.994,0,0,1,.783,0l8,3.407A1,1,0,0,1,17.5,5.274l-2.259,1.3,2.152.916A1,1,0,0,1,17.5,9.274l-2.258,1.3,2.152.917a1,1,0,0,1,.106,1.786l-8,4.594A1.007,1.007,0,0,1,9,18ZM4.934,11.819l-1.694.722L9,15.847l5.76-3.307-1.694-.723L9.5,13.867a1,1,0,0,1-1,0L4.934,11.819Zm0-4L3.24,8.54,9,11.848,14.76,8.54l-1.694-.722L9.5,9.868a1,1,0,0,1-1,0L4.934,7.818ZM9,2.087,3.24,4.541,9,7.847l5.76-3.307L9,2.087Z" transform="translate(3 3)"/>
  </g>
</svg>
