<svg id="Icons_Mic_Off" data-name="Icons / Mic / Off" xmlns="http://www.w3.org/2000/svg" xmlns:xlink="http://www.w3.org/1999/xlink" width="24" height="24" viewBox="0 0 24 24">
  <defs>
    <clipPath id="clip-path">
      <path id="Color" d="M6,20a1,1,0,1,1,0-2H8V15.92A7,7,0,0,1,2,9,1,1,0,0,1,4,9a4.981,4.981,0,0,0,6.054,4.883l1.593,1.593A6.968,6.968,0,0,1,10,15.919V18h2a1,1,0,1,1,0,2Zm10.293-1.292-16-16A1,1,0,1,1,1.707,1.293l16,16a1,1,0,0,1-1.414,1.415ZM5,9V8.828l4.156,4.156c-.052,0-.1.015-.157.015A4,4,0,0,1,5,9Zm8.312,2.484A4.923,4.923,0,0,0,14,9a1,1,0,1,1,2,0,6.947,6.947,0,0,1-1.225,3.947ZM10.984,9.156c0-.051.015-.1.015-.156V4A2,2,0,0,0,7,4V5.172L5.076,3.248A4,4,0,0,1,13,4V9a3.954,3.954,0,0,1-.421,1.751Z" transform="translate(3 2)"/>
    </clipPath>
  </defs>
  <g id="Group_183" data-name="Group 183">
    <path id="Color-2" data-name="Color" d="M6,20a1,1,0,1,1,0-2H8V15.92A7,7,0,0,1,2,9,1,1,0,0,1,4,9a4.981,4.981,0,0,0,6.054,4.883l1.593,1.593A6.968,6.968,0,0,1,10,15.919V18h2a1,1,0,1,1,0,2Zm10.293-1.292-16-16A1,1,0,1,1,1.707,1.293l16,16a1,1,0,0,1-1.414,1.415ZM5,9V8.828l4.156,4.156c-.052,0-.1.015-.157.015A4,4,0,0,1,5,9Zm8.312,2.484A4.923,4.923,0,0,0,14,9a1,1,0,1,1,2,0,6.947,6.947,0,0,1-1.225,3.947ZM10.984,9.156c0-.051.015-.1.015-.156V4A2,2,0,0,0,7,4V5.172L5.076,3.248A4,4,0,0,1,13,4V9a3.954,3.954,0,0,1-.421,1.751Z" transform="translate(3 2)"/>
  </g>
</svg>
