<svg id="Icons_Video_Off" data-name="Icons / Video / Off" xmlns="http://www.w3.org/2000/svg" width="24" height="24" viewBox="0 0 24 24">
  <path id="Color" d="M18,18a1,1,0,0,1-.707-.292L14.386,14.8l-1.454-1.455L3.586,4,1.826,2.24l-.533-.533a1,1,0,0,1,0-1.414,1,1,0,0,1,1.414,0L4.414,2l2,2L13,10.587l2,2,3.707,3.707A1,1,0,0,1,18,18Zm-6-2H3a3,3,0,0,1-3-3V5A2.967,2.967,0,0,1,.974,2.8L2.4,4.223A.98.98,0,0,0,2,5v8a1,1,0,0,0,1,1h9a.307.307,0,0,0,.088-.017.469.469,0,0,1,.055-.014l1.522,1.524A2.988,2.988,0,0,1,12,16Zm6.319-2a1.665,1.665,0,0,1-.6-.112L13,9.171V5a1,1,0,0,0-1-1H7.828l-2-2H12a3,3,0,0,1,3,3V6.451l2.161-2A1.7,1.7,0,0,1,18.319,4a1.728,1.728,0,0,1,.693.144A1.606,1.606,0,0,1,20,5.63v6.741a1.608,1.608,0,0,1-.988,1.484A1.726,1.726,0,0,1,18.319,14ZM18,6.4,15.191,9,18,11.6Z" transform="translate(2 3)"/>
</svg>
