<svg id="Icons_Thermometer_Minus" data-name="Icons / Thermometer / Minus" xmlns="http://www.w3.org/2000/svg" xmlns:xlink="http://www.w3.org/1999/xlink" width="24" height="24" viewBox="0 0 24 24">
  <defs>
    <clipPath id="clip-path">
      <path id="Color" d="M12,20a5,5,0,0,1-3-9V3a3,3,0,0,1,3-3,2.949,2.949,0,0,1,2.128.892A2.909,2.909,0,0,1,15,3v8a5,5,0,0,1-3,9ZM12,2a1,1,0,0,0-1,1v8.54a1,1,0,0,1-.5.868,3,3,0,1,0,3,0,1,1,0,0,1-.5-.868V3a.965.965,0,0,0-.286-.694A.984.984,0,0,0,12,2ZM5,5H1A1,1,0,0,1,1,3H5A1,1,0,0,1,5,5Z" transform="translate(2 2)"/>
    </clipPath>
  </defs>
  <g id="Group_146" data-name="Group 146">
    <path id="Color-2" data-name="Color" d="M12,20a5,5,0,0,1-3-9V3a3,3,0,0,1,3-3,2.949,2.949,0,0,1,2.128.892A2.909,2.909,0,0,1,15,3v8a5,5,0,0,1-3,9ZM12,2a1,1,0,0,0-1,1v8.54a1,1,0,0,1-.5.868,3,3,0,1,0,3,0,1,1,0,0,1-.5-.868V3a.965.965,0,0,0-.286-.694A.984.984,0,0,0,12,2ZM5,5H1A1,1,0,0,1,1,3H5A1,1,0,0,1,5,5Z" transform="translate(2 2)"/>
  </g>
</svg>
