<svg id="Icons_Arrow_Diagonal_Right_Down" data-name="Icons / Arrow / Diagonal / Right Down" xmlns="http://www.w3.org/2000/svg" xmlns:xlink="http://www.w3.org/1999/xlink" width="24" height="24" viewBox="0 0 24 24">
  <defs>
    <clipPath id="clip-path">
      <path id="Color" d="M11,2a1,1,0,0,0-1,1V8.586L1.707.293A1,1,0,0,0,.293,1.707L8.586,10H3a1,1,0,1,0,0,2h8a1,1,0,0,0,1-1V3a1,1,0,0,0-1-1" transform="translate(6 6)"/>
    </clipPath>
  </defs>
  <g id="Group_142" data-name="Group 142">
    <path id="Color-2" data-name="Color" d="M11,2a1,1,0,0,0-1,1V8.586L1.707.293A1,1,0,0,0,.293,1.707L8.586,10H3a1,1,0,1,0,0,2h8a1,1,0,0,0,1-1V3a1,1,0,0,0-1-1" transform="translate(6 6)"/>
  </g>
</svg>
