<svg id="Icons_Headphones" data-name="Icons / Headphones" xmlns="http://www.w3.org/2000/svg" xmlns:xlink="http://www.w3.org/1999/xlink" width="24" height="24" viewBox="0 0 24 24">
  <defs>
    <clipPath id="clip-path">
      <path id="Color" d="M16,19a4,4,0,1,1,0-8,3.932,3.932,0,0,1,2,.557V10.366A8.2,8.2,0,0,0,10,2a8.2,8.2,0,0,0-8,8.366v1.191A3.933,3.933,0,0,1,4,11a4,4,0,1,1-4,4V10.366A10.2,10.2,0,0,1,10,0,10.2,10.2,0,0,1,20,10.366V15A4,4,0,0,1,16,19Zm0-6a2,2,0,1,0,2,2A2,2,0,0,0,16,13ZM4,13a2,2,0,1,0,2,2A2,2,0,0,0,4,13Z" transform="translate(2 2)"/>
    </clipPath>
  </defs>
  <g id="Group_198" data-name="Group 198">
    <path id="Color-2" data-name="Color" d="M16,19a4,4,0,1,1,0-8,3.932,3.932,0,0,1,2,.557V10.366A8.2,8.2,0,0,0,10,2a8.2,8.2,0,0,0-8,8.366v1.191A3.933,3.933,0,0,1,4,11a4,4,0,1,1-4,4V10.366A10.2,10.2,0,0,1,10,0,10.2,10.2,0,0,1,20,10.366V15A4,4,0,0,1,16,19Zm0-6a2,2,0,1,0,2,2A2,2,0,0,0,16,13ZM4,13a2,2,0,1,0,2,2A2,2,0,0,0,4,13Z" transform="translate(2 2)"/>
  </g>
</svg>
