<svg id="Icons_Unlock" data-name="Icons / Unlock" xmlns="http://www.w3.org/2000/svg" xmlns:xlink="http://www.w3.org/1999/xlink" width="24" height="24" viewBox="0 0 24 24">
  <defs>
    <clipPath id="clip-path">
      <path id="Color" d="M13,20H3a3,3,0,0,1-3-3V9A3,3,0,0,1,3,6H4V4a4,4,0,0,1,8,0,1,1,0,1,1-2,0A2,2,0,1,0,6,4V6h7a3,3,0,0,1,3,3v8A3,3,0,0,1,13,20ZM3,8A1,1,0,0,0,2,9v8a1,1,0,0,0,1,1H13a1,1,0,0,0,1-1V9a1,1,0,0,0-1-1Zm5,8a3,3,0,1,1,3-3A3,3,0,0,1,8,16Zm0-4a1,1,0,1,0,1,1A1,1,0,0,0,8,12Z" transform="translate(4 2)"/>
    </clipPath>
  </defs>
  <g id="Group_219" data-name="Group 219">
    <path id="Color-2" data-name="Color" d="M13,20H3a3,3,0,0,1-3-3V9A3,3,0,0,1,3,6H4V4a4,4,0,0,1,8,0,1,1,0,1,1-2,0A2,2,0,1,0,6,4V6h7a3,3,0,0,1,3,3v8A3,3,0,0,1,13,20ZM3,8A1,1,0,0,0,2,9v8a1,1,0,0,0,1,1H13a1,1,0,0,0,1-1V9a1,1,0,0,0-1-1Zm5,8a3,3,0,1,1,3-3A3,3,0,0,1,8,16Zm0-4a1,1,0,1,0,1,1A1,1,0,0,0,8,12Z" transform="translate(4 2)"/>
  </g>
</svg>
