<svg id="Icons_External_Link" data-name="Icons / External Link" xmlns="http://www.w3.org/2000/svg" xmlns:xlink="http://www.w3.org/1999/xlink" width="24" height="24" viewBox="0 0 24 24">
  <defs>
    <clipPath id="clip-path">
      <path id="Color" d="M3,18a3,3,0,0,1-3-3V3A3,3,0,0,1,3,0H9A1,1,0,0,1,9,2H3A1,1,0,0,0,2,3V15a1,1,0,0,0,1,1H15a1,1,0,0,0,1-1V9a1,1,0,1,1,2,0v6a3,3,0,0,1-3,3ZM8.293,9.707a1,1,0,0,1,0-1.415l6.285-6.285L13,2A1,1,0,0,1,13,0h0l4,.02a1,1,0,0,1,1,1L18,5a1,1,0,0,1-1,1h0a1,1,0,0,1-1-1V3.415L9.707,9.707a1,1,0,0,1-1.414,0Z" transform="translate(3 3)"/>
    </clipPath>
  </defs>
  <g id="Group_162" data-name="Group 162">
    <path id="Color-2" data-name="Color" d="M3,18a3,3,0,0,1-3-3V3A3,3,0,0,1,3,0H9A1,1,0,0,1,9,2H3A1,1,0,0,0,2,3V15a1,1,0,0,0,1,1H15a1,1,0,0,0,1-1V9a1,1,0,1,1,2,0v6a3,3,0,0,1-3,3ZM8.293,9.707a1,1,0,0,1,0-1.415l6.285-6.285L13,2A1,1,0,0,1,13,0h0l4,.02a1,1,0,0,1,1,1L18,5a1,1,0,0,1-1,1h0a1,1,0,0,1-1-1V3.415L9.707,9.707a1,1,0,0,1-1.414,0Z" transform="translate(3 3)"/>
  </g>
</svg>
