<svg id="Icons_Flag" data-name="Icons / Flag" xmlns="http://www.w3.org/2000/svg" xmlns:xlink="http://www.w3.org/1999/xlink" width="24" height="24" viewBox="0 0 24 24">
  <defs>
    <clipPath id="clip-path">
      <path id="Color" d="M1,18a1,1,0,0,1-1-1V1.857a1,1,0,0,1,.3-.713C.494.953,1.611,0,4.5,0A10.164,10.164,0,0,1,8.365.926a8.475,8.475,0,0,0,3.136.788,7.254,7.254,0,0,0,2.169-.286,1.759,1.759,0,0,1,.548-.087,1.806,1.806,0,0,1,1.051.34A1.769,1.769,0,0,1,16,3.106v8.643a1.753,1.753,0,0,1-.959,1.556A7.705,7.705,0,0,1,11.5,14a10.168,10.168,0,0,1-3.858-.923l-.007,0-.007,0A8.456,8.456,0,0,0,4.5,12.286,6.189,6.189,0,0,0,2,12.7V17A1,1,0,0,1,1,18Zm3.5-7.714a10.164,10.164,0,0,1,3.865.926A8.475,8.475,0,0,0,11.5,12a6.156,6.156,0,0,0,2.5-.414V3.414a9.511,9.511,0,0,1-2.5.3,10.168,10.168,0,0,1-3.858-.923l-.007,0-.007,0A8.456,8.456,0,0,0,4.5,2,6.176,6.176,0,0,0,2,2.416v8.168A9.544,9.544,0,0,1,4.5,10.286Z" transform="translate(4 3)"/>
    </clipPath>
  </defs>
  <g id="Group_191" data-name="Group 191">
    <path id="Color-2" data-name="Color" d="M1,18a1,1,0,0,1-1-1V1.857a1,1,0,0,1,.3-.713C.494.953,1.611,0,4.5,0A10.164,10.164,0,0,1,8.365.926a8.475,8.475,0,0,0,3.136.788,7.254,7.254,0,0,0,2.169-.286,1.759,1.759,0,0,1,.548-.087,1.806,1.806,0,0,1,1.051.34A1.769,1.769,0,0,1,16,3.106v8.643a1.753,1.753,0,0,1-.959,1.556A7.705,7.705,0,0,1,11.5,14a10.168,10.168,0,0,1-3.858-.923l-.007,0-.007,0A8.456,8.456,0,0,0,4.5,12.286,6.189,6.189,0,0,0,2,12.7V17A1,1,0,0,1,1,18Zm3.5-7.714a10.164,10.164,0,0,1,3.865.926A8.475,8.475,0,0,0,11.5,12a6.156,6.156,0,0,0,2.5-.414V3.414a9.511,9.511,0,0,1-2.5.3,10.168,10.168,0,0,1-3.858-.923l-.007,0-.007,0A8.456,8.456,0,0,0,4.5,2,6.176,6.176,0,0,0,2,2.416v8.168A9.544,9.544,0,0,1,4.5,10.286Z" transform="translate(4 3)"/>
  </g>
</svg>
