<svg id="Icons_Monitor" data-name="Icons / Monitor" xmlns="http://www.w3.org/2000/svg" xmlns:xlink="http://www.w3.org/1999/xlink" width="24" height="24" viewBox="0 0 24 24">
  <defs>
    <clipPath id="clip-path">
      <path id="Color" d="M15,18H5a1,1,0,1,1,0-2H9V14H3a3,3,0,0,1-3-3V3A3,3,0,0,1,3,0H17a3,3,0,0,1,3,3v8a3,3,0,0,1-3,3H11v2h4a1,1,0,1,1,0,2ZM3,2A1,1,0,0,0,2,3v8a1,1,0,0,0,1,1H17a1,1,0,0,0,1-1V3a1,1,0,0,0-1-1Z" transform="translate(2 3)"/>
    </clipPath>
  </defs>
  <g id="Group_193" data-name="Group 193">
    <path id="Color-2" data-name="Color" d="M15,18H5a1,1,0,1,1,0-2H9V14H3a3,3,0,0,1-3-3V3A3,3,0,0,1,3,0H17a3,3,0,0,1,3,3v8a3,3,0,0,1-3,3H11v2h4a1,1,0,1,1,0,2ZM3,2A1,1,0,0,0,2,3v8a1,1,0,0,0,1,1H17a1,1,0,0,0,1-1V3a1,1,0,0,0-1-1Z" transform="translate(2 3)"/>
  </g>
</svg>
