<svg id="Icons_Film" data-name="Icons / Film" xmlns="http://www.w3.org/2000/svg" width="24" height="24" viewBox="0 0 24 24">
  <path id="Color" d="M15.256,18H2.744A2.747,2.747,0,0,1,0,15.256V2.744A2.747,2.747,0,0,1,2.744,0H15.256A2.747,2.747,0,0,1,18,2.744V15.256A2.747,2.747,0,0,1,15.256,18ZM14,14v2h1.256A.745.745,0,0,0,16,15.256V14ZM6,2V16h6V2ZM2,14v1.256A.745.745,0,0,0,2.744,16H4V14Zm12-4v2h2V10ZM2,10v2H4V10ZM14,6V8h2V6ZM2,6V8H4V6ZM14,2V4h2V2.744A.745.745,0,0,0,15.256,2ZM2.744,2A.745.745,0,0,0,2,2.744V4H4V2Z" transform="translate(3 3)"/>
</svg>
