<svg id="Icons_Slash" data-name="Icons / Slash" xmlns="http://www.w3.org/2000/svg" xmlns:xlink="http://www.w3.org/1999/xlink" width="24" height="24" viewBox="0 0 24 24">
  <defs>
    <clipPath id="clip-path">
      <path id="Color" d="M10,20A10,10,0,1,1,20,10,10.011,10.011,0,0,1,10,20ZM3.688,5.1A7.917,7.917,0,0,0,2,10a8.009,8.009,0,0,0,8,8,7.9,7.9,0,0,0,4.9-1.688ZM10,2A7.912,7.912,0,0,0,5.1,3.688L16.312,14.9A7.914,7.914,0,0,0,18,10,8.009,8.009,0,0,0,10,2Z" transform="translate(2 2)"/>
    </clipPath>
  </defs>
  <g id="Group_163" data-name="Group 163">
    <path id="Color-2" data-name="Color" d="M10,20A10,10,0,1,1,20,10,10.011,10.011,0,0,1,10,20ZM3.688,5.1A7.917,7.917,0,0,0,2,10a8.009,8.009,0,0,0,8,8,7.9,7.9,0,0,0,4.9-1.688ZM10,2A7.912,7.912,0,0,0,5.1,3.688L16.312,14.9A7.914,7.914,0,0,0,18,10,8.009,8.009,0,0,0,10,2Z" transform="translate(2 2)"/>
  </g>
</svg>
