<svg id="Icons_Attach_Attach_1" data-name="Icons / Attach / Attach 1" xmlns="http://www.w3.org/2000/svg" xmlns:xlink="http://www.w3.org/1999/xlink" width="24" height="24" viewBox="0 0 24 24">
  <defs>
    <clipPath id="clip-path">
      <path id="Color" d="M6,20a5.862,5.862,0,0,1-6-5.7V4.132A4.241,4.241,0,0,1,4.333,0,4.242,4.242,0,0,1,8.667,4.132L8.661,14.309a2.621,2.621,0,0,1-2.667,2.565,2.62,2.62,0,0,1-2.666-2.566l0-9.391a1,1,0,0,1,1-1h0a1,1,0,0,1,1,1l-.005,9.39a.622.622,0,0,0,.666.565.623.623,0,0,0,.667-.566L6.667,4.131A2.242,2.242,0,0,0,4.333,2,2.242,2.242,0,0,0,2,4.132V14.3A3.862,3.862,0,0,0,6,18a3.862,3.862,0,0,0,4-3.7V4.132a1,1,0,0,1,2,0V14.3A5.862,5.862,0,0,1,6,20" transform="translate(6 2)"/>
    </clipPath>
  </defs>
  <g id="Group_136" data-name="Group 136">
    <path id="Color-2" data-name="Color" d="M6,20a5.862,5.862,0,0,1-6-5.7V4.132A4.241,4.241,0,0,1,4.333,0,4.242,4.242,0,0,1,8.667,4.132L8.661,14.309a2.621,2.621,0,0,1-2.667,2.565,2.62,2.62,0,0,1-2.666-2.566l0-9.391a1,1,0,0,1,1-1h0a1,1,0,0,1,1,1l-.005,9.39a.622.622,0,0,0,.666.565.623.623,0,0,0,.667-.566L6.667,4.131A2.242,2.242,0,0,0,4.333,2,2.242,2.242,0,0,0,2,4.132V14.3A3.862,3.862,0,0,0,6,18a3.862,3.862,0,0,0,4-3.7V4.132a1,1,0,0,1,2,0V14.3A5.862,5.862,0,0,1,6,20" transform="translate(6 2)"/>
  </g>
</svg>
