<svg id="Icons_Hash" data-name="Icons / Hash" xmlns="http://www.w3.org/2000/svg" xmlns:xlink="http://www.w3.org/1999/xlink" width="24" height="24" viewBox="0 0 24 24">
  <defs>
    <clipPath id="clip-path">
      <path id="Color" d="M10.545,18a1.078,1.078,0,0,1-.18-.015,1.041,1.041,0,0,1-.684-.43.983.983,0,0,1-.167-.744L10.209,13H6.334l-.758,4.162A1.035,1.035,0,0,1,4.545,18a1.077,1.077,0,0,1-.18-.015,1.04,1.04,0,0,1-.683-.429.983.983,0,0,1-.167-.744L4.209,13H1a1,1,0,0,1,0-2H4.573L5.3,7H1A1,1,0,1,1,1,5H5.665L6.423.837A1.035,1.035,0,0,1,7.453,0a1.079,1.079,0,0,1,.182.016,1.041,1.041,0,0,1,.684.43.979.979,0,0,1,.165.742L7.79,5h3.874L12.423.837A1.036,1.036,0,0,1,13.453,0a1.079,1.079,0,0,1,.182.016,1.039,1.039,0,0,1,.683.43.98.98,0,0,1,.165.743L13.79,5H17a1,1,0,1,1,0,2H13.427L12.7,11H17a1,1,0,1,1,0,2H12.334l-.758,4.162A1.035,1.035,0,0,1,10.545,18ZM7.427,7,6.7,11h3.875L11.3,7Z" transform="translate(3 3.001)"/>
    </clipPath>
  </defs>
  <g id="Group_186" data-name="Group 186">
    <path id="Color-2" data-name="Color" d="M10.545,18a1.078,1.078,0,0,1-.18-.015,1.041,1.041,0,0,1-.684-.43.983.983,0,0,1-.167-.744L10.209,13H6.334l-.758,4.162A1.035,1.035,0,0,1,4.545,18a1.077,1.077,0,0,1-.18-.015,1.04,1.04,0,0,1-.683-.429.983.983,0,0,1-.167-.744L4.209,13H1a1,1,0,0,1,0-2H4.573L5.3,7H1A1,1,0,1,1,1,5H5.665L6.423.837A1.035,1.035,0,0,1,7.453,0a1.079,1.079,0,0,1,.182.016,1.041,1.041,0,0,1,.684.43.979.979,0,0,1,.165.742L7.79,5h3.874L12.423.837A1.036,1.036,0,0,1,13.453,0a1.079,1.079,0,0,1,.182.016,1.039,1.039,0,0,1,.683.43.98.98,0,0,1,.165.743L13.79,5H17a1,1,0,1,1,0,2H13.427L12.7,11H17a1,1,0,1,1,0,2H12.334l-.758,4.162A1.035,1.035,0,0,1,10.545,18ZM7.427,7,6.7,11h3.875L11.3,7Z" transform="translate(3 3.001)"/>
  </g>
</svg>
