<svg id="Icons_Phone_Call" data-name="Icons / Phone / Call" xmlns="http://www.w3.org/2000/svg" width="24" height="24" viewBox="0 0 24 24">
  <path id="Color" d="M15.4,20A15.418,15.418,0,0,1,0,4.6,4.6,4.6,0,0,1,4.6,0a4.483,4.483,0,0,1,.766.065,4.322,4.322,0,0,1,.725.184.993.993,0,0,1,.647.721L8.107,6.933a1,1,0,0,1-.253.916c-.135.142-.137.145-1.38.794a9.93,9.93,0,0,0,4.88,4.884c.652-1.243.654-1.246.8-1.382a1,1,0,0,1,.695-.277,1.026,1.026,0,0,1,.221.024l5.963,1.369a1,1,0,0,1,.722.647,4.247,4.247,0,0,1,.184.73A4.554,4.554,0,0,1,20,15.4,4.605,4.605,0,0,1,15.4,20ZM4.6,2A2.6,2.6,0,0,0,2,4.6,13.416,13.416,0,0,0,15.4,18,2.6,2.6,0,0,0,18,15.4a2.631,2.631,0,0,0-.021-.328l-4.622-1.061-.073.141c-.07.135-.143.273-.212.4l-.006.012c-.364.7-.651,1.244-1.2,1.244a1.145,1.145,0,0,1-.426-.093,11.847,11.847,0,0,1-7.18-7.206c-.358-.784.323-1.14,1.185-1.591l.536-.281L4.928,2.021A2.4,2.4,0,0,0,4.6,2ZM19,10a1,1,0,0,1-1-1,7.008,7.008,0,0,0-7-7,1,1,0,0,1,0-2,9.01,9.01,0,0,1,9,9A1,1,0,0,1,19,10Zm-4,0a1,1,0,0,1-1-1,3,3,0,0,0-3-3,1,1,0,0,1,0-2,5.006,5.006,0,0,1,5,5A1,1,0,0,1,15,10Z" transform="translate(2 2)"/>
</svg>
