<svg id="Icons_Funnel" data-name="Icons / Funnel" xmlns="http://www.w3.org/2000/svg" xmlns:xlink="http://www.w3.org/1999/xlink" width="24" height="24" viewBox="0 0 24 24">
  <defs>
    <clipPath id="clip-path">
      <path id="Color" d="M9.9,18a1,1,0,0,1-.6-.2L5.274,14.752a1,1,0,0,1-.4-.8V10.681L.113,1.459A1,1,0,0,1,1,0H15a1,1,0,0,1,.88,1.475L10.9,10.69V17a.991.991,0,0,1-.554.895A1.007,1.007,0,0,1,9.9,18ZM2.643,2,6.765,9.978a1,1,0,0,1,.112.459v3.02L8.9,14.99V10.437a1.008,1.008,0,0,1,.121-.475L13.324,2Z" transform="translate(4 4)"/>
    </clipPath>
  </defs>
  <g id="Group_174" data-name="Group 174">
    <path id="Color-2" data-name="Color" d="M9.9,18a1,1,0,0,1-.6-.2L5.274,14.752a1,1,0,0,1-.4-.8V10.681L.113,1.459A1,1,0,0,1,1,0H15a1,1,0,0,1,.88,1.475L10.9,10.69V17a.991.991,0,0,1-.554.895A1.007,1.007,0,0,1,9.9,18ZM2.643,2,6.765,9.978a1,1,0,0,1,.112.459v3.02L8.9,14.99V10.437a1.008,1.008,0,0,1,.121-.475L13.324,2Z" transform="translate(4 4)"/>
  </g>
</svg>
