<svg id="Icons_Menu_Arrow" data-name="Icons / Menu / Arrow" xmlns="http://www.w3.org/2000/svg" xmlns:xlink="http://www.w3.org/1999/xlink" width="24" height="24" viewBox="0 0 24 24">
  <defs>
    <clipPath id="clip-path">
      <path id="Color" d="M1.447,14A.951.951,0,0,1,.5,13.052v-.1A.951.951,0,0,1,1.447,12h16.1a.951.951,0,0,1,.948.949v.1a.951.951,0,0,1-.948.949Zm1.845-3.293-3-3a1,1,0,0,1,0-1.414l3-3A1,1,0,0,1,4.706,4.707L3.414,6H17.552a.951.951,0,0,1,.948.948v.1A.951.951,0,0,1,17.552,8H3.414L4.706,9.293a1,1,0,0,1-1.414,1.414ZM1.447,2A.951.951,0,0,1,.5,1.052v-.1A.951.951,0,0,1,1.447,0h16.1A.951.951,0,0,1,18.5.948v.1A.951.951,0,0,1,17.552,2Z" transform="translate(2.5 5)"/>
    </clipPath>
  </defs>
  <g id="Group_205" data-name="Group 205">
    <path id="Color-2" data-name="Color" d="M1.447,14A.951.951,0,0,1,.5,13.052v-.1A.951.951,0,0,1,1.447,12h16.1a.951.951,0,0,1,.948.949v.1a.951.951,0,0,1-.948.949Zm1.845-3.293-3-3a1,1,0,0,1,0-1.414l3-3A1,1,0,0,1,4.706,4.707L3.414,6H17.552a.951.951,0,0,1,.948.948v.1A.951.951,0,0,1,17.552,8H3.414L4.706,9.293a1,1,0,0,1-1.414,1.414ZM1.447,2A.951.951,0,0,1,.5,1.052v-.1A.951.951,0,0,1,1.447,0h16.1A.951.951,0,0,1,18.5.948v.1A.951.951,0,0,1,17.552,2Z" transform="translate(2.5 5)"/>
  </g>
</svg>
