<svg id="Icons_More_Vertical" data-name="Icons / More / Vertical" xmlns="http://www.w3.org/2000/svg" xmlns:xlink="http://www.w3.org/1999/xlink" width="24" height="24" viewBox="0 0 24 24">
  <defs>
    <clipPath id="clip-path">
      <path id="Color" d="M0,16a2,2,0,1,1,2,2A2,2,0,0,1,0,16ZM0,9a2,2,0,1,1,2,2A2,2,0,0,1,0,9ZM0,2A2,2,0,1,1,2,4,2,2,0,0,1,0,2Z" transform="translate(10 3)"/>
    </clipPath>
  </defs>
  <g id="Group_143" data-name="Group 143">
    <path id="Color-2" data-name="Color" d="M0,16a2,2,0,1,1,2,2A2,2,0,0,1,0,16ZM0,9a2,2,0,1,1,2,2A2,2,0,0,1,0,9ZM0,2A2,2,0,1,1,2,4,2,2,0,0,1,0,2Z" transform="translate(10 3)"/>
  </g>
</svg>
