<svg id="Icons_Color_Picker" data-name="Icons / Color Picker" xmlns="http://www.w3.org/2000/svg" xmlns:xlink="http://www.w3.org/1999/xlink" width="24" height="24" viewBox="0 0 24 24">
  <defs>
    <clipPath id="clip-path">
      <path id="Color" d="M1,16a1,1,0,0,1-1-1.09l.379-4.17a1.978,1.978,0,0,1,.57-1.214l5.58-5.58L5.293,2.7A1,1,0,0,1,6.707,1.291L7.946,2.53l2-2A1.816,1.816,0,0,1,11.244,0a2,2,0,0,1,1.419.6L15.4,3.335A2.008,2.008,0,0,1,16,4.707a1.812,1.812,0,0,1-.527,1.343l-2,2,1.238,1.238A1,1,0,1,1,13.293,10.7L12.055,9.466l-5.58,5.579a1.979,1.979,0,0,1-1.214.571l-4.17.378C1.064,16,1.034,16,1,16ZM7.946,5.358h0l-5.579,5.58L2.1,13.893l2.975-.271,5.563-5.569-2.7-2.7Zm3.325-3.326h0L9.36,3.944l2.7,2.7,1.911-1.912L11.272,2.032Z" transform="translate(4 4.002)"/>
    </clipPath>
  </defs>
  <g id="Group_24" data-name="Group 24">
    <path id="Color-2" data-name="Color" d="M1,16a1,1,0,0,1-1-1.09l.379-4.17a1.978,1.978,0,0,1,.57-1.214l5.58-5.58L5.293,2.7A1,1,0,0,1,6.707,1.291L7.946,2.53l2-2A1.816,1.816,0,0,1,11.244,0a2,2,0,0,1,1.419.6L15.4,3.335A2.008,2.008,0,0,1,16,4.707a1.812,1.812,0,0,1-.527,1.343l-2,2,1.238,1.238A1,1,0,1,1,13.293,10.7L12.055,9.466l-5.58,5.579a1.979,1.979,0,0,1-1.214.571l-4.17.378C1.064,16,1.034,16,1,16ZM7.946,5.358h0l-5.579,5.58L2.1,13.893l2.975-.271,5.563-5.569-2.7-2.7Zm3.325-3.326h0L9.36,3.944l2.7,2.7,1.911-1.912L11.272,2.032Z" transform="translate(4 4.002)"/>
  </g>
</svg>
