<svg id="Icons_Skip_Forward" data-name="Icons / Skip / Forward" xmlns="http://www.w3.org/2000/svg" xmlns:xlink="http://www.w3.org/1999/xlink" width="24" height="24" viewBox="0 0 24 24">
  <defs>
    <clipPath id="clip-path">
      <path id="Color" d="M1.956,12a2.153,2.153,0,0,1-.905-.2A1.764,1.764,0,0,1,0,10.214V1.788A1.763,1.763,0,0,1,1.05.2a2.135,2.135,0,0,1,.9-.2,2.053,2.053,0,0,1,1.3.462l5.1,4.214a.938.938,0,0,1,.1.1l.041.045V1a1,1,0,0,1,2,0V11a1,1,0,0,1-2,0V7.183l-.044.048a.936.936,0,0,1-.1.1l-5.1,4.213A2.043,2.043,0,0,1,1.956,12ZM2,2.015V9.91L6.822,6Z" transform="translate(6.5 5.999)"/>
    </clipPath>
  </defs>
  <g id="Group_111" data-name="Group 111">
    <path id="Color-2" data-name="Color" d="M1.956,12a2.153,2.153,0,0,1-.905-.2A1.764,1.764,0,0,1,0,10.214V1.788A1.763,1.763,0,0,1,1.05.2a2.135,2.135,0,0,1,.9-.2,2.053,2.053,0,0,1,1.3.462l5.1,4.214a.938.938,0,0,1,.1.1l.041.045V1a1,1,0,0,1,2,0V11a1,1,0,0,1-2,0V7.183l-.044.048a.936.936,0,0,1-.1.1l-5.1,4.213A2.043,2.043,0,0,1,1.956,12ZM2,2.015V9.91L6.822,6Z" transform="translate(6.5 5.999)"/>
  </g>
</svg>
