<svg xmlns="http://www.w3.org/2000/svg" xmlns:xlink="http://www.w3.org/1999/xlink" width="38" height="38" viewBox="0 0 38 38">
  <defs>
    <filter id="Ellipse_3" x="0" y="0" width="38" height="38" filterUnits="userSpaceOnUse">
      <feOffset input="SourceAlpha"/>
      <feGaussianBlur stdDeviation="3" result="blur"/>
      <feFlood flood-color="#fff"/>
      <feComposite operator="in" in2="blur"/>
      <feComposite in="SourceGraphic"/>
    </filter>
  </defs>
  <g id="btn-dropdown-cart" transform="translate(3 3)">
    <rect id="Rectangle_1166" data-name="Rectangle 1166" width="32" height="32" rx="4" fill="#0d0d0d"/>
    <g transform="matrix(1, 0, 0, 1, -3, -3)" filter="url(#Ellipse_3)">
      <circle id="Ellipse_3-2" data-name="Ellipse 3" cx="10" cy="10" r="10" transform="translate(9 9)" fill="#0df205"/>
    </g>
    <path id="Color" d="M8,9.286a.774.774,0,1,1,.774-.774A.775.775,0,0,1,8,9.286Zm-5.159,0a.774.774,0,1,1,.774-.774A.775.775,0,0,1,2.837,9.286Zm4.9-2.58H3.1a.518.518,0,0,1-.5-.38l-1.444-5.3H.516A.516.516,0,0,1,.516,0H1.548a.518.518,0,0,1,.5.38l.318,1.167h6.6A1.032,1.032,0,0,1,9.89,3.041L8.2,6.421A.514.514,0,0,1,7.739,6.707ZM2.645,2.58l.845,3.1H7.42l1.548-3.1H2.645Z" transform="translate(11 11.357)" fill="#0d0d0d"/>
  </g>
</svg>
