<svg id="Icons_Thermometer_Thermometer" data-name="Icons / Thermometer / Thermometer" xmlns="http://www.w3.org/2000/svg" xmlns:xlink="http://www.w3.org/1999/xlink" width="24" height="24" viewBox="0 0 24 24">
  <defs>
    <clipPath id="clip-path">
      <path id="Color" d="M5,20a5,5,0,0,1-3-9V3A3,3,0,0,1,5,0,2.945,2.945,0,0,1,7.127.892,2.909,2.909,0,0,1,8,3v8a5,5,0,0,1-3,9ZM5,2A1,1,0,0,0,4,3v8.54a1,1,0,0,1-.5.868,3,3,0,1,0,3,0A1,1,0,0,1,6,11.54V3a.965.965,0,0,0-.287-.694A.98.98,0,0,0,5,2Z" transform="translate(7 2)"/>
    </clipPath>
  </defs>
  <g id="Group_118" data-name="Group 118">
    <path id="Color-2" data-name="Color" d="M5,20a5,5,0,0,1-3-9V3A3,3,0,0,1,5,0,2.945,2.945,0,0,1,7.127.892,2.909,2.909,0,0,1,8,3v8a5,5,0,0,1-3,9ZM5,2A1,1,0,0,0,4,3v8.54a1,1,0,0,1-.5.868,3,3,0,1,0,3,0A1,1,0,0,1,6,11.54V3a.965.965,0,0,0-.287-.694A.98.98,0,0,0,5,2Z" transform="translate(7 2)"/>
  </g>
</svg>
