<svg id="Icons_Arrow_Chevron_Down" data-name="Icons / Arrow / Chevron / Down" xmlns="http://www.w3.org/2000/svg" xmlns:xlink="http://www.w3.org/1999/xlink" width="24" height="24" viewBox="0 0 24 24">
  <defs>
    <clipPath id="clip-path">
      <path id="Color" d="M5,6a1,1,0,0,1-.707-.293l-4-4A1,1,0,0,1,1.707.293l3.3,3.3L8.305.418A1,1,0,0,1,9.7,1.857l-4,3.862A1,1,0,0,1,5,6" transform="translate(7 9.5)"/>
    </clipPath>
  </defs>
  <g id="Group_51" data-name="Group 51">
    <path id="Color-2" data-name="Color" d="M5,6a1,1,0,0,1-.707-.293l-4-4A1,1,0,0,1,1.707.293l3.3,3.3L8.305.418A1,1,0,0,1,9.7,1.857l-4,3.862A1,1,0,0,1,5,6" transform="translate(7 9.5)"/>
  </g>
</svg>
