<svg id="Component_1" data-name="Component 1" xmlns="http://www.w3.org/2000/svg" width="428" height="80" viewBox="0 0 428 80">
  <g id="Footer">
    <rect id="Rectangle_1160" data-name="Rectangle 1160" width="428" height="80" fill="#0d0d0d"/>
    <rect id="Rectangle_1161" data-name="Rectangle 1161" width="380" height="60" rx="20" transform="translate(24 10)" fill="#f2f2f2"/>
    <text id="Copyright_reserved_GameHub_2021" data-name="Copyright reserved GameHub 2021" transform="translate(96.5 66.5)" fill="#0d0d0d" stroke="#0d0d0d" stroke-width="0.2" font-size="12" font-family="SegoeUI, Segoe UI"><tspan x="0" y="0">Copyright reserved GameHub 2021</tspan></text>
  </g>
  <g id="Rectangle_1188" data-name="Rectangle 1188" transform="translate(40 20.14)" fill="#0d0d0d" stroke="#707070" stroke-width="0.1">
    <rect width="69.126" height="23.72" rx="3" stroke="none"/>
    <rect x="0.05" y="0.05" width="69.026" height="23.62" rx="2.95" fill="none"/>
  </g>
  <text id="Home" transform="translate(61.5 35.397)" fill="lime" stroke="#f21b1b" stroke-width="0.2" font-size="9" font-family="SegoeUI, Segoe UI"><tspan x="0" y="0">Home</tspan></text>
  <g id="Rectangle_1192" data-name="Rectangle 1192" transform="translate(130.437 20.14)" fill="#0d0d0d" stroke="#707070" stroke-width="0.1">
    <rect width="69.126" height="23.72" rx="3" stroke="none"/>
    <rect x="0.05" y="0.05" width="69.026" height="23.62" rx="2.95" fill="none"/>
  </g>
  <g id="Rectangle_1193" data-name="Rectangle 1193" transform="translate(230.437 20.14)" fill="#0d0d0d" stroke="#707070" stroke-width="0.1">
    <rect width="69.126" height="23.72" rx="3" stroke="none"/>
    <rect x="0.05" y="0.05" width="69.026" height="23.62" rx="2.95" fill="none"/>
  </g>
  <g id="Rectangle_1194" data-name="Rectangle 1194" transform="translate(321 20.14)" fill="#0d0d0d" stroke="#707070" stroke-width="0.1">
    <rect width="69.126" height="23.72" rx="3" stroke="none"/>
    <rect x="0.05" y="0.05" width="69.026" height="23.62" rx="2.95" fill="none"/>
  </g>
  <text id="Check_out" data-name="Check out" transform="translate(330.5 35)" fill="lime" stroke="#f21b1b" stroke-width="0.2" font-size="9" font-family="SegoeUI, Segoe UI"><tspan x="0" y="0">Check out</tspan></text>
  <text id="Tags" transform="translate(153.5 35.397)" fill="lime" stroke="#f21b1b" stroke-width="0.2" font-size="9" font-family="SegoeUI, Segoe UI"><tspan x="0" y="0">Tags</tspan></text>
  <text id="Contact" transform="translate(245 35)" fill="lime" stroke="#f21b1b" stroke-width="0.2" font-size="9" font-family="SegoeUI, Segoe UI"><tspan x="0" y="0">Contact</tspan></text>
</svg>
