<svg id="Icons_Rewind_Left" data-name="Icons / Rewind / Left" xmlns="http://www.w3.org/2000/svg" xmlns:xlink="http://www.w3.org/1999/xlink" width="24" height="24" viewBox="0 0 24 24">
  <defs>
    <clipPath id="clip-path">
      <path id="Color" d="M15.044,12a2.055,2.055,0,0,1-1.3-.461L9,7.623v2.591A1.758,1.758,0,0,1,7.95,11.8a2.129,2.129,0,0,1-.905.2,2.055,2.055,0,0,1-1.3-.461L.642,7.328a1.693,1.693,0,0,1,0-2.653L5.741.463A2.045,2.045,0,0,1,7.045,0,2.142,2.142,0,0,1,7.95.2,1.761,1.761,0,0,1,9,1.788v2.59L13.741.463A2.045,2.045,0,0,1,15.045,0a2.142,2.142,0,0,1,.905.2A1.761,1.761,0,0,1,17,1.788v8.426A1.758,1.758,0,0,1,15.95,11.8,2.129,2.129,0,0,1,15.044,12ZM15,2.092,10.178,6,15,9.986Zm-8,0L2.178,6,7,9.986Z" transform="translate(2.5 5.999)"/>
    </clipPath>
  </defs>
  <g id="Group_22" data-name="Group 22">
    <path id="Color-2" data-name="Color" d="M15.044,12a2.055,2.055,0,0,1-1.3-.461L9,7.623v2.591A1.758,1.758,0,0,1,7.95,11.8a2.129,2.129,0,0,1-.905.2,2.055,2.055,0,0,1-1.3-.461L.642,7.328a1.693,1.693,0,0,1,0-2.653L5.741.463A2.045,2.045,0,0,1,7.045,0,2.142,2.142,0,0,1,7.95.2,1.761,1.761,0,0,1,9,1.788v2.59L13.741.463A2.045,2.045,0,0,1,15.045,0a2.142,2.142,0,0,1,.905.2A1.761,1.761,0,0,1,17,1.788v8.426A1.758,1.758,0,0,1,15.95,11.8,2.129,2.129,0,0,1,15.044,12ZM15,2.092,10.178,6,15,9.986Zm-8,0L2.178,6,7,9.986Z" transform="translate(2.5 5.999)"/>
  </g>
</svg>
